{
.appVersion = "1141";
DisplayStrings = (
l,
"/lbelt",
"/uni019B",
"/schwa",
"/uni0331",
"/uni02B7",
"/uni1DB1",
"/uni02D0",
"/uni1DB1"
);
copyright = "Digitized data copyright (C) 2010-2011, Google Corporation.";
customParameters = (
{
name = license;
value = "Licensed under the Apache License, Version 2.0";
},
{
name = licenseURL;
value = "http://www.apache.org/licenses/LICENSE-2.0";
},
{
name = vendorID;
value = "1ASC";
},
{
name = panose;
value = (
2,
11,
8,
6,
3,
5,
4,
2,
2,
4
);
},
{
name = unicodeRanges;
value = (
0,
1,
2,
3,
5,
6,
7,
9,
29,
30,
31,
32,
33,
35,
36,
38,
45,
62,
67,
69
);
},
{
name = codePageRanges;
value = (
1252,
1250,
1251,
1253,
1254,
1257,
1258
);
},
{
name = glyphOrder;
value = (
.notdef,
null,
nonmarkingreturn,
space,
exclam,
quotedbl,
numbersign,
dollar,
percent,
ampersand,
quotesingle,
parenleft,
parenright,
asterisk,
plus,
comma,
hyphen,
period,
slash,
zero,
one,
two,
three,
four,
five,
six,
seven,
eight,
nine,
colon,
semicolon,
less,
equal,
greater,
question,
at,
A,
B,
C,
D,
E,
F,
G,
H,
I.alt,
J,
K,
L,
M,
N,
O,
P,
Q,
R,
S,
T,
U,
V,
W,
X,
Y,
Z,
bracketleft,
backslash,
bracketright,
asciicircum,
underscore,
grave,
a,
b,
c,
d,
e,
f,
g,
h,
i,
j,
k,
l,
m,
n,
o,
p,
q,
r,
s,
t,
u,
v,
w,
x,
y,
z,
braceleft,
bar,
braceright,
asciitilde,
nonbreakingspace,
exclamdown,
cent,
sterling,
currency,
yen,
brokenbar,
section,
dieresis,
copyright,
ordfeminine,
guillemotleft,
logicalnot,
uni00AD,
registered,
overscore,
degree,
plusminus,
twosuperior,
threesuperior,
acute,
mu,
paragraph,
periodcentered,
cedilla,
onesuperior,
ordmasculine,
guillemotright,
onequarter,
onehalf,
threequarters,
questiondown,
Agrave,
Aacute,
Acircumflex,
Atilde,
Adieresis,
Aring,
AE,
Ccedilla,
Egrave,
Eacute,
Ecircumflex,
Edieresis,
Igrave.alt,
Iacute.alt,
Icircumflex.alt,
Idieresis.alt,
Eth,
Ntilde,
Ograve,
Oacute,
Ocircumflex,
Otilde,
Odieresis,
multiply,
Oslash,
Ugrave,
Uacute,
Ucircumflex,
Udieresis,
Yacute,
Thorn,
germandbls,
agrave,
aacute,
acircumflex,
atilde,

glyphs = (
{
glyphname = .notdef;
lastChange = "2017-02-21 05:28:43 +0000";
layers = (
{
layerId = "334C7BAA-C7B0-45C9-BED5-5E40ABBE215F";
paths = (
{
closed = 1;
nodes = (
"1034 0 LINE",
"1034 1462 LINE",
"193 1462 LINE",
"193 0 LINE"
);
},
{
closed = 1;
nodes = (
"930 1358 LINE",
"930 104 LINE",
"297 104 LINE",
"297 1358 LINE"
);
}
);
width = 1229;
}
);
note = .notdef;
},
{
glyphname = exclam;
lastChange = "2017-02-21 05:28:43 +0000";
layers = (
{
layerId = "334C7BAA-C7B0-45C9-BED5-5E40ABBE215F";
paths = (
{
closed = 1;
nodes = (
"307 1462 LINE",
"150 485 LINE",
"391 485 LINE",
"647 1462 LINE"
);
},
{
closed = 1;
nodes = (
"25 26 OFFCURVE",
"83 -27 OFFCURVE",
"180 -27 CURVE SMOOTH",
"299 -27 OFFCURVE",
"379 52 OFFCURVE",
"379 168 CURVE SMOOTH",
"379 260 OFFCURVE",
"320 313 OFFCURVE",
"229 313 CURVE SMOOTH",
"100 313 OFFCURVE",
"25 235 OFFCURVE",
"25 115 CURVE SMOOTH"
);
}
);
width = 586;
}
);
note = exclam;
unicode = 0021;
},
{
glyphname = quotedbl;
lastChange = "2017-02-21 05:28:43 +0000";
layers = (
{
layerId = "334C7BAA-C7B0-45C9-BED5-5E40ABBE215F";
paths = (
{
closed = 1;
nodes = (
"201 934 LINE",
"397 934 LINE",
"549 1462 LINE",
"272 1462 LINE"
);
},
{
closed = 1;
nodes = (
"604 934 LINE",
"803 934 LINE",
"954 1462 LINE",
"678 1462 LINE"
);
}
);
width = 928;
}
);
note = quotedbl;
unicode = 0022;
},
{
glyphname = numbersign;
lastChange = "2017-02-21 05:28:43 +0000";
layers = (
{
layerId = "334C7BAA-C7B0-45C9-BED5-5E40ABBE215F";
paths = (
{
closed = 1;
nodes = (
"1333 1055 LINE",
"1094 1055 LINE",
"1210 1462 LINE",
"995 1462 LINE",
"879 1055 LINE",
"680 1055 LINE",
"797 1462 LINE",
"580 1462 LINE",
"461 1055 LINE",
"172 1055 LINE",
"154 846 LINE",
"406 846 LINE",
"336 614 LINE",
"59 614 LINE",
"41 408 LINE",
"279 408 LINE",
"166 0 LINE",
"381 0 LINE",
"496 408 LINE",
"690 408 LINE",
"573 0 LINE",
"793 0 LINE",
"909 408 LINE",
"1206 408 LINE",
"1225 614 LINE",
"967 614 LINE",
"1036 846 LINE",
"1315 846 LINE"
);
},
{
closed = 1;
nodes = (
"819 846 LINE",
"750 614 LINE",
"553 614 LINE",
"623 846 LINE"
);
}
);
width = 1323;
}
);
note = numbersign;
unicode = 0023;
},
{
glyphname = dollar;
lastChange = "2017-02-21 05:28:43 +0000";
layers = (
{
layerId = "334C7BAA-C7B0-45C9-BED5-5E40ABBE215F";
paths = (
{
closed = 1;
nodes = (
"1034 553 OFFCURVE",
"1023 603 OFFCURVE",
"1001 646 CURVE SMOOTH",
"957 732 OFFCURVE",
"884 790 OFFCURVE",
"709 858 CURVE",
"772 1157 LINE",
"845 1151 OFFCURVE",
"926 1126 OFFCURVE",
"1014 1083 CURVE",
"1120 1315 LINE",
"1034 1360 OFFCURVE",
"936 1390 OFFCURVE",
"825 1405 CURVE",
"858 1556 LINE",
"719 1556 LINE",
"684 1405 LINE",
"387 1385 OFFCURVE",
"207 1235 OFFCURVE",
"207 1004 CURVE SMOOTH",
"207 839 OFFCURVE",
"309 720 OFFCURVE",
"526 639 CURVE",
"455 317 LINE",
"318 324 OFFCURVE",
"183 363 OFFCURVE",
"51 434 CURVE",
"51 168 LINE",
"148 119 OFFCURVE",
"267 90 OFFCURVE",
"406 82 CURVE",
"362 -119 LINE",
"502 -119 LINE",
"541 80 LINE",
"864 103 OFFCURVE",
"1034 251 OFFCURVE",
"1034 496 CURVE SMOOTH"
);
},
{
closed = 1;
nodes = (
"698 565 OFFCURVE",
"735 526 OFFCURVE",
"735 465 CURVE SMOOTH",
"735 382 OFFCURVE",
"678 334 OFFCURVE",
"594 322 CURVE",
"651 584 LINE"
);
},
{
closed = 1;
nodes = (
"529 932 OFFCURVE",
"502 969 OFFCURVE",
"502 1022 CURVE SMOOTH",
"502 1102 OFFCURVE",
"550 1148 OFFCURVE",
"633 1157 CURVE",
"582 911 LINE"
);
}
);
width = 1128;
}
);
note = dollar;
unicode = 0024;
},
{
glyphname = percent;
lastChange = "2017-02-21 05:28:43 +0000";
layers = (
{
layerId = "334C7BAA-C7B0-45C9-BED5-5E40ABBE215F";
paths = (
{
closed = 1;
nodes = (
"556 1274 OFFCURVE",
"575 1242 OFFCURVE",
"575 1178 CURVE SMOOTH",
"575 986 OFFCURVE",
"503 772 OFFCURVE",
"416 772 CURVE SMOOTH",
"379 772 OFFCURVE",
"360 804 OFFCURVE",
"360 868 CURVE SMOOTH",
"360 1067 OFFCURVE",
"434 1274 OFFCURVE",
"518 1274 CURVE SMOOTH"
);
},
{
closed = 1;
nodes = (
"821 1376 OFFCURVE",
"718 1483 OFFCURVE",
"535 1483 CURVE SMOOTH",
"453 1483 OFFCURVE",
"381 1459 OFFCURVE",
"319 1411 CURVE SMOOTH",
"195 1315 OFFCURVE",
"115 1110 OFFCURVE",
"115 885 CURVE SMOOTH",
"115 681 OFFCURVE",
"212 565 OFFCURVE",
"397 565 CURVE SMOOTH",
"478 565 OFFCURVE",
"551 589 OFFCURVE",
"614 638 CURVE SMOOTH",
"741 735 OFFCURVE",
"821 944 OFFCURVE",
"821 1165 CURVE SMOOTH"
);
},
{
closed = 1;
nodes = (
"231 0 LINE",
"471 0 LINE",
"1554 1462 LINE",
"1319 1462 LINE"
);
},
{
closed = 1;
nodes = (
"1415 690 OFFCURVE",
"1434 658 OFFCURVE",
"1434 594 CURVE SMOOTH",
"1434 465 OFFCURVE",
"1399 316 OFFCURVE",
"1351 243 CURVE SMOOTH",
"1327 206 OFFCURVE",
"1301 188 OFFCURVE",
"1274 188 CURVE SMOOTH",
"1237 188 OFFCURVE",
"1219 220 OFFCURVE",
"1219 285 CURVE SMOOTH",
"1219 414 OFFCURVE",
"1253 559 OFFCURVE",
"1301 634 CURVE SMOOTH",
"1325 671 OFFCURVE",
"1350 690 OFFCURVE",
"1376 690 CURVE SMOOTH"
);
},
{
closed = 1;
nodes = (
"1679 793 OFFCURVE",
"1576 899 OFFCURVE",
"1393 899 CURVE SMOOTH",
"1310 899 OFFCURVE",
"1237 874 OFFCURVE",
"1174 825 CURVE SMOOTH",
"1047 726 OFFCURVE",
"973 519 OFFCURVE",
"973 283 CURVE SMOOTH",
"973 91 OFFCURVE",
"1070 -18 OFFCURVE",
"1262 -18 CURVE SMOOTH",
"1343 -18 OFFCURVE",
"1414 7 OFFCURVE",
"1477 56 CURVE SMOOTH",
"1602 155 OFFCURVE",
"1679 367 OFFCURVE",
"1679 590 CURVE SMOOTH"
);
}
);
width = 1753;
}
);
note = percent;
unicode = 0025;
},
{
glyphname = ampersand;
lastChange = "2017-02-21 05:28:43 +0000";
layers = (
{
layerId = "334C7BAA-C7B0-45C9-BED5-5E40ABBE215F";
paths = (
{
closed = 1;
nodes = (
"1238 410 OFFCURVE",
"1341 575 OFFCURVE",
"1430 784 CURVE",
"1130 784 LINE",
"1074 639 OFFCURVE",
"1030 565 OFFCURVE",
"971 489 CURVE",
"776 752 LINE",
"1019 849 OFFCURVE",
"1141 991 OFFCURVE",
"1141 1178 CURVE SMOOTH",
"1141 1367 OFFCURVE",
"1003 1485 OFFCURVE",
"778 1485 CURVE SMOOTH",
"513 1485 OFFCURVE",
"344 1325 OFFCURVE",
"344 1065 CURVE SMOOTH",
"344 980 OFFCURVE",
"369 894 OFFCURVE",
"420 807 CURVE",
"160 678 OFFCURVE",
"68 551 OFFCURVE",
"68 358 CURVE SMOOTH",
"68 114 OFFCURVE",
"221 -20 OFFCURVE",
"500 -20 CURVE SMOOTH",
"652 -20 OFFCURVE",
"786 19 OFFCURVE",
"903 98 CURVE",
"975 0 LINE",
"1325 0 LINE",
"1120 287 LINE"
);
},
{
closed = 1;
nodes = (
"695 256 OFFCURVE",
"622 236 OFFCURVE",
"545 236 CURVE SMOOTH",
"450 236 OFFCURVE",
"383 300 OFFCURVE",
"383 387 CURVE SMOOTH",
"383 491 OFFCURVE",
"424 555 OFFCURVE",
"541 623 CURVE",
"766 295 LINE"
);
},
{
closed = 1;
nodes = (
"639 956 OFFCURVE",
"621 1024 OFFCURVE",
"621 1085 CURVE SMOOTH",
"621 1182 OFFCURVE",
"672 1251 OFFCURVE",
"760 1251 CURVE SMOOTH",
"813 1251 OFFCURVE",
"860 1219 OFFCURVE",
"860 1143 CURVE SMOOTH",
"860 1063 OFFCURVE",
"813 999 OFFCURVE",
"662 920 CURVE"
);
}
);
width = 1450;
}
);
note = ampersand;
unicode = 0026;
},
{
glyphname = quotesingle;
lastChange = "2017-02-21 05:28:43 +0000";
layers = (
{
layerId = "334C7BAA-C7B0-45C9-BED5-5E40ABBE215F";
paths = (
{
closed = 1;
nodes = (
"201 934 LINE",
"397 934 LINE",
"549 1462 LINE",
"272 1462 LINE"
);
}
);
width = 522;
}
);
note = quotesingle;
unicode = 0027;
},
{
glyphname = parenleft;
lastChange = "2017-02-21 05:28:43 +0000";
layers = (
{
layerId = "334C7BAA-C7B0-45C9-BED5-5E40ABBE215F";
paths = (
{
closed = 1;
nodes = (
"74 55 OFFCURVE",
"124 -147 OFFCURVE",
"223 -324 CURVE",
"457 -324 LINE",
"379 -133 OFFCURVE",
"340 65 OFFCURVE",
"340 270 CURVE SMOOTH",
"340 701 OFFCURVE",
"500 1091 OFFCURVE",
"840 1462 CURVE",
"578 1462 LINE",
"233 1106 OFFCURVE",
"74 733 OFFCURVE",
"74 281 CURVE SMOOTH"
);
}
);
width = 694;
}
);
note = parenleft;
unicode = 0028;
},
{
glyphname = parenright;
lastChange = "2017-02-21 05:28:43 +0000";
layers = (
{
layerId = "334C7BAA-C7B0-45C9-BED5-5E40ABBE215F";
paths = (
{
closed = 1;
nodes = (
"618 1085 OFFCURVE",
"568 1286 OFFCURVE",
"469 1462 CURVE",
"236 1462 LINE",
"313 1271 OFFCURVE",
"352 1073 OFFCURVE",
"352 868 CURVE SMOOTH",
"352 437 OFFCURVE",
"186 39 OFFCURVE",
"-147 -324 CURVE",
"115 -324 LINE",
"455 27 OFFCURVE",
"618 402 OFFCURVE",
"618 858 CURVE SMOOTH"
);
}
);
width = 694;
}
);
note = parenright;
unicode = 0029;
},
{
glyphname = asterisk;
lastChange = "2017-02-21 05:28:43 +0000";
layers = (
{
layerId = "334C7BAA-C7B0-45C9-BED5-5E40ABBE215F";
paths = (
{
closed = 1;
nodes = (
"596 1204 LINE",
"258 1378 LINE",
"172 1141 LINE",
"498 1049 LINE",
"223 801 LINE",
"430 637 LINE",
"627 915 LINE",
"717 578 LINE",
"963 651 LINE",
"803 987 LINE",
"1141 944 LINE",
"1159 1198 LINE",
"772 1169 LINE",
"885 1522 LINE",
"629 1573 LINE"
);
}
);
width = 1116;
}
);
note = asterisk;
unicode = 002A;
},
{
glyphname = plus;
lastChange = "2017-02-21 05:28:43 +0000";
layers = (
{
layerId = "334C7BAA-C7B0-45C9-BED5-5E40ABBE215F";
paths = (
{
closed = 1;
nodes = (
"694 248 LINE",
"694 612 LINE",
"1061 612 LINE",
"1061 831 LINE",
"694 831 LINE",
"694 1200 LINE",
"475 1200 LINE",
"475 831 LINE",
"109 831 LINE",
"109 612 LINE",
"475 612 LINE",
"475 248 LINE"
);
}
);
width = 1128;
}
);
note = plus;
unicode = 002B;
},
{
glyphname = comma;
lastChange = "2017-02-21 05:28:43 +0000";
layers = (
{
layerId = "334C7BAA-C7B0-45C9-BED5-5E40ABBE215F";
paths = (
{
closed = 1;
nodes = (
"12 15 OFFCURVE",
"-53 -153 OFFCURVE",
"-102 -264 CURVE",
"123 -264 LINE",
"219 -115 OFFCURVE",
"306 45 OFFCURVE",
"385 215 CURVE",
"377 238 LINE",
"92 238 LINE"
);
}
);
width = 569;
}
);
note = comma;
unicode = 002C;
},
{
glyphname = hyphen;
lastChange = "2017-02-21 05:28:43 +0000";
layers = (
{
layerId = "334C7BAA-C7B0-45C9-BED5-5E40ABBE215F";
paths = (
{
closed = 1;
nodes = (
"618 674 LINE",
"94 674 LINE",
"41 424 LINE",
"565 424 LINE"
);
}
);
width = 659;
}
);
note = hyphen;
unicode = 002D;
},
{
glyphname = period;
lastChange = "2017-02-21 05:28:43 +0000";
layers = (
{
layerId = "334C7BAA-C7B0-45C9-BED5-5E40ABBE215F";
paths = (
{
closed = 1;
nodes = (
"25 26 OFFCURVE",
"83 -27 OFFCURVE",
"180 -27 CURVE SMOOTH",
"299 -27 OFFCURVE",
"379 52 OFFCURVE",
"379 168 CURVE SMOOTH",
"379 260 OFFCURVE",
"320 313 OFFCURVE",
"229 313 CURVE SMOOTH",
"100 313 OFFCURVE",
"25 235 OFFCURVE",
"25 115 CURVE SMOOTH"
);
}
);
width = 584;
}
);
note = period;
unicode = 002E;
},
{
glyphname = slash;
lastChange = "2017-02-21 05:28:43 +0000";
layers = (
{
layerId = "334C7BAA-C7B0-45C9-BED5-5E40ABBE215F";
paths = (
{
closed = 1;
nodes = (
"-90 0 LINE",
"205 0 LINE",
"1014 1462 LINE",
"719 1462 LINE"
);
}
);
width = 862;
}
);
note = slash;
unicode = 002F;
},
{
glyphname = zero;
lastChange = "2017-02-21 05:28:43 +0000";
layers = (
{
layerId = "334C7BAA-C7B0-45C9-BED5-5E40ABBE215F";
paths = (
{
closed = 1;
nodes = (
"1110 1327 OFFCURVE",
"977 1485 OFFCURVE",
"711 1485 CURVE SMOOTH",
"585 1485 OFFCURVE",
"474 1445 OFFCURVE",
"378 1365 CURVE SMOOTH",
"186 1204 OFFCURVE",
"66 863 OFFCURVE",
"66 467 CURVE SMOOTH",
"66 143 OFFCURVE",
"205 -20 OFFCURVE",
"469 -20 CURVE SMOOTH",
"874 -20 OFFCURVE",
"1110 385 OFFCURVE",
"1110 1012 CURVE SMOOTH"
);
},
{
closed = 1;
nodes = (
"767 1235 OFFCURVE",
"807 1170 OFFCURVE",
"807 1022 CURVE SMOOTH",
"807 767 OFFCURVE",
"737 476 OFFCURVE",
"645 335 CURVE SMOOTH",
"598 264 OFFCURVE",
"548 229 OFFCURVE",
"494 229 CURVE SMOOTH",
"401 229 OFFCURVE",
"369 308 OFFCURVE",
"369 461 CURVE SMOOTH",
"369 688 OFFCURVE",
"442 992 OFFCURVE",
"535 1131 CURVE SMOOTH",
"581 1200 OFFCURVE",
"631 1235 OFFCURVE",
"684 1235 CURVE SMOOTH"
);
}
);
width = 1128;
}
);
note = zero;
unicode = 0030;
},
{
glyphname = one;
lastChange = "2017-02-21 05:28:43 +0000";
layers = (
{
layerId = "334C7BAA-C7B0-45C9-BED5-5E40ABBE215F";
paths = (
{
closed = 1;
nodes = (
"748 1462 LINE",
"182 1114 LINE",
"315 899 LINE",
"455 986 OFFCURVE",
"543 1043 OFFCURVE",
"578 1069 CURVE SMOOTH",
"613 1095 OFFCURVE",
"633 1111 OFFCURVE",
"639 1116 CURVE",
"612 1026 OFFCURVE",
"586 930 OFFCURVE",
"563 829 CURVE SMOOTH",
"383 0 LINE",
"688 0 LINE",
"997 1462 LINE"
);
}
);
width = 1128;
}
);
note = one;
unicode = 0031;
},
{
glyphname = two;
lastChange = "2017-02-21 05:28:43 +0000";
layers = (
{
layerId = "334C7BAA-C7B0-45C9-BED5-5E40ABBE215F";
paths = (
{
closed = 1;
nodes = (
"399 260 LINE",
"399 270 LINE",
"668 492 LINE SMOOTH",
"791 593 OFFCURVE",
"880 674 OFFCURVE",
"935 737 CURVE SMOOTH",
"1043 862 OFFCURVE",
"1098 983 OFFCURVE",
"1098 1126 CURVE SMOOTH",
"1098 1341 OFFCURVE",
"939 1483 OFFCURVE",
"686 1483 CURVE SMOOTH",
"513 1483 OFFCURVE",
"360 1425 OFFCURVE",
"184 1276 CURVE",
"330 1073 LINE",
"466 1186 OFFCURVE",
"549 1225 OFFCURVE",
"637 1225 CURVE SMOOTH",
"729 1225 OFFCURVE",
"788 1171 OFFCURVE",
"788 1071 CURVE SMOOTH",
"788 1015 OFFCURVE",
"765 955 OFFCURVE",
"720 892 CURVE SMOOTH",
"674 828 OFFCURVE",
"591 743 OFFCURVE",
"471 637 CURVE SMOOTH",
"-6 213 LINE",
"-49 0 LINE",
"913 0 LINE",
"967 260 LINE"
);
}
);
width = 1128;
}
);
note = two;
unicode = 0032;
},
{
glyphname = three;
lastChange = "2017-02-21 05:28:43 +0000";
layers = (
{
layerId = "334C7BAA-C7B0-45C9-BED5-5E40ABBE215F";
paths = (
{
closed = 1;
nodes = (
"1104 1353 OFFCURVE",
"951 1483 OFFCURVE",
"698 1483 CURVE SMOOTH",
"514 1483 OFFCURVE",
"384 1445 OFFCURVE",
"219 1337 CURVE",
"346 1133 LINE",
"448 1200 OFFCURVE",
"544 1233 OFFCURVE",
"633 1233 CURVE SMOOTH",
"737 1233 OFFCURVE",
"797 1181 OFFCURVE",
"797 1092 CURVE SMOOTH",
"797 945 OFFCURVE",
"661 858 OFFCURVE",
"438 858 CURVE SMOOTH",
"365 858 LINE",
"319 637 LINE",
"457 637 LINE SMOOTH",
"629 637 OFFCURVE",
"715 580 OFFCURVE",
"715 465 CURVE SMOOTH",
"715 314 OFFCURVE",
"598 225 OFFCURVE",
"387 225 CURVE SMOOTH",
"263 225 OFFCURVE",
"126 259 OFFCURVE",
"14 326 CURVE",
"14 59 LINE",
"113 6 OFFCURVE",
"242 -20 OFFCURVE",
"401 -20 CURVE SMOOTH",
"527 -20 OFFCURVE",
"636 0 OFFCURVE",
"728 39 CURVE SMOOTH",
"912 117 OFFCURVE",
"1014 263 OFFCURVE",
"1014 440 CURVE SMOOTH",
"1014 601 OFFCURVE",
"923 713 OFFCURVE",
"748 748 CURVE",
"748 752 LINE",
"971 791 OFFCURVE",
"1104 941 OFFCURVE",
"1104 1149 CURVE SMOOTH"
);
}
);
width = 1128;
}
);
note = three;
unicode = 0033;
},
{
glyphname = four;
lastChange = "2017-02-21 05:28:43 +0000";
layers = (
{
layerId = "334C7BAA-C7B0-45C9-BED5-5E40ABBE215F";
paths = (
{
closed = 1;
nodes = (
"909 543 LINE",
"1104 1462 LINE",
"793 1462 LINE",
"23 537 LINE",
"-25 303 LINE",
"565 303 LINE",
"502 0 LINE",
"795 0 LINE",
"858 303 LINE",
"1028 303 LINE",
"1079 543 LINE"
);
},
{
closed = 1;
nodes = (
"618 915 LINE SMOOTH",
"683 994 OFFCURVE",
"727 1054 OFFCURVE",
"750 1096 CURVE",
"756 1096 LINE",
"737 1049 OFFCURVE",
"690 868 OFFCURVE",
"674 791 CURVE SMOOTH",
"616 543 LINE",
"305 543 LINE"
);
}
);
width = 1128;
}
);
note = four;
unicode = 0034;
},
{
glyphname = five;
lastChange = "2017-02-21 05:28:43 +0000";
layers = (
{
layerId = "334C7BAA-C7B0-45C9-BED5-5E40ABBE215F";
paths = (
{
closed = 1;
nodes = (
"586 922 OFFCURVE",
"544 917 OFFCURVE",
"496 907 CURVE",
"584 1200 LINE",
"1073 1200 LINE",
"1128 1462 LINE",
"373 1462 LINE",
"166 729 LINE",
"270 651 LINE",
"344 673 OFFCURVE",
"415 684 OFFCURVE",
"483 684 CURVE SMOOTH",
"628 684 OFFCURVE",
"707 621 OFFCURVE",
"707 496 CURVE SMOOTH",
"707 332 OFFCURVE",
"584 231 OFFCURVE",
"379 231 CURVE SMOOTH",
"260 231 OFFCURVE",
"143 264 OFFCURVE",
"27 330 CURVE",
"27 61 LINE",
"108 14 OFFCURVE",
"252 -20 OFFCURVE",
"408 -20 CURVE SMOOTH",
"537 -20 OFFCURVE",
"647 3 OFFCURVE",
"738 48 CURVE SMOOTH",
"921 138 OFFCURVE",
"1018 309 OFFCURVE",
"1018 532 CURVE SMOOTH",
"1018 777 OFFCURVE",
"867 922 OFFCURVE",
"623 922 CURVE SMOOTH"
);
}
);
width = 1128;
}
);
note = five;
unicode = 0035;
},
{
glyphname = six;
lastChange = "2017-02-21 05:28:43 +0000";
layers = (
{
layerId = "334C7BAA-C7B0-45C9-BED5-5E40ABBE215F";
paths = (
{
closed = 1;
nodes = (
"88 156 OFFCURVE",
"233 -20 OFFCURVE",
"516 -20 CURVE SMOOTH",
"621 -20 OFFCURVE",
"714 4 OFFCURVE",
"794 51 CURVE SMOOTH",
"953 146 OFFCURVE",
"1055 355 OFFCURVE",
"1055 580 CURVE SMOOTH",
"1055 815 OFFCURVE",
"936 950 OFFCURVE",
"727 950 CURVE SMOOTH",
"596 950 OFFCURVE",
"493 895 OFFCURVE",
"416 784 CURVE",
"412 784 LINE",
"500 1100 OFFCURVE",
"652 1237 OFFCURVE",
"911 1237 CURVE SMOOTH",
"982 1237 OFFCURVE",
"1046 1229 OFFCURVE",
"1102 1212 CURVE",
"1153 1458 LINE",
"1088 1476 OFFCURVE",
"1013 1485 OFFCURVE",
"930 1485 CURVE SMOOTH",
"654 1485 OFFCURVE",
"459 1388 OFFCURVE",
"317 1200 CURVE SMOOTH",
"175 1011 OFFCURVE",
"88 738 OFFCURVE",
"88 469 CURVE SMOOTH"
);
},
{
closed = 1;
nodes = (
"441 227 OFFCURVE",
"383 301 OFFCURVE",
"383 422 CURVE SMOOTH",
"383 489 OFFCURVE",
"394 542 OFFCURVE",
"416 582 CURVE SMOOTH",
"460 662 OFFCURVE",
"538 713 OFFCURVE",
"618 713 CURVE SMOOTH",
"710 713 OFFCURVE",
"754 652 OFFCURVE",
"754 557 CURVE SMOOTH",
"754 368 OFFCURVE",
"662 227 OFFCURVE",
"530 227 CURVE SMOOTH"
);
}
);
width = 1128;
}
);
note = six;
unicode = 0036;
},
{
glyphname = seven;
lastChange = "2017-02-21 05:28:43 +0000";
layers = (
{
layerId = "334C7BAA-C7B0-45C9-BED5-5E40ABBE215F";
paths = (
{
closed = 1;
nodes = (
"1176 1268 LINE",
"1217 1462 LINE",
"242 1462 LINE",
"186 1202 LINE",
"815 1202 LINE",
"78 0 LINE",
"424 0 LINE"
);
}
);
width = 1128;
}
);
note = seven;
unicode = 0037;
},
{
glyphname = eight;
lastChange = "2017-02-21 05:28:43 +0000";
layers = (
{
layerId = "334C7BAA-C7B0-45C9-BED5-5E40ABBE215F";
paths = (
{
closed = 1;
nodes = (
"623 1485 OFFCURVE",
"537 1468 OFFCURVE",
"464 1433 CURVE SMOOTH",
"317 1364 OFFCURVE",
"238 1234 OFFCURVE",
"238 1075 CURVE SMOOTH",
"238 964 OFFCURVE",
"293 864 OFFCURVE",
"403 776 CURVE",
"171 691 OFFCURVE",
"55 549 OFFCURVE",
"55 350 CURVE SMOOTH",
"55 123 OFFCURVE",
"229 -20 OFFCURVE",
"514 -20 CURVE SMOOTH",
"618 -20 OFFCURVE",
"709 -2 OFFCURVE",
"788 33 CURVE SMOOTH",
"944 104 OFFCURVE",
"1032 238 OFFCURVE",
"1032 401 CURVE SMOOTH",
"1032 550 OFFCURVE",
"960 672 OFFCURVE",
"815 766 CURVE",
"1015 835 OFFCURVE",
"1126 972 OFFCURVE",
"1126 1151 CURVE SMOOTH",
"1126 1216 OFFCURVE",
"1110 1274 OFFCURVE",
"1078 1325 CURVE SMOOTH",
"1013 1426 OFFCURVE",
"885 1485 OFFCURVE",
"721 1485 CURVE SMOOTH"
);
},
{
closed = 1;
nodes = (
"694 571 OFFCURVE",
"739 496 OFFCURVE",
"739 399 CURVE SMOOTH",
"739 286 OFFCURVE",
"661 207 OFFCURVE",
"537 207 CURVE SMOOTH",
"424 207 OFFCURVE",
"352 275 OFFCURVE",
"352 383 CURVE SMOOTH",
"352 504 OFFCURVE",
"427 583 OFFCURVE",
"582 643 CURVE"
);
},
{
closed = 1;
nodes = (
"778 1260 OFFCURVE",
"836 1205 OFFCURVE",
"836 1114 CURVE SMOOTH",
"836 1015 OFFCURVE",
"774 941 OFFCURVE",
"651 893 CURVE",
"569 939 OFFCURVE",
"528 1006 OFFCURVE",
"528 1094 CURVE SMOOTH",
"528 1191 OFFCURVE",
"593 1260 OFFCURVE",
"694 1260 CURVE SMOOTH"
);
}
);
width = 1128;
}
);
note = eight;
unicode = 0038;
},
{
glyphname = nine;
lastChange = "2017-02-21 05:28:43 +0000";
layers = (
{
layerId = "334C7BAA-C7B0-45C9-BED5-5E40ABBE215F";
paths = (
{
closed = 1;
nodes = (
"1092 1318 OFFCURVE",
"949 1485 OFFCURVE",
"678 1485 CURVE SMOOTH",
"569 1485 OFFCURVE",
"474 1462 OFFCURVE",
"392 1417 CURVE SMOOTH",
"228 1325 OFFCURVE",
"123 1124 OFFCURVE",
"123 903 CURVE SMOOTH",
"123 660 OFFCURVE",
"248 514 OFFCURVE",
"465 514 CURVE SMOOTH",
"588 514 OFFCURVE",
"686 567 OFFCURVE",
"760 672 CURVE",
"764 672 LINE",
"736 560 OFFCURVE",
"703 474 OFFCURVE",
"665 415 CURVE SMOOTH",
"588 295 OFFCURVE",
"474 227 OFFCURVE",
"313 227 CURVE SMOOTH",
"236 227 OFFCURVE",
"160 241 OFFCURVE",
"86 268 CURVE",
"86 12 LINE",
"161 -9 OFFCURVE",
"241 -20 OFFCURVE",
"326 -20 CURVE SMOOTH",
"485 -20 OFFCURVE",
"619 19 OFFCURVE",
"729 98 CURVE SMOOTH",
"949 254 OFFCURVE",
"1092 628 OFFCURVE",
"1092 1001 CURVE SMOOTH"
);
},
{
closed = 1;
nodes = (
"745 1237 OFFCURVE",
"791 1159 OFFCURVE",
"791 1047 CURVE SMOOTH",
"791 984 OFFCURVE",
"781 931 OFFCURVE",
"761 889 CURVE SMOOTH",
"720 804 OFFCURVE",
"647 752 OFFCURVE",
"567 752 CURVE SMOOTH",
"476 752 OFFCURVE",
"424 812 OFFCURVE",
"424 928 CURVE SMOOTH",
"424 982 OFFCURVE",
"433 1033 OFFCURVE",
"452 1081 CURVE SMOOTH",
"488 1177 OFFCURVE",
"558 1237 OFFCURVE",
"645 1237 CURVE SMOOTH"
);
}
);
width = 1128;
}
);
note = nine;
unicode = 0039;
},
{
glyphname = colon;
lastChange = "2017-02-21 05:28:43 +0000";
layers = (
{
layerId = "334C7BAA-C7B0-45C9-BED5-5E40ABBE215F";
paths = (
{
closed = 1;
nodes = (
"207 849 OFFCURVE",
"266 799 OFFCURVE",
"362 799 CURVE SMOOTH",
"482 799 OFFCURVE",
"561 878 OFFCURVE",
"561 993 CURVE SMOOTH",
"561 1085 OFFCURVE",
"503 1139 OFFCURVE",
"412 1139 CURVE SMOOTH",
"287 1139 OFFCURVE",
"207 1063 OFFCURVE",
"207 940 CURVE SMOOTH"
);
},
{
closed = 1;
nodes = (
"25 26 OFFCURVE",
"83 -27 OFFCURVE",
"180 -27 CURVE SMOOTH",
"299 -27 OFFCURVE",
"379 52 OFFCURVE",
"379 168 CURVE SMOOTH",
"379 260 OFFCURVE",
"320 313 OFFCURVE",
"229 313 CURVE SMOOTH",
"100 313 OFFCURVE",
"25 235 OFFCURVE",
"25 115 CURVE SMOOTH"
);
}
);
width = 584;
}
);
note = colon;
unicode = 003A;
},
{
glyphname = semicolon;
lastChange = "2017-02-21 05:28:43 +0000";
layers = (
{
layerId = "334C7BAA-C7B0-45C9-BED5-5E40ABBE215F";
paths = (
{
closed = 1;
nodes = (
"92 238 LINE",
"12 15 OFFCURVE",
"-53 -153 OFFCURVE",
"-102 -264 CURVE",
"123 -264 LINE",
"219 -115 OFFCURVE",
"306 45 OFFCURVE",
"385 215 CURVE",
"377 238 LINE"
);
},
{
closed = 1;
nodes = (
"207 849 OFFCURVE",
"266 799 OFFCURVE",
"362 799 CURVE SMOOTH",
"482 799 OFFCURVE",
"561 878 OFFCURVE",
"561 993 CURVE SMOOTH",
"561 1085 OFFCURVE",
"503 1139 OFFCURVE",
"412 1139 CURVE SMOOTH",
"287 1139 OFFCURVE",
"207 1063 OFFCURVE",
"207 940 CURVE SMOOTH"
);
}
);
width = 584;
}
);
note = semicolon;
unicode = 003B;
},
{
glyphname = less;
lastChange = "2017-02-21 05:28:43 +0000";
layers = (
{
layerId = "334C7BAA-C7B0-45C9-BED5-5E40ABBE215F";
paths = (
{
closed = 1;
nodes = (
"418 723 LINE",
"1061 1040 LINE",
"1061 1280 LINE",
"109 784 LINE",
"109 641 LINE",
"1061 203 LINE",
"1061 442 LINE"
);
}
);
width = 1128;
}
);
note = less;
unicode = 003C;
},
{
glyphname = equal;
lastChange = "2017-02-21 05:28:43 +0000";
layers = (
{
layerId = "334C7BAA-C7B0-45C9-BED5-5E40ABBE215F";
paths = (
{
closed = 1;
nodes = (
"1061 1024 LINE",
"109 1024 LINE",
"109 807 LINE",
"1061 807 LINE"
);
},
{
closed = 1;
nodes = (
"1061 637 LINE",
"109 637 LINE",
"109 418 LINE",
"1061 418 LINE"
);
}
);
width = 1128;
}
);
note = equal;
unicode = 003D;
},
{
glyphname = greater;
lastChange = "2017-02-21 05:28:43 +0000";
layers = (
{
layerId = "334C7BAA-C7B0-45C9-BED5-5E40ABBE215F";
paths = (
{
closed = 1;
nodes = (
"1061 641 LINE",
"1061 784 LINE",
"109 1280 LINE",
"109 1040 LINE",
"752 723 LINE",
"109 442 LINE",
"109 203 LINE"
);
}
);
width = 1128;
}
);
note = greater;
unicode = 003E;
},
{
glyphname = question;
lastChange = "2017-02-21 05:28:43 +0000";
layers = (
{
layerId = "334C7BAA-C7B0-45C9-BED5-5E40ABBE215F";
paths = (
{
closed = 1;
nodes = (
"530 534 OFFCURVE",
"543 571 OFFCURVE",
"556 594 CURVE SMOOTH",
"583 640 OFFCURVE",
"620 674 OFFCURVE",
"705 731 CURVE SMOOTH",
"796 792 OFFCURVE",
"859 841 OFFCURVE",
"895 879 CURVE SMOOTH",
"967 954 OFFCURVE",
"1006 1040 OFFCURVE",
"1006 1151 CURVE SMOOTH",
"1006 1360 OFFCURVE",
"859 1483 OFFCURVE",
"623 1483 CURVE SMOOTH",
"480 1483 OFFCURVE",
"331 1441 OFFCURVE",
"178 1358 CURVE",
"270 1137 LINE",
"367 1182 OFFCURVE",
"434 1210 OFFCURVE",
"472 1221 CURVE SMOOTH",
"509 1232 OFFCURVE",
"545 1237 OFFCURVE",
"578 1237 CURVE SMOOTH",
"667 1237 OFFCURVE",
"711 1197 OFFCURVE",
"711 1118 CURVE SMOOTH",
"711 1083 OFFCURVE",
"700 1051 OFFCURVE",
"678 1022 CURVE SMOOTH",
"655 993 OFFCURVE",
"603 951 OFFCURVE",
"520 895 CURVE SMOOTH",
"363 787 OFFCURVE",
"299 700 OFFCURVE",
"274 563 CURVE SMOOTH",
"260 485 LINE",
"518 485 LINE"
);
},
{
closed = 1;
nodes = (
"166 27 OFFCURVE",
"223 -27 OFFCURVE",
"322 -27 CURVE SMOOTH",
"439 -27 OFFCURVE",
"520 52 OFFCURVE",
"520 168 CURVE SMOOTH",
"520 260 OFFCURVE",
"462 313 OFFCURVE",
"371 313 CURVE SMOOTH",
"244 313 OFFCURVE",
"166 236 OFFCURVE",
"166 115 CURVE SMOOTH"
);
}
);
width = 940;
}
);
note = question;
unicode = 003F;
},
{
glyphname = at;
lastChange = "2017-02-21 05:28:43 +0000";
layers = (
{
layerId = "334C7BAA-C7B0-45C9-BED5-5E40ABBE215F";
paths = (
{
closed = 1;
nodes = (
"1733 1233 OFFCURVE",
"1477 1462 OFFCURVE",
"1053 1462 CURVE SMOOTH",
"870 1462 OFFCURVE",
"704 1421 OFFCURVE",
"556 1339 CURVE SMOOTH",
"259 1174 OFFCURVE",
"92 872 OFFCURVE",
"92 500 CURVE SMOOTH",
"92 365 OFFCURVE",
"120 245 OFFCURVE",
"177 141 CURVE SMOOTH",
"290 -67 OFFCURVE",
"512 -186 OFFCURVE",
"801 -186 CURVE SMOOTH",
"958 -186 OFFCURVE",
"1113 -156 OFFCURVE",
"1266 -96 CURVE",
"1266 90 LINE",
"1107 29 OFFCURVE",
"981 4 OFFCURVE",
"825 4 CURVE SMOOTH",
"502 4 OFFCURVE",
"315 198 OFFCURVE",
"315 522 CURVE SMOOTH",
"315 669 OFFCURVE",
"346 799 OFFCURVE",
"407 914 CURVE SMOOTH",
"529 1143 OFFCURVE",
"757 1274 OFFCURVE",
"1028 1274 CURVE SMOOTH",
"1343 1274 OFFCURVE",
"1511 1120 OFFCURVE",
"1511 836 CURVE SMOOTH",
"1511 765 OFFCURVE",
"1500 693 OFFCURVE",
"1477 622 CURVE SMOOTH",
"1431 479 OFFCURVE",
"1348 387 OFFCURVE",
"1260 387 CURVE SMOOTH",
"1221 387 OFFCURVE",
"1202 410 OFFCURVE",
"1202 455 CURVE SMOOTH",
"1202 498 OFFCURVE",
"1214 537 OFFCURVE",
"1229 596 CURVE SMOOTH",
"1335 1016 LINE",
"1240 1053 OFFCURVE",
"1131 1071 OFFCURVE",
"1008 1071 CURVE SMOOTH",
"909 1071 OFFCURVE",
"820 1046 OFFCURVE",
"740 996 CURVE SMOOTH",
"580 895 OFFCURVE",
"485 710 OFFCURVE",
"485 514 CURVE SMOOTH",
"485 314 OFFCURVE",
"585 205 OFFCURVE",
"754 205 CURVE SMOOTH",
"866 205 OFFCURVE",
"947 249 OFFCURVE",
"1014 352 CURVE",
"1020 352 LINE",
"1041 259 OFFCURVE",
"1120 205 OFFCURVE",
"1237 205 CURVE SMOOTH",
"1331 205 OFFCURVE",
"1416 233 OFFCURVE",
"1492 288 CURVE SMOOTH",
"1643 399 OFFCURVE",
"1733 609 OFFCURVE",
"1733 840 CURVE SMOOTH"
);
},
{
closed = 1;
nodes = (
"1026 889 OFFCURVE",
"1053 886 OFFCURVE",
"1077 879 CURVE",
"1020 657 LINE SMOOTH",
"972 477 OFFCURVE",
"901 387 OFFCURVE",
"807 387 CURVE SMOOTH",
"747 387 OFFCURVE",
"713 439 OFFCURVE",
"713 526 CURVE SMOOTH",
"713 585 OFFCURVE",
"725 644 OFFCURVE",
"750 701 CURVE SMOOTH",
"798 815 OFFCURVE",
"886 889 OFFCURVE",
"995 889 CURVE SMOOTH"
);
}
);
width = 1753;
}
);
note = at;
unicode = 0040;
},
{
glyphname = A;
lastChange = "2017-06-04 18:15:06 +0000";
layers = (
{
anchors = (
{
name = bottom;
position = "{524, 0}";
},
{
name = ogonek;
position = "{1038, 10}";
},
{
name = top;
position = "{835, 1462}";
}
);
layerId = "334C7BAA-C7B0-45C9-BED5-5E40ABBE215F";
paths = (
{
closed = 1;
nodes = (
"1163 0 LINE",
"1016 1468 LINE",
"643 1468 LINE",
"-123 0 LINE",
"197 0 LINE",
"369 348 LINE",
"842 348 LINE",
"866 0 LINE"
);
},
{
closed = 1;
nodes = (
"682 993 LINE SMOOTH",
"725 1082 OFFCURVE",
"762 1167 OFFCURVE",
"791 1247 CURVE",
"791 1211 LINE SMOOTH",
"791 1130 OFFCURVE",
"794 1045 OFFCURVE",
"801 958 CURVE SMOOTH",
"827 608 LINE",
"494 608 LINE"
);
}
);
width = 1286;
}
);
note = A;
unicode = 0041;
},
{
glyphname = B;
lastChange = "2017-06-04 18:15:06 +0000";
layers = (
{
anchors = (
{
name = bottom;
position = "{516, 0}";
},
{
name = top;
position = "{827, 1462}";
}
);
layerId = "334C7BAA-C7B0-45C9-BED5-5E40ABBE215F";
paths = (
{
closed = 1;
nodes = (
"53 0 LINE",
"575 0 LINE SMOOTH",
"935 0 OFFCURVE",
"1151 172 OFFCURVE",
"1151 477 CURVE SMOOTH",
"1151 624 OFFCURVE",
"1065 719 OFFCURVE",
"932 754 CURVE",
"932 760 LINE",
"1136 803 OFFCURVE",
"1251 937 OFFCURVE",
"1251 1137 CURVE SMOOTH",
"1251 1353 OFFCURVE",
"1093 1462 OFFCURVE",
"788 1462 CURVE SMOOTH",
"362 1462 LINE"
);
},
{
closed = 1;
nodes = (
"766 1208 LINE SMOOTH",
"879 1208 OFFCURVE",
"936 1162 OFFCURVE",
"936 1071 CURVE SMOOTH",
"936 950 OFFCURVE",
"855 883 OFFCURVE",
"694 883 CURVE SMOOTH",
"545 883 LINE",
"614 1208 LINE"
);
},
{
closed = 1;
nodes = (
"659 637 LINE SMOOTH",
"781 637 OFFCURVE",
"842 583 OFFCURVE",
"842 475 CURVE SMOOTH",
"842 338 OFFCURVE",
"748 256 OFFCURVE",
"592 256 CURVE SMOOTH",
"412 256 LINE",
"494 637 LINE"
);
}
);
width = 1270;
}
);
note = B;
unicode = 0042;
},
{
glyphname = C;
lastChange = "2017-06-04 18:15:06 +0000";
layers = (
{
anchors = (
{
name = bottom;
position = "{508, 0}";
},
{
name = top;
position = "{819, 1462}";
}
);
layerId = "334C7BAA-C7B0-45C9-BED5-5E40ABBE215F";
paths = (
{
closed = 1;
nodes = (
"996 1227 OFFCURVE",
"1076 1209 OFFCURVE",
"1217 1130 CURVE",
"1335 1380 LINE",
"1187 1460 OFFCURVE",
"1072 1485 OFFCURVE",
"905 1485 CURVE SMOOTH",
"754 1485 OFFCURVE",
"621 1447 OFFCURVE",
"505 1371 CURVE SMOOTH",
"273 1218 OFFCURVE",
"123 902 OFFCURVE",
"123 553 CURVE SMOOTH",
"123 188 OFFCURVE",
"320 -20 OFFCURVE",
"659 -20 CURVE SMOOTH",
"793 -20 OFFCURVE",
"926 6 OFFCURVE",
"1059 57 CURVE",
"1059 317 LINE",
"931 266 OFFCURVE",
"818 240 OFFCURVE",
"721 240 CURVE SMOOTH",
"521 240 OFFCURVE",
"434 346 OFFCURVE",
"434 569 CURVE SMOOTH",
"434 690 OFFCURVE",
"455 803 OFFCURVE",
"498 908 CURVE SMOOTH",
"583 1118 OFFCURVE",
"729 1227 OFFCURVE",
"905 1227 CURVE SMOOTH"
);
}
);
width = 1253;
}
);
note = C;
unicode = 0043;
},
{
glyphname = D;
lastChange = "2017-06-04 18:15:06 +0000";
layers = (
{
anchors = (
{
name = bottom;
position = "{574, 0}";
},
{
name = center;
position = "{730, 731}";
},
{
name = top;
position = "{885, 1462}";
}
);
layerId = "334C7BAA-C7B0-45C9-BED5-5E40ABBE215F";
paths = (
{
closed = 1;
nodes = (
"1323 1265 OFFCURVE",
"1118 1462 OFFCURVE",
"758 1462 CURVE SMOOTH",
"362 1462 LINE",
"53 0 LINE",
"504 0 LINE SMOOTH",
"672 0 OFFCURVE",
"818 36 OFFCURVE",
"942 108 CURVE SMOOTH",
"1189 252 OFFCURVE",
"1323 536 OFFCURVE",
"1323 909 CURVE SMOOTH"
);
},
{
closed = 1;
nodes = (
"614 1208 LINE",
"729 1208 LINE SMOOTH",
"910 1208 OFFCURVE",
"1010 1098 OFFCURVE",
"1010 893 CURVE SMOOTH",
"1010 766 OFFCURVE",
"989 654 OFFCURVE",
"948 556 CURVE SMOOTH",
"865 359 OFFCURVE",
"715 256 OFFCURVE",
"518 256 CURVE SMOOTH",
"412 256 LINE"
);
}
);
width = 1386;
}
);
note = D;
unicode = 0044;
},
{
glyphname = E;
lastChange = "2017-06-04 18:15:06 +0000";
layers = (
{
anchors = (
{
name = bottom;
position = "{436, 0}";
},
{
name = ogonek;
position = "{880, 10}";
},
{
name = top;
position = "{747, 1462}";
},
{
name = topleft;
position = "{212, 1462}";
}
);
layerId = "334C7BAA-C7B0-45C9-BED5-5E40ABBE215F";
paths = (
{
closed = 1;
nodes = (
"412 256 LINE",
"492 633 LINE",
"969 633 LINE",
"1024 887 LINE",
"547 887 LINE",
"614 1208 LINE",
"1126 1208 LINE",
"1180 1462 LINE",
"362 1462 LINE",
"53 0 LINE",
"870 0 LINE",
"924 256 LINE"
);
}
);
width = 1110;
}
);
note = E;
unicode = 0045;
},
{
glyphname = F;
lastChange = "2017-06-04 18:15:06 +0000";
layers = (
{
anchors = (
{
name = bottom;
position = "{425, 0}";
},
{
name = top;
position = "{736, 1462}";
}
);
layerId = "334C7BAA-C7B0-45C9-BED5-5E40ABBE215F";
paths = (
{
closed = 1;
nodes = (
"952 578 LINE",
"1008 831 LINE",
"535 831 LINE",
"614 1208 LINE",
"1122 1208 LINE",
"1176 1462 LINE",
"362 1462 LINE",
"53 0 LINE",
"358 0 LINE",
"479 578 LINE"
);
}
);
width = 1087;
}
);
note = F;
unicode = 0046;
},
{
glyphname = G;
lastChange = "2017-06-04 18:15:06 +0000";
layers = (
{
anchors = (
{
name = bottom;
position = "{588, 0}";
},
{
name = top;
position = "{899, 1462}";
}
);
layerId = "334C7BAA-C7B0-45C9-BED5-5E40ABBE215F";
paths = (
{
closed = 1;
nodes = (
"965 563 LINE",
"899 264 LINE",
"836 248 OFFCURVE",
"780 240 OFFCURVE",
"729 240 CURVE SMOOTH",
"529 240 OFFCURVE",
"434 344 OFFCURVE",
"434 573 CURVE SMOOTH",
"434 691 OFFCURVE",
"457 801 OFFCURVE",
"503 904 CURVE SMOOTH",
"594 1108 OFFCURVE",
"761 1223 OFFCURVE",
"965 1223 CURVE SMOOTH",
"1081 1223 OFFCURVE",
"1175 1188 OFFCURVE",
"1274 1135 CURVE",
"1389 1386 LINE",
"1261 1452 OFFCURVE",
"1124 1485 OFFCURVE",
"979 1485 CURVE SMOOTH",
"810 1485 OFFCURVE",
"660 1446 OFFCURVE",
"531 1368 CURVE SMOOTH",
"272 1211 OFFCURVE",
"123 906 OFFCURVE",
"123 549 CURVE SMOOTH",
"123 182 OFFCURVE",
"319 -20 OFFCURVE",
"664 -20 CURVE SMOOTH",
"835 -20 OFFCURVE",
"976 -2 OFFCURVE",
"1155 59 CURVE",
"1317 821 LINE",
"754 821 LINE",
"698 563 LINE"
);
}
);
width = 1413;
}
);
note = G;
unicode = 0047;
},
{
glyphname = H;
lastChange = "2017-06-04 18:15:06 +0000";
layers = (
{
anchors = (
{
name = bottom;
position = "{598, 0}";
},
{
name = center;
position = "{754, 731}";
},
{
name = top;
position = "{909, 1462}";
},
{
name = topleft;
position = "{212, 1462}";
}
);
layerId = "334C7BAA-C7B0-45C9-BED5-5E40ABBE215F";
paths = (
{
closed = 1;
nodes = (
"1139 1462 LINE",
"1018 889 LINE",
"547 889 LINE",
"668 1462 LINE",
"362 1462 LINE",
"53 0 LINE",
"358 0 LINE",
"492 631 LINE",
"963 631 LINE",
"829 0 LINE",
"1135 0 LINE",
"1444 1462 LINE"
);
}
);
width = 1434;
}
);
note = H;
unicode = 0048;
},
{
glyphname = I.alt;
lastChange = "2017-06-04 18:15:06 +0000";
layers = (
{
anchors = (
{
name = bottom;
position = "{273, 0}";
},
{
name = ogonek;
position = "{587, 10}";
},
{
name = top;
position = "{584, 1462}";
},
{
name = topleft;
position = "{212, 1462}";
}
);
layerId = "334C7BAA-C7B0-45C9-BED5-5E40ABBE215F";
paths = (
{
closed = 1;
nodes = (
"469 258 LINE",
"670 1204 LINE",
"860 1286 LINE",
"897 1462 LINE",
"250 1462 LINE",
"213 1286 LINE",
"365 1204 LINE",
"164 258 LINE",
"-23 176 LINE",
"-59 0 LINE",
"588 0 LINE",
"625 176 LINE"
);
}
);
width = 784;
}
);
note = I.alt;
},
{
glyphname = J;
lastChange = "2017-06-04 18:15:06 +0000";
layers = (
{
anchors = (
{
name = bottom;
position = "{220, 0}";
},
{
name = top;
position = "{531, 1462}";
}
);
guideLines = (
{
angle = 257.9795;
position = "{379, 751}";
}
);
layerId = "334C7BAA-C7B0-45C9-BED5-5E40ABBE215F";
paths = (
{
closed = 1;
nodes = (
"162 -430 OFFCURVE",
"318 -288 OFFCURVE",
"387 39 CURVE SMOOTH",
"690 1462 LINE",
"385 1462 LINE",
"92 82 LINE SMOOTH",
"55 -93 OFFCURVE",
"-26 -170 OFFCURVE",
"-158 -170 CURVE SMOOTH",
"-209 -170 OFFCURVE",
"-263 -163 OFFCURVE",
"-322 -150 CURVE",
"-322 -403 LINE",
"-260 -421 OFFCURVE",
"-198 -430 OFFCURVE",
"-135 -430 CURVE SMOOTH"
);
}
);
width = 678;
}
);
note = J;
unicode = 004A;
},
{
glyphname = K;
lastChange = "2017-06-04 18:15:06 +0000";
layers = (
{
anchors = (
{
name = bottom;
position = "{509, 0}";
},
{
name = top;
position = "{820, 1462}";
}
);
layerId = "334C7BAA-C7B0-45C9-BED5-5E40ABBE215F";
paths = (
{
closed = 1;
nodes = (
"1444 1462 LINE",
"1083 1462 LINE",
"674 965 LINE",
"516 760 LINE",
"668 1462 LINE",
"362 1462 LINE",
"53 0 LINE",
"358 0 LINE",
"467 522 LINE",
"592 592 LINE",
"803 0 LINE",
"1141 0 LINE",
"850 762 LINE"
);
}
);
width = 1255;
}
);
note = K;
unicode = 004B;
},
{
glyphname = L;
lastChange = "2017-06-04 18:15:06 +0000";
layers = (
{
anchors = (
{
name = bottom;
position = "{412, 0}";
},
{
name = center;
position = "{568, 731}";
},
{
name = top;
position = "{723, 1462}";
},
{
name = topright;
position = "{1233, 1462}";
}
);
layerId = "334C7BAA-C7B0-45C9-BED5-5E40ABBE215F";
paths = (
{
closed = 1;
nodes = (
"924 256 LINE",
"412 256 LINE",
"668 1462 LINE",
"362 1462 LINE",
"53 0 LINE",
"870 0 LINE"
);
}
);
width = 1061;
}
);
note = L;
unicode = 004C;
},
{
glyphname = M;
lastChange = "2017-06-04 18:15:06 +0000";
layers = (
{
anchors = (
{
name = bottom;
position = "{782, 0}";
},
{
name = top;
position = "{1093, 1462}";
}
);
layerId = "334C7BAA-C7B0-45C9-BED5-5E40ABBE215F";
paths = (
{
closed = 1;
nodes = (
"766 1462 LINE",
"362 1462 LINE",
"53 0 LINE",
"328 0 LINE",
"435 506 OFFCURVE",
"497 807 OFFCURVE",
"515 902 CURVE SMOOTH",
"533 997 OFFCURVE",
"546 1074 OFFCURVE",
"553 1133 CURVE",
"557 1133 LINE",
"618 0 LINE",
"899 0 LINE",
"1468 1133 LINE",
"1473 1133 LINE",
"1438 1004 OFFCURVE",
"1403 857 OFFCURVE",
"1368 692 CURVE SMOOTH",
"1223 0 LINE",
"1503 0 LINE",
"1812 1462 LINE",
"1389 1462 LINE",
"838 369 LINE",
"834 369 LINE"
);
}
);
width = 1802;
}
);
note = M;
unicode = 004D;
},
{
glyphname = N;
lastChange = "2017-06-04 18:15:06 +0000";
layers = (
{
anchors = (
{
name = bottom;
position = "{654, 0}";
},
{
name = top;
position = "{965, 1462}";
}
);
layerId = "334C7BAA-C7B0-45C9-BED5-5E40ABBE215F";
paths = (
{
closed = 1;
nodes = (
"1282 1462 LINE",
"1180 983 OFFCURVE",
"1120 696 OFFCURVE",
"1102 602 CURVE SMOOTH",
"1084 508 OFFCURVE",
"1071 436 OFFCURVE",
"1063 385 CURVE",
"1059 385 LINE",
"719 1462 LINE",
"362 1462 LINE",
"53 0 LINE",
"328 0 LINE",
"473 688 LINE SMOOTH",
"496 801 OFFCURVE",
"518 930 OFFCURVE",
"539 1074 CURVE SMOOTH",
"543 1106 LINE",
"549 1106 LINE",
"905 0 LINE",
"1247 0 LINE",
"1556 1462 LINE"
);
}
);
width = 1546;
}
);
note = N;
unicode = 004E;
},
{
glyphname = O;
lastChange = "2017-06-04 18:15:06 +0000";
layers = (
{
anchors = (
{
name = bottom;
position = "{629, 0}";
},
{
name = center;
position = "{785, 731}";
},
{
name = ogonek;
position = "{1226, 10}";
},
{
name = top;
position = "{940, 1462}";
},
{
name = topleft;
position = "{212, 1462}";
},
{
name = topright;
position = "{1667, 1462}";
}
);
layerId = "334C7BAA-C7B0-45C9-BED5-5E40ABBE215F";
paths = (
{
closed = 1;
nodes = (
"1432 1283 OFFCURVE",
"1237 1485 OFFCURVE",
"897 1485 CURVE SMOOTH",
"745 1485 OFFCURVE",
"611 1445 OFFCURVE",
"495 1366 CURVE SMOOTH",
"263 1207 OFFCURVE",
"123 890 OFFCURVE",
"123 537 CURVE SMOOTH",
"123 188 OFFCURVE",
"325 -20 OFFCURVE",
"666 -20 CURVE SMOOTH",
"815 -20 OFFCURVE",
"947 18 OFFCURVE",
"1062 94 CURVE SMOOTH",
"1291 246 OFFCURVE",
"1432 561 OFFCURVE",
"1432 938 CURVE SMOOTH"
);
},
{
closed = 1;
nodes = (
"1029 1227 OFFCURVE",
"1120 1119 OFFCURVE",
"1120 930 CURVE SMOOTH",
"1120 798 OFFCURVE",
"1101 679 OFFCURVE",
"1064 573 CURVE SMOOTH",
"989 361 OFFCURVE",
"849 240 OFFCURVE",
"688 240 CURVE SMOOTH",
"527 240 OFFCURVE",
"434 341 OFFCURVE",
"434 537 CURVE SMOOTH",
"434 662 OFFCURVE",
"453 777 OFFCURVE",
"492 884 CURVE SMOOTH",
"568 1097 OFFCURVE",
"711 1227 OFFCURVE",
"872 1227 CURVE SMOOTH"
);
}
);
width = 1495;
}
);
note = O;
unicode = 004F;
},
{
glyphname = P;
lastChange = "2017-06-04 18:15:06 +0000";
layers = (
{
anchors = (
{
name = bottom;
position = "{475, 0}";
},
{
name = top;
position = "{786, 1462}";
}
);
layerId = "334C7BAA-C7B0-45C9-BED5-5E40ABBE215F";
paths = (
{
closed = 1;
nodes = (
"688 1208 LINE SMOOTH",
"818 1208 OFFCURVE",
"883 1148 OFFCURVE",
"883 1028 CURVE SMOOTH",
"883 873 OFFCURVE",
"767 774 OFFCURVE",
"578 774 CURVE SMOOTH",
"522 774 LINE",
"614 1208 LINE"
);
},
{
closed = 1;
nodes = (
"1190 1320 OFFCURVE",
"1023 1462 OFFCURVE",
"700 1462 CURVE SMOOTH",
"362 1462 LINE",
"53 0 LINE",
"358 0 LINE",
"467 520 LINE",
"553 520 LINE SMOOTH",
"950 520 OFFCURVE",
"1190 715 OFFCURVE",
"1190 1036 CURVE SMOOTH"
);
}
);
width = 1188;
}
);
note = P;
unicode = 0050;
},
{
glyphname = Q;
lastChange = "2017-06-04 18:15:06 +0000";
layers = (
{
anchors = (
{
name = bottom;
position = "{629, 0}";
},
{
name = top;
position = "{940, 1462}";
}
);
guideLines = (
{
angle = 78;
position = "{567, -290}";
}
);
layerId = "334C7BAA-C7B0-45C9-BED5-5E40ABBE215F";
paths = (
{
closed = 1;
nodes = (
"1432 1283 OFFCURVE",
"1237 1485 OFFCURVE",
"897 1485 CURVE SMOOTH",
"745 1485 OFFCURVE",
"611 1445 OFFCURVE",
"495 1366 CURVE SMOOTH",
"263 1207 OFFCURVE",
"123 890 OFFCURVE",
"123 537 CURVE SMOOTH",
"123 188 OFFCURVE",
"325 -20 OFFCURVE",
"666 -20 CURVE SMOOTH",
"692 -20 LINE",
"870 -348 LINE",
"1229 -348 LINE",
"975 45 LINE",
"1258 176 OFFCURVE",
"1432 517 OFFCURVE",
"1432 938 CURVE SMOOTH"
);
},
{
closed = 1;
nodes = (
"1029 1227 OFFCURVE",
"1120 1119 OFFCURVE",
"1120 930 CURVE SMOOTH",
"1120 798 OFFCURVE",
"1101 679 OFFCURVE",
"1064 573 CURVE SMOOTH",
"989 361 OFFCURVE",
"849 240 OFFCURVE",
"688 240 CURVE SMOOTH",
"527 240 OFFCURVE",
"434 341 OFFCURVE",
"434 537 CURVE SMOOTH",
"434 662 OFFCURVE",
"453 777 OFFCURVE",
"492 884 CURVE SMOOTH",
"568 1097 OFFCURVE",
"711 1227 OFFCURVE",
"872 1227 CURVE SMOOTH"
);
}
);
width = 1495;
}
);
note = Q;
unicode = 0051;
},
{
glyphname = R;
lastChange = "2017-06-04 18:15:06 +0000";
layers = (
{
anchors = (
{
name = bottom;
position = "{505, 0}";
},
{
name = top;
position = "{816, 1462}";
}
);
layerId = "334C7BAA-C7B0-45C9-BED5-5E40ABBE215F";
paths = (
{
closed = 1;
nodes = (
"688 1208 LINE SMOOTH",
"824 1208 OFFCURVE",
"885 1153 OFFCURVE",
"885 1044 CURVE SMOOTH",
"885 888 OFFCURVE",
"783 813 OFFCURVE",
"608 813 CURVE SMOOTH",
"530 813 LINE",
"614 1208 LINE"
);
},
{
closed = 1;
nodes = (
"803 0 LINE",
"1135 0 LINE",
"874 621 LINE",
"1082 694 OFFCURVE",
"1196 850 OFFCURVE",
"1196 1061 CURVE SMOOTH",
"1196 1324 OFFCURVE",
"1037 1462 OFFCURVE",
"721 1462 CURVE SMOOTH",
"362 1462 LINE",
"53 0 LINE",
"358 0 LINE",
"477 561 LINE",
"596 561 LINE"
);
}
);
width = 1247;
}
);
note = R;
unicode = 0052;
},
{
glyphname = S;
lastChange = "2017-06-04 18:15:06 +0000";
layers = (
{
anchors = (
{
name = bottom;
position = "{424, 0}";
},
{
name = top;
position = "{735, 1462}";
}
);
layerId = "334C7BAA-C7B0-45C9-BED5-5E40ABBE215F";
paths = (
{
closed = 1;
nodes = (
"946 604 OFFCURVE",
"866 727 OFFCURVE",
"705 834 CURVE SMOOTH",
"552 934 OFFCURVE",
"524 980 OFFCURVE",
"524 1061 CURVE SMOOTH",
"524 1160 OFFCURVE",
"602 1225 OFFCURVE",
"713 1225 CURVE SMOOTH",
"801 1225 OFFCURVE",
"897 1200 OFFCURVE",
"1001 1151 CURVE",
"1110 1384 LINE",
"990 1450 OFFCURVE",
"858 1483 OFFCURVE",
"713 1483 CURVE SMOOTH",
"614 1483 OFFCURVE",
"526 1464 OFFCURVE",
"450 1427 CURVE SMOOTH",
"297 1351 OFFCURVE",
"211 1210 OFFCURVE",
"211 1038 CURVE SMOOTH",
"211 889 OFFCURVE",
"277 765 OFFCURVE",
"461 633 CURVE SMOOTH",
"527 584 OFFCURVE",
"568 550 OFFCURVE",
"585 531 CURVE SMOOTH",
"618 494 OFFCURVE",
"637 452 OFFCURVE",
"637 395 CURVE SMOOTH",
"637 296 OFFCURVE",
"548 236 OFFCURVE",
"399 236 CURVE SMOOTH",
"289 236 OFFCURVE",
"170 272 OFFCURVE",
"41 344 CURVE",
"41 70 LINE",
"131 10 OFFCURVE",
"250 -20 OFFCURVE",
"397 -20 CURVE SMOOTH",
"734 -20 OFFCURVE",
"946 153 OFFCURVE",
"946 432 CURVE SMOOTH"
);
}
);
width = 1085;
}
);
note = S;
unicode = 0053;
},
{
glyphname = T;
lastChange = "2017-06-04 18:15:06 +0000";
layers = (
{
anchors = (
{
name = bottom;
position = "{425, 0}";
},
{
name = center;
position = "{581, 731}";
},
{
name = top;
position = "{736, 1462}";
}
);
layerId = "334C7BAA-C7B0-45C9-BED5-5E40ABBE215F";
paths = (
{
closed = 1;
nodes = (
"1178 1204 LINE",
"1233 1462 LINE",
"223 1462 LINE",
"168 1204 LINE",
"520 1204 LINE",
"266 0 LINE",
"571 0 LINE",
"825 1204 LINE"
);
}
);
width = 1087;
}
);
note = T;
unicode = 0054;
},
{
glyphname = U;
lastChange = "2017-06-04 18:15:06 +0000";
layers = (
{
anchors = (
{
name = bottom;
position = "{589, 0}";
},
{
name = ogonek;
position = "{1154, 10}";
},
{
name = top;
position = "{900, 1462}";
},
{
name = topright;
position = "{1587, 1462}";
}
);
layerId = "334C7BAA-C7B0-45C9-BED5-5E40ABBE215F";
paths = (
{
closed = 1;
nodes = (
"934 545 LINE SMOOTH",
"891 342 OFFCURVE",
"799 240 OFFCURVE",
"635 240 CURVE SMOOTH",
"509 240 OFFCURVE",
"446 299 OFFCURVE",
"446 418 CURVE SMOOTH",
"446 452 OFFCURVE",
"452 494 OFFCURVE",
"463 543 CURVE SMOOTH",
"657 1462 LINE",
"352 1462 LINE",
"156 539 LINE SMOOTH",
"146 495 OFFCURVE",
"141 449 OFFCURVE",
"141 401 CURVE SMOOTH",
"141 142 OFFCURVE",
"313 -20 OFFCURVE",
"596 -20 CURVE SMOOTH",
"940 -20 OFFCURVE",
"1157 161 OFFCURVE",
"1233 516 CURVE SMOOTH",
"1434 1462 LINE",
"1128 1462 LINE"
);
}
);
width = 1415;
}
);
note = U;
unicode = 0055;
},
{
glyphname = V;
lastChange = "2017-06-04 18:15:06 +0000";
layers = (
{
anchors = (
{
name = bottom;
position = "{485, 0}";
},
{
name = top;
position = "{796, 1462}";
}
);
layerId = "334C7BAA-C7B0-45C9-BED5-5E40ABBE215F";
paths = (
{
closed = 1;
nodes = (
"533 362 OFFCURVE",
"535 522 OFFCURVE",
"530 582 CURVE SMOOTH",
"479 1462 LINE",
"184 1462 LINE",
"311 0 LINE",
"645 0 LINE",
"1393 1462 LINE",
"1077 1462 LINE",
"645 582 LINE SMOOTH",
"624 541 OFFCURVE",
"587 446 OFFCURVE",
"535 299 CURVE",
"528 299 LINE"
);
}
);
width = 1208;
}
);
note = V;
unicode = 0056;
},
{
glyphname = W;
lastChange = "2017-06-04 18:15:06 +0000";
layers = (
{
anchors = (
{
name = bottom;
position = "{797, 0}";
},
{
name = top;
position = "{1108, 1462}";
}
);
layerId = "334C7BAA-C7B0-45C9-BED5-5E40ABBE215F";
paths = (
{
closed = 1;
nodes = (
"1007 971 OFFCURVE",
"1006 919 OFFCURVE",
"1006 860 CURVE SMOOTH",
"1008 721 LINE",
"1030 0 LINE",
"1376 0 LINE",
"2023 1462 LINE",
"1714 1462 LINE",
"1384 666 LINE SMOOTH",
"1325 519 OFFCURVE",
"1282 403 OFFCURVE",
"1253 317 CURVE",
"1247 317 LINE",
"1253 401 OFFCURVE",
"1256 492 OFFCURVE",
"1256 589 CURVE",
"1235 1462 LINE",
"965 1462 LINE",
"596 643 LINE",
"576 604 OFFCURVE",
"498 402 OFFCURVE",
"469 317 CURVE",
"463 317 LINE",
"471 388 OFFCURVE",
"477 595 OFFCURVE",
"477 664 CURVE",
"471 1462 LINE",
"184 1462 LINE",
"229 0 LINE",
"567 0 LINE",
"891 719 LINE SMOOTH",
"937 821 OFFCURVE",
"975 921 OFFCURVE",
"1006 1018 CURVE",
"1010 1018 LINE"
);
}
);
width = 1831;
}
);
note = W;
unicode = 0057;
},
{
glyphname = X;
lastChange = "2017-06-04 18:15:06 +0000";
layers = (
{
anchors = (
{
name = bottom;
position = "{502, 0}";
},
{
name = top;
position = "{813, 1462}";
}
);
layerId = "334C7BAA-C7B0-45C9-BED5-5E40ABBE215F";
paths = (
{
closed = 1;
nodes = (
"1401 1462 LINE",
"1057 1462 LINE",
"694 944 LINE",
"541 1462 LINE",
"221 1462 LINE",
"459 764 LINE",
"-117 0 LINE",
"225 0 LINE",
"621 543 LINE",
"793 0 LINE",
"1124 0 LINE",
"856 737 LINE"
);
}
);
width = 1241;
}
);
note = X;
unicode = 0058;
},
{
glyphname = Y;
lastChange = "2017-06-04 18:15:06 +0000";
layers = (
{
anchors = (
{
name = bottom;
position = "{459, 0}";
},
{
name = top;
position = "{770, 1462}";
},
{
name = topleft;
position = "{212, 1462}";
}
);
layerId = "334C7BAA-C7B0-45C9-BED5-5E40ABBE215F";
paths = (
{
closed = 1;
nodes = (
"186 1462 LINE",
"422 559 LINE",
"303 0 LINE",
"606 0 LINE",
"725 559 LINE",
"1343 1462 LINE",
"1001 1462 LINE",
"627 870 LINE",
"498 1462 LINE"
);
}
);
width = 1155;
}
);
note = Y;
unicode = 0059;
},
{
glyphname = Z;
lastChange = "2017-06-04 18:15:06 +0000";
layers = (
{
anchors = (
{
name = bottom;
position = "{430, 0}";
},
{
name = top;
position = "{741, 1462}";
}
);
layerId = "334C7BAA-C7B0-45C9-BED5-5E40ABBE215F";
paths = (
{
closed = 1;
nodes = (
"377 256 LINE",
"1159 1260 LINE",
"1200 1462 LINE",
"264 1462 LINE",
"211 1206 LINE",
"754 1206 LINE",
"-23 201 LINE",
"-61 0 LINE",
"920 0 LINE",
"973 256 LINE"
);
}
);
width = 1098;
}
);
note = Z;
unicode = 005A;
},
{
glyphname = bracketleft;
lastChange = "2017-02-21 05:28:43 +0000";
layers = (
{
layerId = "334C7BAA-C7B0-45C9-BED5-5E40ABBE215F";
paths = (
{
closed = 1;
nodes = (
"266 -113 LINE",
"557 1251 LINE",
"772 1251 LINE",
"817 1462 LINE",
"344 1462 LINE",
"-37 -324 LINE",
"436 -324 LINE",
"481 -113 LINE"
);
}
);
width = 678;
}
);
note = bracketleft;
unicode = 005B;
},
{
glyphname = backslash;
lastChange = "2017-02-21 05:28:43 +0000";
layers = (
{
layerId = "334C7BAA-C7B0-45C9-BED5-5E40ABBE215F";
paths = (
{
closed = 1;
nodes = (
"438 0 LINE",
"705 0 LINE",
"481 1462 LINE",
"221 1462 LINE"
);
}
);
width = 862;
}
);
note = backslash;
unicode = 005C;
},
{
glyphname = bracketright;
lastChange = "2017-02-21 05:28:43 +0000";
layers = (
{
layerId = "334C7BAA-C7B0-45C9-BED5-5E40ABBE215F";
paths = (
{
closed = 1;
nodes = (
"334 -324 LINE",
"715 1462 LINE",
"242 1462 LINE",
"197 1251 LINE",
"412 1251 LINE",
"121 -113 LINE",
"-92 -113 LINE",
"-137 -324 LINE"
);
}
);
width = 678;
}
);
note = bracketright;
unicode = 005D;
},
{
glyphname = asciicircum;
lastChange = "2017-02-21 05:28:43 +0000";
layers = (
{
layerId = "334C7BAA-C7B0-45C9-BED5-5E40ABBE215F";
paths = (
{
closed = 1;
nodes = (
"666 1153 LINE",
"840 520 LINE",
"1063 520 LINE",
"786 1470 LINE",
"639 1470 LINE",
"20 520 LINE",
"264 520 LINE"
);
}
);
width = 1081;
}
);
note = asciicircum;
unicode = 005E;
},
{
glyphname = underscore;
lastChange = "2017-02-21 05:28:43 +0000";
layers = (
{
layerId = "334C7BAA-C7B0-45C9-BED5-5E40ABBE215F";
paths = (
{
closed = 1;
nodes = (
"-156 -184 LINE",
"-186 -324 LINE",
"635 -324 LINE",
"666 -184 LINE"
);
}
);
width = 819;
}
);
note = underscore;
unicode = 005F;
},
{
glyphname = grave;
lastChange = "2017-02-21 05:28:43 +0000";
layers = (
{
layerId = "334C7BAA-C7B0-45C9-BED5-5E40ABBE215F";
paths = (
{
closed = 1;
nodes = (
"881 1369 OFFCURVE",
"843 1470 OFFCURVE",
"819 1569 CURVE",
"508 1569 LINE",
"508 1548 LINE",
"556 1456 OFFCURVE",
"655 1333 OFFCURVE",
"750 1241 CURVE",
"934 1241 LINE",
"934 1266 LINE"
);
}
);
width = 1135;
}
);
note = grave;
unicode = 0060;
},
{
glyphname = a;
lastChange = "2017-06-04 18:15:06 +0000";
layers = (
{
anchors = (
{
name = bottom;
position = "{490, 0}";
},
{
name = ogonek;
position = "{976, 10}";
},
{
name = top;
position = "{728, 1118}";
}
);
layerId = "334C7BAA-C7B0-45C9-BED5-5E40ABBE215F";
paths = (
{
closed = 1;
nodes = (
"529 -20 OFFCURVE",
"636 35 OFFCURVE",
"725 145 CURVE",
"729 145 LINE",
"715 0 LINE",
"944 0 LINE",
"1182 1118 LINE",
"950 1118 LINE",
"893 975 LINE",
"885 975 LINE",
"833 1082 OFFCURVE",
"737 1139 OFFCURVE",
"608 1139 CURVE SMOOTH",
"515 1139 OFFCURVE",
"429 1106 OFFCURVE",
"351 1041 CURVE SMOOTH",
"195 909 OFFCURVE",
"90 649 OFFCURVE",
"90 385 CURVE SMOOTH",
"90 129 OFFCURVE",
"210 -20 OFFCURVE",
"406 -20 CURVE SMOOTH"
);
},
{
closed = 1;
nodes = (
"441 223 OFFCURVE",
"395 282 OFFCURVE",
"395 399 CURVE SMOOTH",
"395 476 OFFCURVE",
"407 554 OFFCURVE",
"432 633 CURVE SMOOTH",
"480 790 OFFCURVE",
"568 895 OFFCURVE",
"659 895 CURVE SMOOTH",
"743 895 OFFCURVE",
"799 826 OFFCURVE",
"799 731 CURVE SMOOTH",
"799 634 OFFCURVE",
"786 548 OFFCURVE",
"760 472 CURVE SMOOTH",
"708 319 OFFCURVE",
"616 223 OFFCURVE",
"524 223 CURVE SMOOTH"
);
}
);
width = 1217;
}
);
note = a;
unicode = 0061;
},
{
glyphname = b;
lastChange = "2017-06-04 18:15:06 +0000";
layers = (
{
anchors = (
{
name = bottom;
position = "{491, 0}";
},
{
name = top;
position = "{729, 1118}";
}
);
layerId = "334C7BAA-C7B0-45C9-BED5-5E40ABBE215F";
paths = (
{
closed = 1;
nodes = (
"712 1139 OFFCURVE",
"634 1100 OFFCURVE",
"530 969 CURVE",
"522 969 LINE",
"551 1047 OFFCURVE",
"579 1147 OFFCURVE",
"606 1268 CURVE SMOOTH",
"668 1556 LINE",
"367 1556 LINE",
"37 0 LINE",
"268 0 LINE",
"326 143 LINE",
"334 143 LINE",
"389 34 OFFCURVE",
"481 -20 OFFCURVE",
"610 -20 CURVE SMOOTH",
"706 -20 OFFCURVE",
"794 15 OFFCURVE",
"873 84 CURVE SMOOTH",
"1032 223 OFFCURVE",
"1128 480 OFFCURVE",
"1128 733 CURVE SMOOTH",
"1128 986 OFFCURVE",
"1008 1139 OFFCURVE",
"813 1139 CURVE SMOOTH"
);
},
{
closed = 1;
nodes = (
"779 895 OFFCURVE",
"823 836 OFFCURVE",
"823 719 CURVE SMOOTH",
"823 641 OFFCURVE",
"811 562 OFFCURVE",
"786 482 CURVE SMOOTH",
"736 321 OFFCURVE",
"648 223 OFFCURVE",
"559 223 CURVE SMOOTH",
"472 223 OFFCURVE",
"420 292 OFFCURVE",
"420 399 CURVE SMOOTH",
"420 489 OFFCURVE",
"433 573 OFFCURVE",
"460 650 CURVE SMOOTH",
"513 804 OFFCURVE",
"601 895 OFFCURVE",
"692 895 CURVE SMOOTH"
);
}
);
width = 1219;
}
);
note = b;
unicode = 0062;
},
{
glyphname = c;
lastChange = "2017-06-04 18:16:13 +0000";
layers = (
{
anchors = (
{
name = bottom;
position = "{506, 0}";
},
{
name = top;
position = "{681, 1118}";
}
);
layerId = "334C7BAA-C7B0-45C9-BED5-5E40ABBE215F";
paths = (
{
closed = 1;
nodes = (
"629 -20 OFFCURVE",
"741 6 OFFCURVE",
"842 59 CURVE",
"842 305 LINE",
"750 258 OFFCURVE",
"668 223 OFFCURVE",
"567 223 CURVE SMOOTH",
"459 223 OFFCURVE",
"395 288 OFFCURVE",
"395 416 CURVE SMOOTH",
"395 501 OFFCURVE",
"408 581 OFFCURVE",
"434 656 CURVE SMOOTH",
"485 804 OFFCURVE",
"581 895 OFFCURVE",
"694 895 CURVE SMOOTH",
"782 895 OFFCURVE",
"846 869 OFFCURVE",
"918 838 CURVE",
"1010 1067 LINE",
"913 1115 OFFCURVE",
"803 1139 OFFCURVE",
"682 1139 CURVE SMOOTH",
"567 1139 OFFCURVE",
"464 1108 OFFCURVE",
"374 1045 CURVE SMOOTH",
"194 919 OFFCURVE",
"90 674 OFFCURVE",
"90 391 CURVE SMOOTH",
"90 130 OFFCURVE",
"238 -20 OFFCURVE",
"506 -20 CURVE SMOOTH"
);
}
);
width = 989;
}
);
note = c;
unicode = 0063;
},
{
glyphname = d;
lastChange = "2017-06-04 18:15:06 +0000";
layers = (
{
anchors = (
{
name = bottom;
position = "{490, 0}";
},
{
name = center;
position = "{609, 559}";
},
{
name = top;
position = "{728, 1118}";
},
{
name = topright;
position = "{1316, 1118}";
}
);
layerId = "334C7BAA-C7B0-45C9-BED5-5E40ABBE215F";
paths = (
{
closed = 1;
nodes = (
"530 -20 OFFCURVE",
"630 29 OFFCURVE",
"725 145 CURVE",
"729 145 LINE",
"715 0 LINE",
"944 0 LINE",
"1274 1556 LINE",
"973 1556 LINE",
"897 1198 LINE SMOOTH",
"884 1141 OFFCURVE",
"876 1076 OFFCURVE",
"872 1003 CURVE SMOOTH",
"870 975 LINE",
"862 975 LINE",
"791 1095 OFFCURVE",
"717 1139 OFFCURVE",
"608 1139 CURVE SMOOTH",
"514 1139 OFFCURVE",
"428 1106 OFFCURVE",
"350 1040 CURVE SMOOTH",
"194 907 OFFCURVE",
"90 648 OFFCURVE",
"90 387 CURVE SMOOTH",
"90 130 OFFCURVE",
"210 -20 OFFCURVE",
"406 -20 CURVE SMOOTH"
);
},
{
closed = 1;
nodes = (
"441 223 OFFCURVE",
"395 282 OFFCURVE",
"395 399 CURVE SMOOTH",
"395 476 OFFCURVE",
"407 554 OFFCURVE",
"432 633 CURVE SMOOTH",
"480 790 OFFCURVE",
"568 895 OFFCURVE",
"659 895 CURVE SMOOTH",
"746 895 OFFCURVE",
"799 826 OFFCURVE",
"799 719 CURVE SMOOTH",
"799 632 OFFCURVE",
"786 550 OFFCURVE",
"761 474 CURVE SMOOTH",
"710 322 OFFCURVE",
"620 223 OFFCURVE",
"532 223 CURVE SMOOTH"
);
}
);
width = 1217;
}
);
note = d;
unicode = 0064;
},
{
glyphname = e;
lastChange = "2017-06-04 18:15:06 +0000";
layers = (
{
anchors = (
{
name = bottom;
position = "{452, 0}";
},
{
name = ogonek;
position = "{908, 10}";
},
{
name = top;
position = "{690, 1118}";
}
);
layerId = "334C7BAA-C7B0-45C9-BED5-5E40ABBE215F";
paths = (
{
closed = 1;
nodes = (
"766 922 OFFCURVE",
"801 890 OFFCURVE",
"801 827 CURVE SMOOTH",
"801 716 OFFCURVE",
"680 647 OFFCURVE",
"473 647 CURVE SMOOTH",
"428 647 LINE",
"460 800 OFFCURVE",
"579 922 OFFCURVE",
"696 922 CURVE SMOOTH"
);
},
{
closed = 1;
nodes = (
"677 -20 OFFCURVE",
"807 9 OFFCURVE",
"922 66 CURVE",
"922 293 LINE",
"787 229 OFFCURVE",
"708 207 OFFCURVE",
"592 207 CURVE SMOOTH",
"464 207 OFFCURVE",
"393 282 OFFCURVE",
"393 403 CURVE SMOOTH",
"393 423 LINE",
"395 444 LINE",
"446 444 LINE SMOOTH",
"859 444 OFFCURVE",
"1090 585 OFFCURVE",
"1090 834 CURVE SMOOTH",
"1090 1023 OFFCURVE",
"951 1139 OFFCURVE",
"715 1139 CURVE SMOOTH",
"596 1139 OFFCURVE",
"490 1109 OFFCURVE",
"396 1050 CURVE SMOOTH",
"208 930 OFFCURVE",
"90 688 OFFCURVE",
"90 412 CURVE SMOOTH",
"90 137 OFFCURVE",
"252 -20 OFFCURVE",
"532 -20 CURVE SMOOTH"
);
}
);
width = 1141;
}
);
note = e;
unicode = 0065;
},
{
glyphname = f;
lastChange = "2017-06-04 18:15:06 +0000";
layers = (
{
anchors = (
{
name = bottom;
position = "{263, 0}";
},
{
name = top;
position = "{501, 1118}";
}
);
guideLines = (
{
angle = 257.9828;
position = "{344, 376}";
}
);
layerId = "334C7BAA-C7B0-45C9-BED5-5E40ABBE215F";
paths = (
{
closed = 1;
nodes = (
"172 -492 OFFCURVE",
"307 -368 OFFCURVE",
"358 -121 CURVE SMOOTH",
"573 889 LINE",
"793 889 LINE",
"842 1118 LINE",
"623 1118 LINE",
"635 1180 LINE SMOOTH",
"651 1267 OFFCURVE",
"698 1325 OFFCURVE",
"774 1325 CURVE SMOOTH",
"817 1325 OFFCURVE",
"861 1315 OFFCURVE",
"907 1294 CURVE",
"987 1518 LINE",
"918 1551 OFFCURVE",
"839 1567 OFFCURVE",
"752 1567 CURVE SMOOTH",
"517 1567 OFFCURVE",
"395 1455 OFFCURVE",
"340 1202 CURVE SMOOTH",
"322 1118 LINE",
"139 1034 LINE",
"109 889 LINE",
"272 889 LINE",
"68 -76 LINE SMOOTH",
"43 -196 OFFCURVE",
"-23 -246 OFFCURVE",
"-104 -246 CURVE SMOOTH",
"-140 -246 OFFCURVE",
"-178 -239 OFFCURVE",
"-219 -225 CURVE",
"-219 -467 LINE",
"-172 -484 OFFCURVE",
"-114 -492 OFFCURVE",
"-45 -492 CURVE SMOOTH"
);
}
);
width = 764;
}
);
note = f;
unicode = 0066;
},
{
glyphname = g;
lastChange = "2017-06-04 18:15:06 +0000";
layers = (
{
anchors = (
{
name = bottom;
position = "{435, 0}";
},
{
name = top;
position = "{673, 1118}";
}
);
layerId = "334C7BAA-C7B0-45C9-BED5-5E40ABBE215F";
paths = (
{
closed = 1;
nodes = (
"736 1131 OFFCURVE",
"680 1139 OFFCURVE",
"625 1139 CURVE SMOOTH",
"337 1139 OFFCURVE",
"158 972 OFFCURVE",
"158 707 CURVE SMOOTH",
"158 587 OFFCURVE",
"198 507 OFFCURVE",
"285 442 CURVE",
"149 379 OFFCURVE",
"94 316 OFFCURVE",
"94 221 CURVE SMOOTH",
"94 164 OFFCURVE",
"119 119 OFFCURVE",
"168 88 CURVE",
"-27 24 OFFCURVE",
"-115 -73 OFFCURVE",
"-115 -209 CURVE SMOOTH",
"-115 -385 OFFCURVE",
"49 -492 OFFCURVE",
"326 -492 CURVE SMOOTH",
"713 -492 OFFCURVE",
"928 -338 OFFCURVE",
"928 -57 CURVE SMOOTH",
"928 103 OFFCURVE",
"833 183 OFFCURVE",
"616 211 CURVE SMOOTH",
"479 229 LINE SMOOTH",
"400 240 OFFCURVE",
"360 256 OFFCURVE",
"360 301 CURVE SMOOTH",
"360 335 OFFCURVE",
"388 361 OFFCURVE",
"444 379 CURVE",
"471 372 OFFCURVE",
"504 369 OFFCURVE",
"543 369 CURVE SMOOTH",
"820 369 OFFCURVE",
"993 531 OFFCURVE",
"993 791 CURVE SMOOTH",
"993 835 OFFCURVE",
"988 874 OFFCURVE",
"977 909 CURVE",
"1151 950 LINE",
"1186 1116 LINE",
"791 1116 LINE"
);
},
{
closed = 1;
nodes = (
"549 -29 OFFCURVE",
"595 -41 OFFCURVE",
"617 -55 CURVE SMOOTH",
"638 -69 OFFCURVE",
"649 -89 OFFCURVE",
"649 -115 CURVE SMOOTH",
"649 -224 OFFCURVE",
"545 -287 OFFCURVE",
"344 -287 CURVE SMOOTH",
"215 -287 OFFCURVE",
"150 -249 OFFCURVE",
"150 -172 CURVE SMOOTH",
"150 -84 OFFCURVE",
"224 -25 OFFCURVE",
"365 -6 CURVE",
"479 -20 LINE SMOOTH"
);
},
{
closed = 1;
nodes = (
"680 948 OFFCURVE",
"713 909 OFFCURVE",
"713 831 CURVE SMOOTH",
"713 675 OFFCURVE",
"645 561 OFFCURVE",
"545 561 CURVE SMOOTH",
"476 561 OFFCURVE",
"442 601 OFFCURVE",
"442 680 CURVE SMOOTH",
"442 833 OFFCURVE",
"511 948 OFFCURVE",
"614 948 CURVE SMOOTH"
);
}
);
width = 1108;
}
);
note = g;
unicode = 0067;
},
{
glyphname = h;
lastChange = "2017-06-04 18:15:06 +0000";
layers = (
{
anchors = (
{
name = bottom;
position = "{500, 0}";
},
{
name = center;
position = "{619, 559}";
},
{
name = top;
position = "{738, 1118}";
}
);
layerId = "334C7BAA-C7B0-45C9-BED5-5E40ABBE215F";
paths = (
{
closed = 1;
nodes = (
"1125 708 OFFCURVE",
"1133 768 OFFCURVE",
"1133 817 CURVE SMOOTH",
"1133 1024 OFFCURVE",
"1028 1139 OFFCURVE",
"844 1139 CURVE SMOOTH",
"711 1139 OFFCURVE",
"613 1072 OFFCURVE",
"530 969 CURVE",
"522 969 LINE",
"609 1252 OFFCURVE",
"616 1315 OFFCURVE",
"668 1556 CURVE",
"367 1556 LINE",
"37 0 LINE",
"338 0 LINE",
"436 463 LINE SMOOTH",
"493 735 OFFCURVE",
"598 895 OFFCURVE",
"721 895 CURVE SMOOTH",
"793 895 OFFCURVE",
"829 854 OFFCURVE",
"829 772 CURVE SMOOTH",
"829 738 OFFCURVE",
"824 698 OFFCURVE",
"813 653 CURVE SMOOTH",
"676 0 LINE",
"977 0 LINE",
"1110 637 LINE SMOOTH"
);
}
);
width = 1237;
}
);
note = h;
unicode = 0068;
},
{
glyphname = i;
lastChange = "2017-06-04 18:15:06 +0000";
layers = (
{
anchors = (
{
name = bottom;
position = "{185, 0}";
}
);
layerId = "334C7BAA-C7B0-45C9-BED5-5E40ABBE215F";
paths = (
{
closed = 1;
nodes = (
"322 1298 OFFCURVE",
"372 1257 OFFCURVE",
"473 1257 CURVE SMOOTH",
"596 1257 OFFCURVE",
"653 1329 OFFCURVE",
"653 1436 CURVE SMOOTH",
"653 1513 OFFCURVE",
"601 1556 OFFCURVE",
"504 1556 CURVE SMOOTH",
"388 1556 OFFCURVE",
"322 1496 OFFCURVE",
"322 1380 CURVE SMOOTH"
);
},
{
closed = 1;
nodes = (
"274 1118 LINE",
"37 0 LINE",
"338 0 LINE",
"575 1118 LINE"
);
}
);
width = 608;
}
);
note = i;
unicode = 0069;
},
{
glyphname = j;
lastChange = "2017-05-01 00:04:10 +0000";
layers = (
{
guideLines = (
{
angle = 78;
position = "{217, 196}";
}
);
layerId = "334C7BAA-C7B0-45C9-BED5-5E40ABBE215F";
paths = (
{
closed = 1;
nodes = (
"127 -492 OFFCURVE",
"262 -368 OFFCURVE",
"313 -121 CURVE SMOOTH",
"578 1118 LINE",
"276 1118 LINE",
"23 -76 LINE SMOOTH",
"-1 -189 OFFCURVE",
"-59 -246 OFFCURVE",
"-150 -246 CURVE SMOOTH",
"-185 -246 OFFCURVE",
"-223 -239 OFFCURVE",
"-264 -225 CURVE",
"-264 -467 LINE",
"-217 -484 OFFCURVE",
"-159 -492 OFFCURVE",
"-90 -492 CURVE SMOOTH"
);
},
{
closed = 1;
nodes = (
"324 1298 OFFCURVE",
"374 1257 OFFCURVE",
"475 1257 CURVE SMOOTH",
"598 1257 OFFCURVE",
"655 1329 OFFCURVE",
"655 1436 CURVE SMOOTH",
"655 1513 OFFCURVE",
"603 1556 OFFCURVE",
"506 1556 CURVE SMOOTH",
"390 1556 OFFCURVE",
"324 1496 OFFCURVE",
"324 1380 CURVE SMOOTH"
);
}
);
width = 608;
}
);
note = j;
unicode = 006A;
},
{
glyphname = k;
lastChange = "2017-06-04 18:16:34 +0000";
layers = (
{
anchors = (
{
name = bottom;
position = "{463, 0}";
},
{
name = top;
position = "{827, 1118}";
}
);
layerId = "334C7BAA-C7B0-45C9-BED5-5E40ABBE215F";
paths = (
{
closed = 1;
nodes = (
"463 643 LINE",
"491 745 LINE SMOOTH",
"505 796 OFFCURVE",
"515 835 OFFCURVE",
"520 862 CURVE SMOOTH",
"668 1556 LINE",
"367 1556 LINE",
"37 0 LINE",
"338 0 LINE",
"412 348 LINE",
"532 420 LINE",
"715 0 LINE",
"1051 0 LINE",
"766 614 LINE",
"1264 1118 LINE",
"920 1118 LINE",
"467 643 LINE"
);
}
);
width = 1163;
}
);
note = k;
unicode = 006B;
},
{
glyphname = l;
lastChange = "2017-06-04 21:14:27 +0000";
layers = (
{
anchors = (
{
name = bottom;
position = "{185, 0}";
},
{
name = center;
position = "{304, 559}";
},
{
name = top;
position = "{833, 1118}";
},
{
name = topright;
position = "{707, 1118}";
}
);
guideLines = (
{
angle = 258.026;
position = "{350, 778}";
}
);
layerId = "334C7BAA-C7B0-45C9-BED5-5E40ABBE215F";
paths = (
{
closed = 1;
nodes = (
"367 1556 LINE",
"37 0 LINE",
"338 0 LINE",
"668 1556 LINE"
);
}
);
width = 608;
}
);
note = l;
unicode = 006C;
},
{
glyphname = m;
lastChange = "2017-06-04 18:17:09 +0000";
layers = (
{
anchors = (
{
name = bottom;
position = "{808, 0}";
},
{
name = top;
position = "{1126, 1118}";
}
);
layerId = "334C7BAA-C7B0-45C9-BED5-5E40ABBE215F";
paths = (
{
closed = 1;
nodes = (
"705 1139 OFFCURVE",
"586 1063 OFFCURVE",
"489 911 CURVE",
"483 911 LINE",
"504 1118 LINE",
"274 1118 LINE",
"37 0 LINE",
"338 0 LINE",
"436 463 LINE SMOOTH",
"493 735 OFFCURVE",
"598 895 OFFCURVE",
"721 895 CURVE SMOOTH",
"786 895 OFFCURVE",
"819 854 OFFCURVE",
"819 772 CURVE SMOOTH",
"819 738 OFFCURVE",
"814 698 OFFCURVE",
"803 653 CURVE SMOOTH",
"666 0 LINE",
"967 0 LINE",
"1063 465 LINE SMOOTH",
"1122 740 OFFCURVE",
"1225 895 OFFCURVE",
"1348 895 CURVE SMOOTH",
"1413 895 OFFCURVE",
"1446 854 OFFCURVE",
"1446 772 CURVE SMOOTH",
"1446 738 OFFCURVE",
"1441 698 OFFCURVE",
"1430 653 CURVE SMOOTH",
"1292 0 LINE",
"1593 0 LINE",
"1726 637 LINE SMOOTH",
"1741 706 OFFCURVE",
"1749 766 OFFCURVE",
"1749 817 CURVE SMOOTH",
"1749 1020 OFFCURVE",
"1651 1139 OFFCURVE",
"1470 1139 CURVE SMOOTH",
"1330 1139 OFFCURVE",
"1203 1058 OFFCURVE",
"1112 911 CURVE",
"1106 911 LINE",
"1077 1063 OFFCURVE",
"990 1139 OFFCURVE",
"844 1139 CURVE SMOOTH"
);
}
);
width = 1853;
}
);
note = m;
unicode = 006D;
},
{
glyphname = n;
lastChange = "2017-06-04 18:19:29 +0000";
layers = (
{
anchors = (
{
name = bottom;
position = "{500, 0}";
},
{
name = top;
position = "{813, 1118}";
}
);
layerId = "334C7BAA-C7B0-45C9-BED5-5E40ABBE215F";
paths = (
{
closed = 1;
nodes = (
"1125 708 OFFCURVE",
"1133 768 OFFCURVE",
"1133 817 CURVE SMOOTH",
"1133 1024 OFFCURVE",
"1028 1139 OFFCURVE",
"844 1139 CURVE SMOOTH",
"705 1139 OFFCURVE",
"586 1063 OFFCURVE",
"489 911 CURVE",
"483 911 LINE",
"504 1118 LINE",
"274 1118 LINE",
"37 0 LINE",
"338 0 LINE",
"436 463 LINE SMOOTH",
"493 735 OFFCURVE",
"598 895 OFFCURVE",
"721 895 CURVE SMOOTH",
"793 895 OFFCURVE",
"829 854 OFFCURVE",
"829 772 CURVE SMOOTH",
"829 738 OFFCURVE",
"824 698 OFFCURVE",
"813 653 CURVE SMOOTH",
"676 0 LINE",
"977 0 LINE",
"1110 637 LINE SMOOTH"
);
}
);
width = 1237;
}
);
note = n;
unicode = 006E;
},
{
glyphname = o;
lastChange = "2017-06-04 18:15:06 +0000";
layers = (
{
anchors = (
{
name = bottom;
position = "{480, 0}";
},
{
name = center;
position = "{599, 559}";
},
{
name = ogonek;
position = "{959, 10}";
},
{
name = top;
position = "{718, 1118}";
},
{
name = topright;
position = "{1297, 1118}";
}
);
layerId = "334C7BAA-C7B0-45C9-BED5-5E40ABBE215F";
paths = (
{
closed = 1;
nodes = (
"805 610 OFFCURVE",
"794 531 OFFCURVE",
"772 458 CURVE SMOOTH",
"727 312 OFFCURVE",
"643 225 OFFCURVE",
"543 225 CURVE SMOOTH",
"443 225 OFFCURVE",
"393 287 OFFCURVE",
"393 410 CURVE SMOOTH",
"393 493 OFFCURVE",
"406 574 OFFCURVE",
"431 653 CURVE SMOOTH",
"481 810 OFFCURVE",
"562 893 OFFCURVE",
"662 893 CURVE SMOOTH",
"757 893 OFFCURVE",
"805 827 OFFCURVE",
"805 696 CURVE SMOOTH"
);
},
{
closed = 1;
nodes = (
"1108 972 OFFCURVE",
"945 1139 OFFCURVE",
"684 1139 CURVE SMOOTH",
"563 1139 OFFCURVE",
"458 1109 OFFCURVE",
"368 1048 CURVE SMOOTH",
"188 926 OFFCURVE",
"90 694 OFFCURVE",
"90 410 CURVE SMOOTH",
"90 150 OFFCURVE",
"258 -20 OFFCURVE",
"518 -20 CURVE SMOOTH",
"640 -20 OFFCURVE",
"745 10 OFFCURVE",
"834 70 CURVE SMOOTH",
"1011 189 OFFCURVE",
"1108 415 OFFCURVE",
"1108 696 CURVE SMOOTH"
);
}
);
width = 1198;
}
);
note = o;
unicode = 006F;
},
{
glyphname = p;
lastChange = "2017-06-04 18:17:28 +0000";
layers = (
{
anchors = (
{
name = bottom;
position = "{491, 0}";
},
{
name = top;
position = "{813, 1118}";
}
);
layerId = "334C7BAA-C7B0-45C9-BED5-5E40ABBE215F";
paths = (
{
closed = 1;
nodes = (
"694 1139 OFFCURVE",
"588 1075 OFFCURVE",
"496 948 CURVE",
"487 948 LINE",
"504 1118 LINE",
"274 1118 LINE",
"-68 -492 LINE",
"233 -492 LINE",
"305 -152 LINE SMOOTH",
"326 -61 OFFCURVE",
"340 37 OFFCURVE",
"348 143 CURVE",
"356 143 LINE",
"424 24 OFFCURVE",
"499 -20 OFFCURVE",
"610 -20 CURVE SMOOTH",
"705 -20 OFFCURVE",
"793 15 OFFCURVE",
"872 84 CURVE SMOOTH",
"1031 222 OFFCURVE",
"1128 476 OFFCURVE",
"1128 731 CURVE SMOOTH",
"1128 988 OFFCURVE",
"1008 1139 OFFCURVE",
"813 1139 CURVE SMOOTH"
);
},
{
closed = 1;
nodes = (
"779 895 OFFCURVE",
"823 836 OFFCURVE",
"823 719 CURVE SMOOTH",
"823 641 OFFCURVE",
"811 562 OFFCURVE",
"786 482 CURVE SMOOTH",
"736 321 OFFCURVE",
"648 223 OFFCURVE",
"559 223 CURVE SMOOTH",
"472 223 OFFCURVE",
"420 292 OFFCURVE",
"420 399 CURVE SMOOTH",
"420 490 OFFCURVE",
"433 573 OFFCURVE",
"459 648 CURVE SMOOTH",
"510 798 OFFCURVE",
"601 895 OFFCURVE",
"692 895 CURVE SMOOTH"
);
}
);
width = 1219;
}
);
note = p;
unicode = 0070;
},
{
glyphname = q;
lastChange = "2017-06-04 18:15:06 +0000";
layers = (
{
anchors = (
{
name = bottom;
position = "{490, 0}";
},
{
name = top;
position = "{728, 1118}";
}
);
layerId = "334C7BAA-C7B0-45C9-BED5-5E40ABBE215F";
paths = (
{
closed = 1;
nodes = (
"502 -20 OFFCURVE",
"592 25 OFFCURVE",
"688 150 CURVE",
"696 150 LINE",
"619 -97 OFFCURVE",
"602 -201 OFFCURVE",
"539 -492 CURVE",
"840 -492 LINE",
"1182 1118 LINE",
"950 1118 LINE",
"893 975 LINE",
"885 975 LINE",
"808 1094 OFFCURVE",
"723 1139 OFFCURVE",
"608 1139 CURVE SMOOTH",
"515 1139 OFFCURVE",
"429 1106 OFFCURVE",
"351 1041 CURVE SMOOTH",
"195 909 OFFCURVE",
"90 649 OFFCURVE",
"90 385 CURVE SMOOTH",
"90 300 OFFCURVE",
"103 227 OFFCURVE",
"129 166 CURVE SMOOTH",
"180 45 OFFCURVE",
"274 -20 OFFCURVE",
"391 -20 CURVE SMOOTH"
);
},
{
closed = 1;
nodes = (
"446 223 OFFCURVE",
"395 282 OFFCURVE",
"395 399 CURVE SMOOTH",
"395 476 OFFCURVE",
"407 554 OFFCURVE",
"432 633 CURVE SMOOTH",
"480 790 OFFCURVE",
"568 895 OFFCURVE",
"659 895 CURVE SMOOTH",
"746 895 OFFCURVE",
"799 826 OFFCURVE",
"799 719 CURVE SMOOTH",
"799 630 OFFCURVE",
"787 548 OFFCURVE",
"763 474 CURVE SMOOTH",
"714 326 OFFCURVE",
"620 223 OFFCURVE",
"535 223 CURVE SMOOTH"
);
}
);
width = 1217;
}
);
note = q;
unicode = 0071;
},
{
glyphname = r;
lastChange = "2017-06-04 18:15:06 +0000";
layers = (
{
anchors = (
{
name = bottom;
position = "{312, 0}";
},
{
name = top;
position = "{550, 1118}";
}
);
layerId = "334C7BAA-C7B0-45C9-BED5-5E40ABBE215F";
paths = (
{
closed = 1;
nodes = (
"705 1139 OFFCURVE",
"587 1063 OFFCURVE",
"489 911 CURVE",
"483 911 LINE",
"504 1118 LINE",
"274 1118 LINE",
"37 0 LINE",
"338 0 LINE",
"444 500 LINE SMOOTH",
"493 728 OFFCURVE",
"617 854 OFFCURVE",
"772 854 CURVE SMOOTH",
"809 854 OFFCURVE",
"842 849 OFFCURVE",
"872 838 CURVE",
"938 1128 LINE",
"913 1135 OFFCURVE",
"881 1139 OFFCURVE",
"842 1139 CURVE SMOOTH"
);
}
);
width = 862;
}
);
note = r;
unicode = 0072;
},
{
glyphname = s;
lastChange = "2017-06-04 18:15:06 +0000";
layers = (
{
anchors = (
{
name = bottom;
position = "{366, 0}";
},
{
name = top;
position = "{604, 1118}";
}
);
layerId = "334C7BAA-C7B0-45C9-BED5-5E40ABBE215F";
paths = (
{
closed = 1;
nodes = (
"829 497 OFFCURVE",
"760 592 OFFCURVE",
"596 676 CURVE SMOOTH",
"537 706 OFFCURVE",
"497 731 OFFCURVE",
"476 751 CURVE SMOOTH",
"455 770 OFFCURVE",
"444 793 OFFCURVE",
"444 819 CURVE SMOOTH",
"444 876 OFFCURVE",
"495 913 OFFCURVE",
"571 913 CURVE SMOOTH",
"650 913 OFFCURVE",
"736 885 OFFCURVE",
"829 829 CURVE",
"928 1044 LINE",
"820 1107 OFFCURVE",
"699 1139 OFFCURVE",
"565 1139 CURVE SMOOTH",
"292 1139 OFFCURVE",
"139 1009 OFFCURVE",
"139 782 CURVE SMOOTH",
"139 659 OFFCURVE",
"195 578 OFFCURVE",
"356 487 CURVE SMOOTH",
"419 452 OFFCURVE",
"462 424 OFFCURVE",
"487 401 CURVE SMOOTH",
"512 378 OFFCURVE",
"524 353 OFFCURVE",
"524 324 CURVE SMOOTH",
"524 249 OFFCURVE",
"449 203 OFFCURVE",
"342 203 CURVE SMOOTH",
"234 203 OFFCURVE",
"128 233 OFFCURVE",
"23 293 CURVE",
"23 45 LINE",
"115 -2 OFFCURVE",
"215 -20 OFFCURVE",
"358 -20 CURVE SMOOTH",
"654 -20 OFFCURVE",
"829 118 OFFCURVE",
"829 369 CURVE SMOOTH"
);
}
);
width = 969;
}
);
note = s;
unicode = 0073;
},
{
glyphname = t;
lastChange = "2017-06-04 18:17:49 +0000";
layers = (
{
anchors = (
{
name = bottom;
position = "{301, 0}";
},
{
name = center;
position = "{420, 559}";
},
{
name = top;
position = "{847, 1118}";
},
{
name = topright;
position = "{939, 1118}";
}
);
layerId = "334C7BAA-C7B0-45C9-BED5-5E40ABBE215F";
paths = (
{
closed = 1;
nodes = (
"455 223 OFFCURVE",
"426 248 OFFCURVE",
"426 297 CURVE SMOOTH",
"426 312 OFFCURVE",
"428 330 OFFCURVE",
"432 350 CURVE SMOOTH",
"547 889 LINE",
"829 889 LINE",
"879 1118 LINE",
"596 1118 LINE",
"645 1356 LINE",
"451 1356 LINE",
"319 1120 LINE",
"123 1036 LINE",
"94 889 LINE",
"246 889 LINE",
"131 350 LINE SMOOTH",
"123 309 OFFCURVE",
"119 271 OFFCURVE",
"119 238 CURVE SMOOTH",
"119 62 OFFCURVE",
"210 -20 OFFCURVE",
"410 -20 CURVE SMOOTH",
"513 -20 OFFCURVE",
"602 -2 OFFCURVE",
"676 33 CURVE",
"676 258 LINE",
"611 235 OFFCURVE",
"557 223 OFFCURVE",
"514 223 CURVE SMOOTH"
);
}
);
width = 840;
}
);
note = t;
unicode = 0074;
},
{
glyphname = u;
lastChange = "2017-06-04 18:15:06 +0000";
layers = (
{
anchors = (
{
name = bottom;
position = "{500, 0}";
},
{
name = ogonek;
position = "{994, 10}";
},
{
name = top;
position = "{738, 1118}";
},
{
name = topright;
position = "{1336, 1118}";
}
);
layerId = "334C7BAA-C7B0-45C9-BED5-5E40ABBE215F";
paths = (
{
closed = 1;
nodes = (
"119 434 OFFCURVE",
"111 363 OFFCURVE",
"111 301 CURVE SMOOTH",
"111 93 OFFCURVE",
"211 -20 OFFCURVE",
"395 -20 CURVE SMOOTH",
"535 -20 OFFCURVE",
"653 56 OFFCURVE",
"750 207 CURVE",
"756 207 LINE",
"735 0 LINE",
"965 0 LINE",
"1202 1118 LINE",
"901 1118 LINE",
"803 655 LINE SMOOTH",
"746 383 OFFCURVE",
"641 223 OFFCURVE",
"518 223 CURVE SMOOTH",
"446 223 OFFCURVE",
"410 264 OFFCURVE",
"410 346 CURVE SMOOTH",
"410 380 OFFCURVE",
"415 420 OFFCURVE",
"426 465 CURVE SMOOTH",
"563 1118 LINE",
"262 1118 LINE",
"135 514 LINE SMOOTH"
);
}
);
width = 1237;
}
);
note = u;
unicode = 0075;
},
{
glyphname = v;
lastChange = "2017-06-04 18:15:06 +0000";
layers = (
{
anchors = (
{
name = bottom;
position = "{406, 0}";
},
{
name = top;
position = "{644, 1118}";
}
);
layerId = "334C7BAA-C7B0-45C9-BED5-5E40ABBE215F";
paths = (
{
closed = 1;
nodes = (
"449 366 OFFCURVE",
"447 443 OFFCURVE",
"442 532 CURVE SMOOTH",
"397 1118 LINE",
"102 1118 LINE",
"240 0 LINE",
"563 0 LINE",
"1167 1118 LINE",
"844 1118 LINE",
"547 524 LINE SMOOTH",
"522 477 OFFCURVE",
"492 403 OFFCURVE",
"455 301 CURVE",
"449 301 LINE"
);
}
);
width = 1049;
}
);
note = v;
unicode = 0076;
},
{
glyphname = w;
lastChange = "2017-06-04 18:15:06 +0000";
layers = (
{
anchors = (
{
name = bottom;
position = "{688, 0}";
},
{
name = top;
position = "{926, 1118}";
}
);
layerId = "334C7BAA-C7B0-45C9-BED5-5E40ABBE215F";
paths = (
{
closed = 1;
nodes = (
"855 737 OFFCURVE",
"852 623 OFFCURVE",
"852 520 CURVE SMOOTH",
"858 0 LINE",
"1188 0 LINE",
"1718 1118 LINE",
"1411 1118 LINE",
"1192 623 LINE SMOOTH",
"1177 590 OFFCURVE",
"1146 504 OFFCURVE",
"1097 365 CURVE SMOOTH",
"1069 285 LINE",
"1063 285 LINE",
"1070 388 OFFCURVE",
"1073 487 OFFCURVE",
"1073 582 CURVE SMOOTH",
"1073 1118 LINE",
"745 1118 LINE",
"514 582 LINE",
"510 577 OFFCURVE",
"428 355 OFFCURVE",
"417 327 CURVE",
"412 312 OFFCURVE",
"407 298 OFFCURVE",
"403 285 CURVE",
"399 285 LINE",
"406 456 LINE",
"410 623 LINE",
"406 1118 LINE",
"125 1118 LINE",
"176 0 LINE",
"500 0 LINE",
"733 541 LINE SMOOTH",
"774 635 OFFCURVE",
"815 741 OFFCURVE",
"856 860 CURVE",
"862 860 LINE"
);
}
);
width = 1614;
}
);
note = w;
unicode = 0077;
},
{
glyphname = x;
lastChange = "2017-06-04 18:15:06 +0000";
layers = (
{
anchors = (
{
name = bottom;
position = "{425, 0}";
},
{
name = top;
position = "{663, 1118}";
}
);
layerId = "334C7BAA-C7B0-45C9-BED5-5E40ABBE215F";
paths = (
{
closed = 1;
nodes = (
"250 0 LINE",
"514 342 LINE",
"639 0 LINE",
"965 0 LINE",
"721 557 LINE",
"1188 1118 LINE",
"834 1118 LINE",
"590 784 LINE",
"475 1118 LINE",
"154 1118 LINE",
"379 573 LINE",
"-100 0 LINE"
);
}
);
width = 1087;
}
);
note = x;
unicode = 0078;
},
{
glyphname = y;
lastChange = "2017-06-04 18:15:06 +0000";
layers = (
{
anchors = (
{
name = bottom;
position = "{413, 0}";
},
{
name = top;
position = "{651, 1118}";
}
);
guideLines = (
{
angle = 78;
position = "{380, -159}";
}
);
layerId = "334C7BAA-C7B0-45C9-BED5-5E40ABBE215F";
paths = (
{
closed = 1;
nodes = (
"240 -49 LINE SMOOTH",
"168 -184 OFFCURVE",
"87 -246 OFFCURVE",
"-25 -246 CURVE SMOOTH",
"-57 -246 OFFCURVE",
"-96 -242 OFFCURVE",
"-141 -233 CURVE",
"-141 -473 LINE",
"-103 -486 OFFCURVE",
"-54 -492 OFFCURVE",
"6 -492 CURVE SMOOTH",
"210 -492 OFFCURVE",
"371 -381 OFFCURVE",
"489 -160 CURVE SMOOTH",
"1169 1118 LINE",
"842 1118 LINE",
"582 580 LINE SMOOTH",
"555 523 OFFCURVE",
"533 472 OFFCURVE",
"517 427 CURVE SMOOTH",
"501 381 OFFCURVE",
"486 341 OFFCURVE",
"473 307 CURVE",
"467 307 LINE",
"467 421 OFFCURVE",
"462 519 OFFCURVE",
"453 600 CURVE SMOOTH",
"397 1118 LINE",
"102 1118 LINE",
"266 0 LINE"
);
}
);
width = 1063;
}
);
note = y;
unicode = 0079;
},
{
glyphname = z;
lastChange = "2017-06-04 18:15:06 +0000";
layers = (
{
anchors = (
{
name = bottom;
position = "{347, 0}";
},
{
name = top;
position = "{585, 1118}";
}
);
layerId = "334C7BAA-C7B0-45C9-BED5-5E40ABBE215F";
paths = (
{
closed = 1;
nodes = (
"358 233 LINE",
"924 918 LINE",
"967 1118 LINE",
"217 1118 LINE",
"166 885 LINE",
"563 885 LINE",
"-12 180 LINE",
"-47 0 LINE",
"748 0 LINE",
"797 233 LINE"
);
}
);
width = 932;
}
);
note = z;
unicode = 007A;
},
{
glyphname = braceleft;
lastChange = "2017-02-21 05:28:43 +0000";
layers = (
{
layerId = "334C7BAA-C7B0-45C9-BED5-5E40ABBE215F";
paths = (
{
closed = 1;
nodes = (
"201 308 OFFCURVE",
"196 279 OFFCURVE",
"186 233 CURVE SMOOTH",
"147 49 LINE SMOOTH",
"138 4 OFFCURVE",
"133 -38 OFFCURVE",
"133 -76 CURVE SMOOTH",
"133 -237 OFFCURVE",
"250 -324 OFFCURVE",
"473 -324 CURVE SMOOTH",
"526 -324 LINE",
"526 -98 LINE",
"449 -98 OFFCURVE",
"401 -76 OFFCURVE",
"401 -4 CURVE SMOOTH",
"401 11 OFFCURVE",
"403 28 OFFCURVE",
"408 47 CURVE",
"444 225 LINE SMOOTH",
"454 271 OFFCURVE",
"459 309 OFFCURVE",
"459 338 CURVE SMOOTH",
"459 442 OFFCURVE",
"404 520 OFFCURVE",
"291 555 CURVE",
"291 563 LINE",
"445 582 OFFCURVE",
"537 661 OFFCURVE",
"567 799 CURVE SMOOTH",
"633 1096 LINE SMOOTH",
"653 1195 OFFCURVE",
"699 1234 OFFCURVE",
"819 1237 CURVE",
"868 1462 LINE",
"784 1462 LINE SMOOTH",
"548 1462 OFFCURVE",
"434 1380 OFFCURVE",
"383 1153 CURVE SMOOTH",
"322 868 LINE SMOOTH",
"293 739 OFFCURVE",
"200 688 OFFCURVE",
"37 688 CURVE",
"-8 459 LINE",
"131 459 OFFCURVE",
"201 412 OFFCURVE",
"201 319 CURVE SMOOTH"
);
}
);
width = 727;
}
);
note = braceleft;
unicode = 007B;
},
{
glyphname = bar;
lastChange = "2017-02-21 05:28:43 +0000";
layers = (
{
layerId = "334C7BAA-C7B0-45C9-BED5-5E40ABBE215F";
paths = (
{
closed = 1;
nodes = (
"674 -465 LINE",
"674 1550 LINE",
"455 1550 LINE",
"455 -465 LINE"
);
}
);
width = 1128;
}
);
note = bar;
unicode = 007C;
},
{
glyphname = braceright;
lastChange = "2017-02-21 05:28:43 +0000";
layers = (
{
layerId = "334C7BAA-C7B0-45C9-BED5-5E40ABBE215F";
paths = (
{
closed = 1;
nodes = (
"182 1237 LINE",
"279 1237 OFFCURVE",
"328 1215 OFFCURVE",
"328 1143 CURVE SMOOTH",
"328 1129 OFFCURVE",
"326 1112 OFFCURVE",
"322 1092 CURVE SMOOTH",
"285 913 LINE SMOOTH",
"275 867 OFFCURVE",
"270 830 OFFCURVE",
"270 801 CURVE SMOOTH",
"270 690 OFFCURVE",
"326 618 OFFCURVE",
"438 584 CURVE",
"438 575 LINE",
"290 556 OFFCURVE",
"195 488 OFFCURVE",
"162 340 CURVE SMOOTH",
"96 43 LINE SMOOTH",
"76 -54 OFFCURVE",
"24 -94 OFFCURVE",
"-100 -98 CURVE",
"-100 -324 LINE",
"-55 -324 LINE SMOOTH",
"181 -324 OFFCURVE",
"297 -241 OFFCURVE",
"346 -14 CURVE SMOOTH",
"408 270 LINE SMOOTH",
"436 399 OFFCURVE",
"529 451 OFFCURVE",
"692 451 CURVE",
"737 680 LINE",
"598 680 OFFCURVE",
"528 726 OFFCURVE",
"528 819 CURVE SMOOTH",
"528 830 OFFCURVE",
"533 859 OFFCURVE",
"543 905 CURVE SMOOTH",
"582 1090 LINE SMOOTH",
"591 1135 OFFCURVE",
"596 1177 OFFCURVE",
"596 1214 CURVE SMOOTH",
"596 1379 OFFCURVE",
"483 1462 OFFCURVE",
"256 1462 CURVE SMOOTH",
"223 1462 LINE"
);
}
);
width = 727;
}
);
note = braceright;
unicode = 007D;
},
{
glyphname = asciitilde;
lastChange = "2017-02-21 05:28:43 +0000";
layers = (
{
layerId = "334C7BAA-C7B0-45C9-BED5-5E40ABBE215F";
paths = (
{
closed = 1;
nodes = (
"398 672 OFFCURVE",
"430 667 OFFCURVE",
"549 616 CURVE SMOOTH",
"678 563 OFFCURVE",
"726 553 OFFCURVE",
"805 553 CURVE SMOOTH",
"907 553 OFFCURVE",
"992 589 OFFCURVE",
"1061 662 CURVE",
"1061 893 LINE",
"980 813 OFFCURVE",
"895 772 OFFCURVE",
"827 772 CURVE SMOOTH",
"763 772 OFFCURVE",
"706 791 OFFCURVE",
"621 827 CURVE SMOOTH",
"506 875 OFFCURVE",
"450 891 OFFCURVE",
"365 891 CURVE SMOOTH",
"262 891 OFFCURVE",
"176 855 OFFCURVE",
"109 782 CURVE",
"109 551 LINE",
"181 624 OFFCURVE",
"270 672 OFFCURVE",
"342 672 CURVE SMOOTH"
);
}
);
width = 1128;
}
);
note = asciitilde;
unicode = 007E;
},
{
glyphname = exclamdown;
lastChange = "2017-02-21 05:28:43 +0000";
layers = (
{
layerId = "334C7BAA-C7B0-45C9-BED5-5E40ABBE215F";
paths = (
{
closed = 1;
nodes = (
"266 -371 LINE",
"424 606 LINE",
"182 606 LINE",
"-74 -371 LINE"
);
},
{
closed = 1;
nodes = (
"549 1066 OFFCURVE",
"490 1118 OFFCURVE",
"393 1118 CURVE SMOOTH",
"273 1118 OFFCURVE",
"195 1037 OFFCURVE",
"195 924 CURVE SMOOTH",
"195 831 OFFCURVE",
"253 778 OFFCURVE",
"344 778 CURVE SMOOTH",
"469 778 OFFCURVE",
"549 854 OFFCURVE",
"549 977 CURVE SMOOTH"
);
}
);
width = 586;
}
);
note = exclamdown;
unicode = 00A1;
},
{
glyphname = cent;
lastChange = "2017-02-21 05:28:43 +0000";
layers = (
{
layerId = "334C7BAA-C7B0-45C9-BED5-5E40ABBE215F";
paths = (
{
closed = 1;
nodes = (
"725 178 OFFCURVE",
"824 205 OFFCURVE",
"915 252 CURVE",
"915 498 LINE",
"823 451 OFFCURVE",
"741 416 OFFCURVE",
"641 416 CURVE SMOOTH",
"532 416 OFFCURVE",
"469 480 OFFCURVE",
"469 608 CURVE SMOOTH",
"469 865 OFFCURVE",
"591 1087 OFFCURVE",
"768 1087 CURVE SMOOTH",
"856 1087 OFFCURVE",
"920 1061 OFFCURVE",
"991 1030 CURVE",
"1083 1260 LINE",
"1012 1294 OFFCURVE",
"937 1316 OFFCURVE",
"858 1325 CURVE",
"893 1483 LINE",
"705 1483 LINE",
"672 1325 LINE",
"571 1310 OFFCURVE",
"482 1269 OFFCURVE",
"405 1202 CURVE SMOOTH",
"251 1068 OFFCURVE",
"164 841 OFFCURVE",
"164 584 CURVE SMOOTH",
"164 373 OFFCURVE",
"257 238 OFFCURVE",
"436 190 CURVE",
"387 -20 LINE",
"575 -20 LINE",
"616 172 LINE"
);
}
);
width = 1128;
}
);
note = cent;
unicode = 00A2;
},
{
glyphname = sterling;
lastChange = "2017-02-21 05:28:43 +0000";
layers = (
{
layerId = "334C7BAA-C7B0-45C9-BED5-5E40ABBE215F";
paths = (
{
closed = 1;
nodes = (
"616 1485 OFFCURVE",
"452 1344 OFFCURVE",
"397 1081 CURVE SMOOTH",
"348 834 LINE",
"156 834 LINE",
"111 614 LINE",
"303 614 LINE",
"281 510 LINE SMOOTH",
"249 366 OFFCURVE",
"168 278 OFFCURVE",
"37 246 CURVE",
"-12 0 LINE",
"981 0 LINE",
"1036 260 LINE",
"381 260 LINE",
"492 310 OFFCURVE",
"562 400 OFFCURVE",
"590 530 CURVE SMOOTH",
"608 614 LINE",
"907 614 LINE",
"952 834 LINE",
"653 834 LINE",
"700 1063 LINE SMOOTH",
"727 1187 OFFCURVE",
"791 1235 OFFCURVE",
"891 1235 CURVE SMOOTH",
"955 1235 OFFCURVE",
"1034 1212 OFFCURVE",
"1128 1167 CURVE",
"1241 1399 LINE",
"1125 1456 OFFCURVE",
"1002 1485 OFFCURVE",
"872 1485 CURVE SMOOTH"
);
}
);
width = 1128;
}
);
note = sterling;
unicode = 00A3;
},
{
glyphname = currency;
lastChange = "2017-02-21 05:28:43 +0000";
layers = (
{
layerId = "334C7BAA-C7B0-45C9-BED5-5E40ABBE215F";
paths = (
{
closed = 1;
nodes = (
"190 654 OFFCURVE",
"208 588 OFFCURVE",
"244 526 CURVE",
"117 401 LINE",
"262 256 LINE",
"387 379 LINE",
"443 345 OFFCURVE",
"509 328 OFFCURVE",
"586 328 CURVE SMOOTH",
"653 328 OFFCURVE",
"719 345 OFFCURVE",
"782 379 CURVE",
"909 254 LINE",
"1055 399 LINE",
"930 524 LINE",
"965 585 OFFCURVE",
"983 652 OFFCURVE",
"983 723 CURVE SMOOTH",
"983 796 OFFCURVE",
"965 863 OFFCURVE",
"930 922 CURVE",
"1059 1051 LINE",
"909 1194 LINE",
"782 1065 LINE",
"721 1102 OFFCURVE",
"656 1120 OFFCURVE",
"586 1120 CURVE SMOOTH",
"515 1120 OFFCURVE",
"450 1102 OFFCURVE",
"389 1067 CURVE",
"262 1194 LINE",
"115 1047 LINE",
"244 920 LINE",
"208 857 OFFCURVE",
"190 791 OFFCURVE",
"190 723 CURVE SMOOTH"
);
},
{
closed = 1;
nodes = (
"397 827 OFFCURVE",
"482 913 OFFCURVE",
"586 913 CURVE SMOOTH",
"691 913 OFFCURVE",
"778 830 OFFCURVE",
"778 723 CURVE SMOOTH",
"778 619 OFFCURVE",
"694 535 OFFCURVE",
"586 535 CURVE SMOOTH",
"479 535 OFFCURVE",
"397 620 OFFCURVE",
"397 723 CURVE SMOOTH"
);
}
);
width = 1128;
}
);
note = currency;
unicode = 00A4;
},
{
glyphname = yen;
lastChange = "2017-02-21 05:28:43 +0000";
layers = (
{
layerId = "334C7BAA-C7B0-45C9-BED5-5E40ABBE215F";
paths = (
{
closed = 1;
nodes = (
"197 1462 LINE",
"389 715 LINE",
"193 715 LINE",
"154 537 LINE",
"406 537 LINE",
"377 399 LINE",
"125 399 LINE",
"88 221 LINE",
"340 221 LINE",
"293 0 LINE",
"584 0 LINE",
"631 221 LINE",
"883 221 LINE",
"920 399 LINE",
"668 399 LINE",
"696 537 LINE",
"948 537 LINE",
"987 715 LINE",
"784 715 LINE",
"1290 1462 LINE",
"979 1462 LINE",
"608 872 LINE",
"494 1462 LINE"
);
}
);
width = 1128;
}
);
note = yen;
unicode = 00A5;
},
{
glyphname = brokenbar;
lastChange = "2017-02-21 05:28:43 +0000";
layers = (
{
layerId = "334C7BAA-C7B0-45C9-BED5-5E40ABBE215F";
paths = (
{
closed = 1;
nodes = (
"674 735 LINE",
"674 1550 LINE",
"455 1550 LINE",
"455 735 LINE"
);
},
{
closed = 1;
nodes = (
"674 -465 LINE",
"674 350 LINE",
"455 350 LINE",
"455 -465 LINE"
);
}
);
width = 1128;
}
);
note = brokenbar;
unicode = 00A6;
},
{
glyphname = section;
lastChange = "2017-02-21 05:28:43 +0000";
layers = (
{
layerId = "334C7BAA-C7B0-45C9-BED5-5E40ABBE215F";
paths = (
{
closed = 1;
nodes = (
"150 624 OFFCURVE",
"239 529 OFFCURVE",
"395 453 CURVE SMOOTH",
"458 422 OFFCURVE",
"500 396 OFFCURVE",
"522 374 CURVE SMOOTH",
"544 351 OFFCURVE",
"555 327 OFFCURVE",
"555 301 CURVE SMOOTH",
"555 225 OFFCURVE",
"497 174 OFFCURVE",
"365 174 CURVE SMOOTH",
"250 174 OFFCURVE",
"135 209 OFFCURVE",
"20 279 CURVE",
"20 55 LINE",
"108 5 OFFCURVE",
"220 -20 OFFCURVE",
"356 -20 CURVE SMOOTH",
"648 -20 OFFCURVE",
"827 111 OFFCURVE",
"827 326 CURVE SMOOTH",
"827 403 OFFCURVE",
"788 473 OFFCURVE",
"737 520 CURVE",
"866 597 OFFCURVE",
"930 698 OFFCURVE",
"930 823 CURVE SMOOTH",
"930 954 OFFCURVE",
"849 1055 OFFCURVE",
"688 1126 CURVE SMOOTH",
"572 1178 OFFCURVE",
"520 1217 OFFCURVE",
"520 1274 CURVE SMOOTH",
"520 1345 OFFCURVE",
"568 1380 OFFCURVE",
"664 1380 CURVE SMOOTH",
"754 1380 OFFCURVE",
"848 1352 OFFCURVE",
"946 1296 CURVE",
"1028 1489 LINE",
"913 1548 OFFCURVE",
"799 1577 OFFCURVE",
"684 1577 CURVE SMOOTH",
"423 1577 OFFCURVE",
"254 1456 OFFCURVE",
"254 1257 CURVE SMOOTH",
"254 1181 OFFCURVE",
"296 1110 OFFCURVE",
"352 1065 CURVE",
"209 974 OFFCURVE",
"150 879 OFFCURVE",
"150 760 CURVE SMOOTH"
);
},
{
closed = 1;
nodes = (
"623 919 OFFCURVE",
"682 859 OFFCURVE",
"682 786 CURVE SMOOTH",
"682 722 OFFCURVE",
"645 653 OFFCURVE",
"580 612 CURVE",
"447 673 OFFCURVE",
"393 725 OFFCURVE",
"393 797 CURVE SMOOTH",
"393 869 OFFCURVE",
"438 934 OFFCURVE",
"506 967 CURVE"
);
}
);
width = 995;
}
);
note = section;
unicode = 00A7;
},
{
glyphname = dieresis;
lastChange = "2017-02-21 05:28:43 +0000";
layers = (
{
layerId = "334C7BAA-C7B0-45C9-BED5-5E40ABBE215F";
paths = (
{
closed = 1;
nodes = (
"397 1309 OFFCURVE",
"442 1272 OFFCURVE",
"532 1272 CURVE SMOOTH",
"641 1272 OFFCURVE",
"692 1335 OFFCURVE",
"692 1432 CURVE SMOOTH",
"692 1504 OFFCURVE",
"648 1540 OFFCURVE",
"559 1540 CURVE SMOOTH",
"456 1540 OFFCURVE",
"397 1486 OFFCURVE",
"397 1382 CURVE SMOOTH"
);
},
{
closed = 1;
nodes = (
"799 1309 OFFCURVE",
"844 1272 OFFCURVE",
"934 1272 CURVE SMOOTH",
"1042 1272 OFFCURVE",
"1094 1335 OFFCURVE",
"1094 1432 CURVE SMOOTH",
"1094 1501 OFFCURVE",
"1048 1540 OFFCURVE",
"961 1540 CURVE SMOOTH",
"857 1540 OFFCURVE",
"799 1486 OFFCURVE",
"799 1382 CURVE SMOOTH"
);
}
);
width = 1135;
}
);
note = dieresis;
unicode = 00A8;
},
{
glyphname = copyright;
lastChange = "2017-02-21 05:28:43 +0000";
layers = (
{
layerId = "334C7BAA-C7B0-45C9-BED5-5E40ABBE215F";
paths = (
{
closed = 1;
nodes = (
"993 1010 OFFCURVE",
"1061 991 OFFCURVE",
"1137 952 CURVE",
"1212 1126 LINE",
"1117 1174 OFFCURVE",
"1023 1198 OFFCURVE",
"928 1198 CURVE SMOOTH",
"651 1198 OFFCURVE",
"485 1021 OFFCURVE",
"485 721 CURVE SMOOTH",
"485 436 OFFCURVE",
"642 262 OFFCURVE",
"903 262 CURVE SMOOTH",
"990 262 OFFCURVE",
"1078 281 OFFCURVE",
"1165 319 CURVE",
"1165 510 LINE",
"1086 473 OFFCURVE",
"989 451 OFFCURVE",
"932 451 CURVE SMOOTH",
"793 451 OFFCURVE",
"717 544 OFFCURVE",
"717 723 CURVE SMOOTH",
"717 911 OFFCURVE",
"784 1010 OFFCURVE",
"932 1010 CURVE SMOOTH"
);
},
{
closed = 1;
nodes = (
"125 599 OFFCURVE",
"158 475 OFFCURVE",
"223 360 CURVE SMOOTH",
"353 129 OFFCURVE",
"601 -20 OFFCURVE",
"877 -20 CURVE SMOOTH",
"1014 -20 OFFCURVE",
"1141 14 OFFCURVE",
"1257 82 CURVE SMOOTH",
"1489 218 OFFCURVE",
"1628 466 OFFCURVE",
"1628 731 CURVE SMOOTH",
"1628 865 OFFCURVE",
"1594 991 OFFCURVE",
"1527 1109 CURVE SMOOTH",
"1391 1344 OFFCURVE",
"1142 1483 OFFCURVE",
"877 1483 CURVE SMOOTH",
"742 1483 OFFCURVE",
"617 1449 OFFCURVE",
"500 1382 CURVE SMOOTH",
"267 1247 OFFCURVE",
"125 998 OFFCURVE",
"125 731 CURVE SMOOTH"
);
},
{
closed = 1;
nodes = (
"266 840 OFFCURVE",
"293 941 OFFCURVE",
"347 1035 CURVE SMOOTH",
"455 1223 OFFCURVE",
"658 1341 OFFCURVE",
"877 1341 CURVE SMOOTH",
"988 1341 OFFCURVE",
"1090 1313 OFFCURVE",
"1185 1258 CURVE SMOOTH",
"1373 1147 OFFCURVE",
"1487 948 OFFCURVE",
"1487 731 CURVE SMOOTH",
"1487 622 OFFCURVE",
"1460 521 OFFCURVE",
"1407 428 CURVE SMOOTH",
"1299 240 OFFCURVE",
"1100 121 OFFCURVE",
"877 121 CURVE SMOOTH",
"768 121 OFFCURVE",
"667 148 OFFCURVE",
"572 203 CURVE SMOOTH",
"382 312 OFFCURVE",
"266 512 OFFCURVE",
"266 731 CURVE SMOOTH"
);
}
);
width = 1704;
}
);
note = copyright;
unicode = 00A9;
},
{
glyphname = ordfeminine;
lastChange = "2017-02-21 05:28:43 +0000";
layers = (
{
layerId = "334C7BAA-C7B0-45C9-BED5-5E40ABBE215F";
paths = (
{
closed = 1;
nodes = (
"450 752 OFFCURVE",
"518 787 OFFCURVE",
"571 856 CURVE",
"573 856 LINE",
"565 764 LINE",
"719 764 LINE",
"877 1466 LINE",
"723 1466 LINE",
"684 1376 LINE",
"678 1376 LINE",
"638 1445 OFFCURVE",
"578 1479 OFFCURVE",
"498 1479 CURVE SMOOTH",
"431 1479 OFFCURVE",
"372 1459 OFFCURVE",
"321 1419 CURVE SMOOTH",
"218 1339 OFFCURVE",
"152 1176 OFFCURVE",
"152 1020 CURVE SMOOTH",
"152 849 OFFCURVE",
"232 752 OFFCURVE",
"369 752 CURVE SMOOTH"
);
},
{
closed = 1;
nodes = (
"385 903 OFFCURVE",
"356 940 OFFCURVE",
"356 1014 CURVE SMOOTH",
"356 1173 OFFCURVE",
"433 1325 OFFCURVE",
"530 1325 CURVE SMOOTH",
"589 1325 OFFCURVE",
"618 1290 OFFCURVE",
"618 1219 CURVE SMOOTH",
"618 1168 OFFCURVE",
"609 1117 OFFCURVE",
"592 1065 CURVE SMOOTH",
"556 960 OFFCURVE",
"502 903 OFFCURVE",
"442 903 CURVE SMOOTH"
);
}
);
width = 772;
}
);
note = ordfeminine;
unicode = 00AA;
},
{
glyphname = guillemotleft;
lastChange = "2017-02-21 05:28:43 +0000";
layers = (
{
layerId = "334C7BAA-C7B0-45C9-BED5-5E40ABBE215F";
paths = (
{
closed = 1;
nodes = (
"274 90 LINE",
"520 193 LINE",
"385 543 LINE",
"664 877 LINE",
"473 1032 LINE",
"72 569 LINE",
"72 551 LINE"
);
},
{
closed = 1;
nodes = (
"762 90 LINE",
"1008 193 LINE",
"872 543 LINE",
"1151 877 LINE",
"961 1032 LINE",
"559 569 LINE",
"559 551 LINE"
);
}
);
width = 1151;
}
);
note = guillemotleft;
unicode = 00AB;
},
{
glyphname = logicalnot;
lastChange = "2017-02-21 05:28:43 +0000";
layers = (
{
layerId = "334C7BAA-C7B0-45C9-BED5-5E40ABBE215F";
paths = (
{
closed = 1;
nodes = (
"109 831 LINE",
"109 612 LINE",
"842 612 LINE",
"842 248 LINE",
"1061 248 LINE",
"1061 831 LINE"
);
}
);
width = 1128;
}
);
note = logicalnot;
unicode = 00AC;
},
{
glyphname = registered;
lastChange = "2017-02-21 05:28:43 +0000";
layers = (
{
layerId = "334C7BAA-C7B0-45C9-BED5-5E40ABBE215F";
paths = (
{
closed = 1;
nodes = (
"1237 1076 OFFCURVE",
"1110 1167 OFFCURVE",
"879 1167 CURVE SMOOTH",
"571 1167 LINE",
"571 293 LINE",
"801 293 LINE",
"801 590 LINE",
"868 590 LINE",
"1006 293 LINE",
"1260 293 LINE",
"1063 653 LINE",
"1178 697 OFFCURVE",
"1237 784 OFFCURVE",
"1237 899 CURVE SMOOTH"
);
},
{
closed = 1;
nodes = (
"854 999 LINE SMOOTH",
"962 999 OFFCURVE",
"1006 960 OFFCURVE",
"1006 881 CURVE SMOOTH",
"1006 800 OFFCURVE",
"948 758 OFFCURVE",
"852 758 CURVE SMOOTH",
"801 758 LINE",
"801 999 LINE"
);
},
{
closed = 1;
nodes = (
"125 599 OFFCURVE",
"158 475 OFFCURVE",
"223 360 CURVE SMOOTH",
"353 129 OFFCURVE",
"601 -20 OFFCURVE",
"877 -20 CURVE SMOOTH",
"1014 -20 OFFCURVE",
"1141 14 OFFCURVE",
"1257 82 CURVE SMOOTH",
"1489 218 OFFCURVE",
"1628 466 OFFCURVE",
"1628 731 CURVE SMOOTH",
"1628 865 OFFCURVE",
"1594 991 OFFCURVE",
"1527 1109 CURVE SMOOTH",
"1391 1344 OFFCURVE",
"1142 1483 OFFCURVE",
"877 1483 CURVE SMOOTH",
"742 1483 OFFCURVE",
"617 1449 OFFCURVE",
"500 1382 CURVE SMOOTH",
"267 1247 OFFCURVE",
"125 998 OFFCURVE",
"125 731 CURVE SMOOTH"
);
},
{
closed = 1;
nodes = (
"266 840 OFFCURVE",
"293 941 OFFCURVE",
"347 1035 CURVE SMOOTH",
"455 1223 OFFCURVE",
"658 1341 OFFCURVE",
"877 1341 CURVE SMOOTH",
"988 1341 OFFCURVE",
"1090 1313 OFFCURVE",
"1185 1258 CURVE SMOOTH",
"1373 1147 OFFCURVE",
"1487 948 OFFCURVE",
"1487 731 CURVE SMOOTH",
"1487 622 OFFCURVE",
"1460 521 OFFCURVE",
"1407 428 CURVE SMOOTH",
"1299 240 OFFCURVE",
"1100 121 OFFCURVE",
"877 121 CURVE SMOOTH",
"768 121 OFFCURVE",
"667 148 OFFCURVE",
"572 203 CURVE SMOOTH",
"382 312 OFFCURVE",
"266 512 OFFCURVE",
"266 731 CURVE SMOOTH"
);
}
);
width = 1704;
}
);
note = registered;
unicode = 00AE;
},
{
glyphname = overscore;
lastChange = "2017-02-21 05:28:43 +0000";
layers = (
{
layerId = "334C7BAA-C7B0-45C9-BED5-5E40ABBE215F";
paths = (
{
closed = 1;
nodes = (
"39 1757 LINE",
"-6 1556 LINE",
"1030 1556 LINE",
"1075 1757 LINE"
);
}
);
width = 1024;
}
);
note = overscore;
unicode = 00AF;
},
{
glyphname = degree;
lastChange = "2017-02-21 05:28:43 +0000";
layers = (
{
layerId = "334C7BAA-C7B0-45C9-BED5-5E40ABBE215F";
paths = (
{
closed = 1;
nodes = (
"164 1074 OFFCURVE",
"180 1016 OFFCURVE",
"211 963 CURVE SMOOTH",
"273 856 OFFCURVE",
"386 793 OFFCURVE",
"510 793 CURVE SMOOTH",
"573 793 OFFCURVE",
"631 808 OFFCURVE",
"684 839 CURVE SMOOTH",
"791 899 OFFCURVE",
"856 1013 OFFCURVE",
"856 1137 CURVE SMOOTH",
"856 1198 OFFCURVE",
"841 1256 OFFCURVE",
"810 1309 CURVE SMOOTH",
"749 1416 OFFCURVE",
"634 1483 OFFCURVE",
"510 1483 CURVE SMOOTH",
"449 1483 OFFCURVE",
"392 1468 OFFCURVE",
"338 1437 CURVE SMOOTH",
"230 1376 OFFCURVE",
"164 1261 OFFCURVE",
"164 1137 CURVE SMOOTH"
);
},
{
closed = 1;
nodes = (
"354 1220 OFFCURVE",
"423 1294 OFFCURVE",
"510 1294 CURVE SMOOTH",
"597 1294 OFFCURVE",
"666 1221 OFFCURVE",
"666 1137 CURVE SMOOTH",
"666 1054 OFFCURVE",
"598 983 OFFCURVE",
"510 983 CURVE SMOOTH",
"423 983 OFFCURVE",
"354 1053 OFFCURVE",
"354 1137 CURVE SMOOTH"
);
}
);
width = 877;
}
);
note = degree;
unicode = 00B0;
},
{
glyphname = plusminus;
lastChange = "2017-02-21 05:28:43 +0000";
layers = (
{
layerId = "334C7BAA-C7B0-45C9-BED5-5E40ABBE215F";
paths = (
{
closed = 1;
nodes = (
"694 309 LINE",
"694 674 LINE",
"1061 674 LINE",
"1061 893 LINE",
"694 893 LINE",
"694 1262 LINE",
"475 1262 LINE",
"475 893 LINE",
"109 893 LINE",
"109 674 LINE",
"475 674 LINE",
"475 309 LINE"
);
},
{
closed = 1;
nodes = (
"1061 219 LINE",
"109 219 LINE",
"109 0 LINE",
"1061 0 LINE"
);
}
);
width = 1128;
}
);
note = plusminus;
unicode = 00B1;
},
{
glyphname = twosuperior;
lastChange = "2017-02-21 05:28:43 +0000";
layers = (
{
layerId = "334C7BAA-C7B0-45C9-BED5-5E40ABBE215F";
paths = (
{
closed = 1;
nodes = (
"401 786 LINE",
"530 881 LINE SMOOTH",
"624 949 OFFCURVE",
"687 1000 OFFCURVE",
"719 1034 CURVE SMOOTH",
"783 1101 OFFCURVE",
"811 1167 OFFCURVE",
"811 1260 CURVE SMOOTH",
"811 1389 OFFCURVE",
"705 1483 OFFCURVE",
"541 1483 CURVE SMOOTH",
"394 1483 OFFCURVE",
"292 1442 OFFCURVE",
"193 1366 CURVE",
"293 1208 LINE",
"361 1263 OFFCURVE",
"424 1290 OFFCURVE",
"481 1290 CURVE SMOOTH",
"528 1290 OFFCURVE",
"567 1264 OFFCURVE",
"567 1208 CURVE SMOOTH",
"567 1171 OFFCURVE",
"548 1134 OFFCURVE",
"508 1093 CURVE SMOOTH",
"488 1072 OFFCURVE",
"441 1032 OFFCURVE",
"367 971 CURVE SMOOTH",
"94 752 LINE",
"59 586 LINE",
"707 586 LINE",
"748 786 LINE"
);
}
);
width = 776;
}
);
note = twosuperior;
unicode = 00B2;
},
{
glyphname = threesuperior;
lastChange = "2017-02-21 05:28:43 +0000";
layers = (
{
layerId = "334C7BAA-C7B0-45C9-BED5-5E40ABBE215F";
paths = (
{
closed = 1;
nodes = (
"813 1403 OFFCURVE",
"703 1481 OFFCURVE",
"530 1481 CURVE SMOOTH",
"416 1481 OFFCURVE",
"312 1450 OFFCURVE",
"217 1389 CURVE",
"299 1239 LINE",
"367 1283 OFFCURVE",
"430 1305 OFFCURVE",
"487 1305 CURVE SMOOTH",
"547 1305 OFFCURVE",
"584 1278 OFFCURVE",
"584 1225 CURVE SMOOTH",
"584 1149 OFFCURVE",
"515 1112 OFFCURVE",
"403 1112 CURVE SMOOTH",
"313 1112 LINE",
"279 952 LINE",
"406 952 LINE SMOOTH",
"489 952 OFFCURVE",
"520 913 OFFCURVE",
"520 864 CURVE SMOOTH",
"520 787 OFFCURVE",
"447 745 OFFCURVE",
"346 745 CURVE SMOOTH",
"260 745 OFFCURVE",
"175 769 OFFCURVE",
"92 817 CURVE",
"92 625 LINE",
"159 592 OFFCURVE",
"258 569 OFFCURVE",
"358 569 CURVE SMOOTH",
"595 569 OFFCURVE",
"750 681 OFFCURVE",
"750 856 CURVE SMOOTH",
"750 951 OFFCURVE",
"699 1010 OFFCURVE",
"596 1032 CURVE",
"596 1036 LINE",
"749 1076 OFFCURVE",
"813 1154 OFFCURVE",
"813 1270 CURVE SMOOTH"
);
}
);
width = 776;
}
);
note = threesuperior;
unicode = 00B3;
},
{
glyphname = acute;
lastChange = "2017-02-21 05:28:43 +0000";
layers = (
{
layerId = "334C7BAA-C7B0-45C9-BED5-5E40ABBE215F";
paths = (
{
closed = 1;
nodes = (
"692 1241 LINE",
"807 1324 OFFCURVE",
"979 1477 OFFCURVE",
"1040 1552 CURVE",
"1040 1569 LINE",
"705 1569 LINE",
"610 1426 OFFCURVE",
"536 1325 OFFCURVE",
"483 1266 CURVE",
"483 1241 LINE"
);
}
);
width = 1135;
}
);
note = acute;
unicode = 00B4;
},
{
glyphname = mu;
lastChange = "2017-02-21 05:28:43 +0000";
layers = (
{
layerId = "334C7BAA-C7B0-45C9-BED5-5E40ABBE215F";
paths = (
{
closed = 1;
nodes = (
"424 385 OFFCURVE",
"429 426 OFFCURVE",
"440 473 CURVE SMOOTH",
"575 1118 LINE",
"274 1118 LINE",
"-68 -492 LINE",
"236 -492 LINE",
"282 -274 OFFCURVE",
"310 -141 OFFCURVE",
"319 -92 CURVE SMOOTH",
"328 -43 OFFCURVE",
"335 3 OFFCURVE",
"340 47 CURVE",
"346 47 LINE",
"373 10 OFFCURVE",
"426 -20 OFFCURVE",
"494 -20 CURVE SMOOTH",
"593 -20 OFFCURVE",
"682 45 OFFCURVE",
"760 176 CURVE",
"766 176 LINE",
"748 0 LINE",
"977 0 LINE",
"1214 1118 LINE",
"913 1118 LINE",
"815 649 LINE SMOOTH",
"785 507 OFFCURVE",
"746 401 OFFCURVE",
"698 330 CURVE SMOOTH",
"649 259 OFFCURVE",
"595 223 OFFCURVE",
"535 223 CURVE SMOOTH",
"471 223 OFFCURVE",
"424 268 OFFCURVE",
"424 348 CURVE SMOOTH"
);
}
);
width = 1249;
}
);
note = mu;
unicode = 00B5;
},
{
glyphname = paragraph;
lastChange = "2017-02-21 05:28:43 +0000";
layers = (
{
layerId = "334C7BAA-C7B0-45C9-BED5-5E40ABBE215F";
paths = (
{
closed = 1;
nodes = (
"598 1556 LINE SMOOTH",
"283 1556 OFFCURVE",
"147 1383 OFFCURVE",
"147 1042 CURVE SMOOTH",
"147 707 OFFCURVE",
"279 541 OFFCURVE",
"567 541 CURVE SMOOTH",
"623 541 OFFCURVE",
"672 547 OFFCURVE",
"713 559 CURVE",
"713 -260 LINE",
"874 -260 LINE",
"874 1356 LINE",
"1040 1356 LINE",
"1040 -260 LINE",
"1202 -260 LINE",
"1202 1556 LINE"
);
}
);
width = 1341;
}
);
note = paragraph;
unicode = 00B6;
},
{
glyphname = cedilla;
lastChange = "2017-02-21 05:28:43 +0000";
layers = (
{
layerId = "334C7BAA-C7B0-45C9-BED5-5E40ABBE215F";
paths = (
{
closed = 1;
nodes = (
"262 -164 OFFCURVE",
"215 -105 OFFCURVE",
"121 -72 CURVE",
"160 0 LINE",
"-25 0 LINE",
"-121 -154 LINE",
"-68 -160 OFFCURVE",
"-32 -170 OFFCURVE",
"-11 -185 CURVE SMOOTH",
"10 -200 OFFCURVE",
"20 -219 OFFCURVE",
"20 -242 CURVE SMOOTH",
"20 -297 OFFCURVE",
"-14 -324 OFFCURVE",
"-82 -324 CURVE SMOOTH",
"-123 -324 OFFCURVE",
"-165 -316 OFFCURVE",
"-207 -301 CURVE",
"-207 -469 LINE",
"-163 -484 OFFCURVE",
"-112 -492 OFFCURVE",
"-55 -492 CURVE SMOOTH",
"146 -492 OFFCURVE",
"262 -405 OFFCURVE",
"262 -250 CURVE SMOOTH"
);
}
);
width = 420;
}
);
note = cedilla;
unicode = 00B8;
},
{
glyphname = onesuperior;
lastChange = "2017-02-21 05:28:43 +0000";
layers = (
{
layerId = "334C7BAA-C7B0-45C9-BED5-5E40ABBE215F";
paths = (
{
closed = 1;
nodes = (
"231 1049 LINE",
"362 1130 LINE",
"405 1160 OFFCURVE",
"431 1180 OFFCURVE",
"442 1190 CURVE",
"421 1125 OFFCURVE",
"403 1056 OFFCURVE",
"387 983 CURVE SMOOTH",
"303 586 LINE",
"549 586 LINE",
"735 1462 LINE",
"528 1462 LINE",
"129 1214 LINE"
);
}
);
width = 776;
}
);
note = onesuperior;
unicode = 00B9;
},
{
glyphname = ordmasculine;
lastChange = "2017-02-21 05:28:43 +0000";
layers = (
{
layerId = "334C7BAA-C7B0-45C9-BED5-5E40ABBE215F";
paths = (
{
closed = 1;
nodes = (
"809 1378 OFFCURVE",
"715 1479 OFFCURVE",
"543 1479 CURVE SMOOTH",
"312 1479 OFFCURVE",
"162 1301 OFFCURVE",
"162 1038 CURVE SMOOTH",
"162 857 OFFCURVE",
"253 752 OFFCURVE",
"432 752 CURVE SMOOTH",
"507 752 OFFCURVE",
"572 770 OFFCURVE",
"628 805 CURVE SMOOTH",
"740 875 OFFCURVE",
"809 1023 OFFCURVE",
"809 1194 CURVE SMOOTH"
);
},
{
closed = 1;
nodes = (
"573 1315 OFFCURVE",
"598 1279 OFFCURVE",
"598 1208 CURVE SMOOTH",
"598 1045 OFFCURVE",
"535 915 OFFCURVE",
"451 915 CURVE SMOOTH",
"398 915 OFFCURVE",
"371 952 OFFCURVE",
"371 1026 CURVE SMOOTH",
"371 1173 OFFCURVE",
"437 1315 OFFCURVE",
"522 1315 CURVE SMOOTH"
);
}
);
width = 754;
}
);
note = ordmasculine;
unicode = 00BA;
},
{
glyphname = guillemotright;
lastChange = "2017-02-21 05:28:43 +0000";
layers = (
{
layerId = "334C7BAA-C7B0-45C9-BED5-5E40ABBE215F";
paths = (
{
closed = 1;
nodes = (
"877 1014 LINE",
"631 911 LINE",
"766 561 LINE",
"487 227 LINE",
"678 72 LINE",
"1079 535 LINE",
"1079 553 LINE"
);
},
{
closed = 1;
nodes = (
"389 1014 LINE",
"143 911 LINE",
"279 561 LINE",
"0 227 LINE",
"190 72 LINE",
"592 535 LINE",
"592 553 LINE"
);
}
);
width = 1151;
}
);
note = guillemotright;
unicode = 00BB;
},
{
glyphname = onequarter;
lastChange = "2017-04-22 21:36:34 +0000";
layers = (
{
layerId = "334C7BAA-C7B0-45C9-BED5-5E40ABBE215F";
paths = (
{
closed = 1;
nodes = (
"495 0 LINE",
"734 0 LINE",
"1818 1462 LINE",
"1582 1462 LINE"
);
},
{
closed = 1;
nodes = (
"487 1049 LINE",
"618 1130 LINE",
"661 1160 OFFCURVE",
"687 1180 OFFCURVE",
"698 1190 CURVE",
"677 1125 OFFCURVE",
"659 1056 OFFCURVE",
"643 983 CURVE SMOOTH",
"559 586 LINE",
"805 586 LINE",
"991 1462 LINE",
"784 1462 LINE",
"385 1214 LINE"
);
},
{
closed = 1;
nodes = (
"1771 319 LINE",
"1892 882 LINE",
"1632 882 LINE",
"1157 325 LINE",
"1126 151 LINE",
"1499 151 LINE",
"1466 0 LINE",
"1704 0 LINE",
"1736 151 LINE",
"1855 151 LINE",
"1890 319 LINE"
);
},
{
closed = 1;
nodes = (
"1481 458 OFFCURVE",
"1551 541 OFFCURVE",
"1571 566 CURVE SMOOTH",
"1591 591 OFFCURVE",
"1605 611 OFFCURVE",
"1614 624 CURVE",
"1592 550 LINE",
"1534 319 LINE",
"1360 319 LINE"
);
}
);
width = 1808;
}
);
note = onequarter;
unicode = 00BC;
},
{
glyphname = onehalf;
lastChange = "2017-04-22 21:38:45 +0000";
layers = (
{
layerId = "334C7BAA-C7B0-45C9-BED5-5E40ABBE215F";
paths = (
{
closed = 1;
nodes = (
"1276 200 LINE",
"1405 295 LINE SMOOTH",
"1498 364 OFFCURVE",
"1562 414 OFFCURVE",
"1594 448 CURVE SMOOTH",
"1658 515 OFFCURVE",
"1686 581 OFFCURVE",
"1686 674 CURVE SMOOTH",
"1686 803 OFFCURVE",
"1580 897 OFFCURVE",
"1416 897 CURVE SMOOTH",
"1269 897 OFFCURVE",
"1167 856 OFFCURVE",
"1068 780 CURVE",
"1168 622 LINE",
"1236 677 OFFCURVE",
"1299 704 OFFCURVE",
"1356 704 CURVE SMOOTH",
"1403 704 OFFCURVE",
"1442 678 OFFCURVE",
"1442 622 CURVE SMOOTH",
"1442 585 OFFCURVE",
"1423 548 OFFCURVE",
"1383 507 CURVE SMOOTH",
"1363 486 OFFCURVE",
"1317 445 OFFCURVE",
"1242 385 CURVE SMOOTH",
"969 166 LINE",
"934 0 LINE",
"1582 0 LINE",
"1623 200 LINE"
);
},
{
closed = 1;
nodes = (
"149 1049 LINE",
"280 1130 LINE",
"323 1160 OFFCURVE",
"349 1180 OFFCURVE",
"360 1190 CURVE",
"339 1125 OFFCURVE",
"320 1056 OFFCURVE",
"305 983 CURVE SMOOTH",
"221 586 LINE",
"467 586 LINE",
"653 1462 LINE",
"446 1462 LINE",
"47 1214 LINE"
);
},
{
closed = 1;
nodes = (
"152 0 LINE",
"391 0 LINE",
"1475 1462 LINE",
"1239 1462 LINE"
);
}
);
width = 1808;
}
);
note = onehalf;
unicode = 00BD;
},
{
glyphname = threequarters;
lastChange = "2017-04-22 21:38:16 +0000";
layers = (
{
layerId = "334C7BAA-C7B0-45C9-BED5-5E40ABBE215F";
paths = (
{
closed = 1;
nodes = (
"465 0 LINE",
"704 0 LINE",
"1788 1462 LINE",
"1552 1462 LINE"
);
},
{
closed = 1;
nodes = (
"1664 319 LINE",
"1785 882 LINE",
"1525 882 LINE",
"1050 325 LINE",
"1019 151 LINE",
"1392 151 LINE",
"1359 0 LINE",
"1597 0 LINE",
"1629 151 LINE",
"1748 151 LINE",
"1783 319 LINE"
);
},
{
closed = 1;
nodes = (
"1374 458 OFFCURVE",
"1444 541 OFFCURVE",
"1464 566 CURVE SMOOTH",
"1484 591 OFFCURVE",
"1498 611 OFFCURVE",
"1507 624 CURVE",
"1485 550 LINE",
"1427 319 LINE",
"1253 319 LINE"
);
},
{
closed = 1;
nodes = (
"1015 1403 OFFCURVE",
"905 1481 OFFCURVE",
"732 1481 CURVE SMOOTH",
"618 1481 OFFCURVE",
"514 1450 OFFCURVE",
"419 1389 CURVE",
"501 1239 LINE",
"569 1283 OFFCURVE",
"632 1305 OFFCURVE",
"689 1305 CURVE SMOOTH",
"749 1305 OFFCURVE",
"786 1278 OFFCURVE",
"786 1225 CURVE SMOOTH",
"786 1149 OFFCURVE",
"717 1112 OFFCURVE",
"605 1112 CURVE SMOOTH",
"515 1112 LINE",
"481 952 LINE",
"608 952 LINE SMOOTH",
"691 952 OFFCURVE",
"722 913 OFFCURVE",
"722 864 CURVE SMOOTH",
"722 787 OFFCURVE",
"649 745 OFFCURVE",
"548 745 CURVE SMOOTH",
"462 745 OFFCURVE",
"377 769 OFFCURVE",
"294 817 CURVE",
"294 625 LINE",
"361 592 OFFCURVE",
"460 569 OFFCURVE",
"560 569 CURVE SMOOTH",
"797 569 OFFCURVE",
"952 681 OFFCURVE",
"952 856 CURVE SMOOTH",
"952 951 OFFCURVE",
"901 1010 OFFCURVE",
"798 1032 CURVE",
"798 1036 LINE",
"951 1076 OFFCURVE",
"1015 1154 OFFCURVE",
"1015 1270 CURVE SMOOTH"
);
}
);
width = 1808;
}
);
note = threequarters;
unicode = 00BE;
},
{
glyphname = questiondown;
lastChange = "2017-02-21 05:28:43 +0000";
layers = (
{
layerId = "334C7BAA-C7B0-45C9-BED5-5E40ABBE215F";
paths = (
{
closed = 1;
nodes = (
"412 573 LINE SMOOTH",
"391 490 OFFCURVE",
"357 443 OFFCURVE",
"233 360 CURVE SMOOTH",
"144 301 OFFCURVE",
"81 252 OFFCURVE",
"44 214 CURVE SMOOTH",
"-29 137 OFFCURVE",
"-68 50 OFFCURVE",
"-68 -59 CURVE SMOOTH",
"-68 -268 OFFCURVE",
"79 -391 OFFCURVE",
"315 -391 CURVE SMOOTH",
"464 -391 OFFCURVE",
"613 -349 OFFCURVE",
"760 -266 CURVE",
"668 -45 LINE",
"571 -90 OFFCURVE",
"504 -118 OFFCURVE",
"467 -129 CURVE SMOOTH",
"429 -140 OFFCURVE",
"393 -145 OFFCURVE",
"360 -145 CURVE SMOOTH",
"271 -145 OFFCURVE",
"227 -106 OFFCURVE",
"227 -27 CURVE SMOOTH",
"227 10 OFFCURVE",
"239 42 OFFCURVE",
"262 71 CURVE SMOOTH",
"285 100 OFFCURVE",
"337 142 OFFCURVE",
"418 197 CURVE SMOOTH",
"567 298 OFFCURVE",
"639 388 OFFCURVE",
"664 528 CURVE SMOOTH",
"678 606 LINE",
"420 606 LINE"
);
},
{
closed = 1;
nodes = (
"772 1066 OFFCURVE",
"713 1118 OFFCURVE",
"616 1118 CURVE SMOOTH",
"497 1118 OFFCURVE",
"418 1039 OFFCURVE",
"418 924 CURVE SMOOTH",
"418 831 OFFCURVE",
"476 778 OFFCURVE",
"567 778 CURVE SMOOTH",
"692 778 OFFCURVE",
"772 854 OFFCURVE",
"772 977 CURVE SMOOTH"
);
}
);
width = 940;
}
);
note = questiondown;
unicode = 00BF;
},
{
glyphname = AE;
lastChange = "2017-06-04 18:15:06 +0000";
layers = (
{
anchors = (
{
name = bottom;
position = "{798, 0}";
},
{
name = top;
position = "{1109, 1462}";
}
);
layerId = "334C7BAA-C7B0-45C9-BED5-5E40ABBE215F";
paths = (
{
closed = 1;
nodes = (
"1135 256 LINE",
"1214 633 LINE",
"1692 633 LINE",
"1747 887 LINE",
"1270 887 LINE",
"1337 1208 LINE",
"1849 1208 LINE",
"1903 1462 LINE",
"799 1462 LINE",
"-123 0 LINE",
"205 0 LINE",
"424 348 LINE",
"850 348 LINE",
"776 0 LINE",
"1593 0 LINE",
"1647 256 LINE"
);
},
{
closed = 1;
nodes = (
"952 1208 LINE",
"1032 1208 LINE",
"905 608 LINE",
"588 608 LINE"
);
}
);
width = 1833;
}
);
note = AE;
unicode = 00C6;
},
{
glyphname = Eth;
lastChange = "2017-02-21 05:28:43 +0000";
layers = (
{
layerId = "334C7BAA-C7B0-45C9-BED5-5E40ABBE215F";
paths = (
{
closed = 1;
nodes = (
"1323 1265 OFFCURVE",
"1118 1462 OFFCURVE",
"758 1462 CURVE SMOOTH",
"362 1462 LINE",
"231 850 LINE",
"92 850 LINE",
"37 596 LINE",
"178 596 LINE",
"53 0 LINE",
"504 0 LINE SMOOTH",
"672 0 OFFCURVE",
"818 36 OFFCURVE",
"942 108 CURVE SMOOTH",
"1189 252 OFFCURVE",
"1323 536 OFFCURVE",
"1323 909 CURVE SMOOTH"
);
},
{
closed = 1;
nodes = (
"483 596 LINE",
"721 596 LINE",
"776 850 LINE",
"539 850 LINE",
"614 1208 LINE",
"729 1208 LINE SMOOTH",
"910 1208 OFFCURVE",
"1010 1098 OFFCURVE",
"1010 893 CURVE SMOOTH",
"1010 766 OFFCURVE",
"989 654 OFFCURVE",
"948 556 CURVE SMOOTH",
"865 359 OFFCURVE",
"715 256 OFFCURVE",
"518 256 CURVE SMOOTH",
"412 256 LINE"
);
}
);
width = 1386;
}
);
note = Eth;
unicode = 00D0;
},
{
glyphname = multiply;
lastChange = "2017-02-21 05:28:43 +0000";
layers = (
{
layerId = "334C7BAA-C7B0-45C9-BED5-5E40ABBE215F";
paths = (
{
closed = 1;
nodes = (
"281 270 LINE",
"582 569 LINE",
"887 268 LINE",
"1036 420 LINE",
"735 723 LINE",
"1040 1028 LINE",
"887 1178 LINE",
"582 879 LINE",
"281 1178 LINE",
"129 1024 LINE",
"428 723 LINE",
"131 422 LINE"
);
}
);
width = 1128;
}
);
note = multiply;
unicode = 00D7;
},
{
glyphname = Oslash;
lastChange = "2017-06-04 18:15:06 +0000";
layers = (
{
anchors = (
{
name = bottom;
position = "{629, 0}";
},
{
name = top;
position = "{940, 1462}";
}
);
layerId = "334C7BAA-C7B0-45C9-BED5-5E40ABBE215F";
paths = (
{
closed = 1;
nodes = (
"1432 1075 OFFCURVE",
"1402 1189 OFFCURVE",
"1341 1278 CURVE",
"1458 1423 LINE",
"1307 1540 LINE",
"1202 1409 LINE",
"1120 1460 OFFCURVE",
"1018 1485 OFFCURVE",
"897 1485 CURVE SMOOTH",
"745 1485 OFFCURVE",
"611 1445 OFFCURVE",
"495 1366 CURVE SMOOTH",
"263 1207 OFFCURVE",
"123 890 OFFCURVE",
"123 537 CURVE SMOOTH",
"123 391 OFFCURVE",
"156 272 OFFCURVE",
"221 180 CURVE",
"100 29 LINE",
"254 -86 LINE",
"362 51 LINE",
"445 4 OFFCURVE",
"546 -20 OFFCURVE",
"666 -20 CURVE SMOOTH",
"815 -20 OFFCURVE",
"947 18 OFFCURVE",
"1062 94 CURVE SMOOTH",
"1291 246 OFFCURVE",
"1432 561 OFFCURVE",
"1432 938 CURVE SMOOTH"
);
},
{
closed = 1;
nodes = (
"929 1233 OFFCURVE",
"982 1219 OFFCURVE",
"1028 1190 CURVE",
"432 436 LINE",
"427 482 OFFCURVE",
"424 516 OFFCURVE",
"424 537 CURVE SMOOTH",
"424 664 OFFCURVE",
"443 782 OFFCURVE",
"481 889 CURVE SMOOTH",
"557 1104 OFFCURVE",
"702 1233 OFFCURVE",
"870 1233 CURVE SMOOTH"
);
},
{
closed = 1;
nodes = (
"1133 795 OFFCURVE",
"1114 675 OFFCURVE",
"1077 570 CURVE SMOOTH",
"1001 358 OFFCURVE",
"857 233 OFFCURVE",
"692 233 CURVE SMOOTH",
"629 233 OFFCURVE",
"578 245 OFFCURVE",
"539 270 CURVE",
"1128 1010 LINE",
"1133 930 LINE"
);
}
);
width = 1495;
}
);
note = Oslash;
unicode = 00D8;
},
{
glyphname = Thorn;
lastChange = "2017-06-04 18:15:06 +0000";
layers = (
{
anchors = (
{
name = bottom;
position = "{475, 0}";
},
{
name = top;
position = "{786, 1462}";
}
);
layerId = "334C7BAA-C7B0-45C9-BED5-5E40ABBE215F";
paths = (
{
closed = 1;
nodes = (
"1143 1091 OFFCURVE",
"976 1233 OFFCURVE",
"653 1233 CURVE SMOOTH",
"618 1233 LINE",
"668 1462 LINE",
"362 1462 LINE",
"53 0 LINE",
"358 0 LINE",
"420 293 LINE",
"506 293 LINE SMOOTH",
"901 293 OFFCURVE",
"1143 483 OFFCURVE",
"1143 807 CURVE SMOOTH"
);
},
{
closed = 1;
nodes = (
"641 979 LINE SMOOTH",
"771 979 OFFCURVE",
"836 919 OFFCURVE",
"836 799 CURVE SMOOTH",
"836 640 OFFCURVE",
"715 547 OFFCURVE",
"530 547 CURVE SMOOTH",
"475 547 LINE",
"567 979 LINE"
);
}
);
width = 1188;
}
);
note = Thorn;
unicode = 00DE;
},
{
glyphname = germandbls;
lastChange = "2017-06-04 18:15:06 +0000";
layers = (
{
anchors = (
{
name = bottom;
position = "{556, 0}";
},
{
name = top;
position = "{794, 1118}";
}
);
layerId = "334C7BAA-C7B0-45C9-BED5-5E40ABBE215F";
paths = (
{
closed = 1;
nodes = (
"513 1567 OFFCURVE",
"342 1438 OFFCURVE",
"279 1139 CURVE SMOOTH",
"25 -68 LINE SMOOTH",
"0 -187 OFFCURVE",
"-56 -246 OFFCURVE",
"-145 -246 CURVE SMOOTH",
"-181 -246 OFFCURVE",
"-219 -239 OFFCURVE",
"-260 -225 CURVE",
"-260 -467 LINE",
"-213 -484 OFFCURVE",
"-160 -492 OFFCURVE",
"-100 -492 CURVE SMOOTH",
"131 -492 OFFCURVE",
"267 -377 OFFCURVE",
"324 -113 CURVE SMOOTH",
"578 1106 LINE SMOOTH",
"611 1266 OFFCURVE",
"691 1329 OFFCURVE",
"819 1329 CURVE SMOOTH",
"932 1329 OFFCURVE",
"983 1277 OFFCURVE",
"983 1194 CURVE SMOOTH",
"983 1118 OFFCURVE",
"928 1071 OFFCURVE",
"840 1022 CURVE SMOOTH",
"684 934 OFFCURVE",
"633 862 OFFCURVE",
"633 750 CURVE SMOOTH",
"633 659 OFFCURVE",
"672 590 OFFCURVE",
"797 494 CURVE SMOOTH",
"852 453 OFFCURVE",
"888 420 OFFCURVE",
"906 397 CURVE SMOOTH",
"923 374 OFFCURVE",
"932 349 OFFCURVE",
"932 322 CURVE SMOOTH",
"932 251 OFFCURVE",
"872 203 OFFCURVE",
"737 203 CURVE SMOOTH",
"650 203 OFFCURVE",
"564 229 OFFCURVE",
"479 281 CURVE",
"479 41 LINE",
"552 0 OFFCURVE",
"651 -20 OFFCURVE",
"776 -20 CURVE SMOOTH",
"1061 -20 OFFCURVE",
"1237 123 OFFCURVE",
"1237 350 CURVE SMOOTH",
"1237 461 OFFCURVE",
"1198 540 OFFCURVE",
"1055 651 CURVE SMOOTH",
"1017 680 OFFCURVE",
"991 703 OFFCURVE",
"976 721 CURVE SMOOTH",
"961 738 OFFCURVE",
"954 755 OFFCURVE",
"954 770 CURVE SMOOTH",
"954 789 OFFCURVE",
"962 807 OFFCURVE",
"977 825 CURVE SMOOTH",
"992 842 OFFCURVE",
"1024 865 OFFCURVE",
"1073 893 CURVE SMOOTH",
"1245 992 OFFCURVE",
"1300 1085 OFFCURVE",
"1300 1237 CURVE SMOOTH",
"1300 1437 OFFCURVE",
"1123 1567 OFFCURVE",
"846 1567 CURVE SMOOTH"
);
}
);
width = 1350;
}
);
note = germandbls;
unicode = 00DF;
},
{
glyphname = ae;
lastChange = "2017-06-04 18:15:06 +0000";
layers = (
{
anchors = (
{
name = bottom;
position = "{774, 0}";
},
{
name = top;
position = "{1012, 1118}";
}
);
layerId = "334C7BAA-C7B0-45C9-BED5-5E40ABBE215F";
paths = (
{
closed = 1;
nodes = (
"1327 -20 OFFCURVE",
"1448 9 OFFCURVE",
"1567 66 CURVE",
"1567 293 LINE",
"1466 240 OFFCURVE",
"1341 207 OFFCURVE",
"1253 207 CURVE SMOOTH",
"1114 207 OFFCURVE",
"1038 278 OFFCURVE",
"1038 406 CURVE SMOOTH",
"1038 425 LINE",
"1040 444 LINE",
"1092 444 LINE SMOOTH",
"1504 444 OFFCURVE",
"1735 585 OFFCURVE",
"1735 834 CURVE SMOOTH",
"1735 1018 OFFCURVE",
"1608 1139 OFFCURVE",
"1399 1139 CURVE SMOOTH",
"1276 1139 OFFCURVE",
"1169 1093 OFFCURVE",
"1110 1028 CURVE",
"1128 1118 LINE",
"940 1118 LINE",
"883 975 LINE",
"877 975 LINE",
"810 1091 OFFCURVE",
"730 1139 OFFCURVE",
"602 1139 CURVE SMOOTH",
"507 1139 OFFCURVE",
"421 1105 OFFCURVE",
"344 1038 CURVE SMOOTH",
"188 902 OFFCURVE",
"90 652 OFFCURVE",
"90 385 CURVE SMOOTH",
"90 136 OFFCURVE",
"204 -20 OFFCURVE",
"399 -20 CURVE SMOOTH",
"522 -20 OFFCURVE",
"618 28 OFFCURVE",
"713 145 CURVE",
"719 145 LINE",
"705 0 LINE",
"893 0 LINE",
"909 94 LINE",
"972 14 OFFCURVE",
"1061 -20 OFFCURVE",
"1206 -20 CURVE SMOOTH"
);
},
{
closed = 1;
nodes = (
"441 223 OFFCURVE",
"395 287 OFFCURVE",
"395 399 CURVE SMOOTH",
"395 482 OFFCURVE",
"407 563 OFFCURVE",
"430 641 CURVE SMOOTH",
"477 796 OFFCURVE",
"562 895 OFFCURVE",
"653 895 CURVE SMOOTH",
"745 895 OFFCURVE",
"788 826 OFFCURVE",
"788 719 CURVE SMOOTH",
"788 634 OFFCURVE",
"776 553 OFFCURVE",
"751 476 CURVE SMOOTH",
"702 320 OFFCURVE",
"614 223 OFFCURVE",
"518 223 CURVE SMOOTH"
);
},
{
closed = 1;
nodes = (
"1411 922 OFFCURVE",
"1446 890 OFFCURVE",
"1446 827 CURVE SMOOTH",
"1446 716 OFFCURVE",
"1325 647 OFFCURVE",
"1118 647 CURVE SMOOTH",
"1073 647 LINE",
"1105 800 OFFCURVE",
"1224 922 OFFCURVE",
"1341 922 CURVE SMOOTH"
);
}
);
width = 1786;
}
);
note = ae;
unicode = 00E6;
},
{
glyphname = eth;
lastChange = "2017-02-21 05:28:43 +0000";
layers = (
{
layerId = "334C7BAA-C7B0-45C9-BED5-5E40ABBE215F";
paths = (
{
closed = 1;
nodes = (
"506 1049 LINE",
"737 1180 LINE",
"802 1115 OFFCURVE",
"841 1012 OFFCURVE",
"854 870 CURVE",
"848 870 LINE",
"787 954 OFFCURVE",
"693 995 OFFCURVE",
"582 995 CURVE SMOOTH",
"483 995 OFFCURVE",
"394 970 OFFCURVE",
"317 919 CURVE SMOOTH",
"162 818 OFFCURVE",
"72 626 OFFCURVE",
"72 406 CURVE SMOOTH",
"72 131 OFFCURVE",
"226 -20 OFFCURVE",
"514 -20 CURVE SMOOTH",
"640 -20 OFFCURVE",
"748 13 OFFCURVE",
"837 80 CURVE SMOOTH",
"1016 212 OFFCURVE",
"1110 463 OFFCURVE",
"1110 795 CURVE SMOOTH",
"1110 996 OFFCURVE",
"1073 1166 OFFCURVE",
"965 1309 CURVE",
"1157 1415 LINE",
"1081 1567 LINE",
"844 1436 LINE",
"779 1488 OFFCURVE",
"701 1534 OFFCURVE",
"612 1575 CURVE",
"494 1389 LINE",
"554 1358 OFFCURVE",
"595 1332 OFFCURVE",
"618 1309 CURVE",
"418 1196 LINE"
);
},
{
closed = 1;
nodes = (
"428 205 OFFCURVE",
"375 269 OFFCURVE",
"375 377 CURVE SMOOTH",
"375 448 OFFCURVE",
"386 514 OFFCURVE",
"407 574 CURVE SMOOTH",
"449 694 OFFCURVE",
"528 770 OFFCURVE",
"625 770 CURVE SMOOTH",
"718 770 OFFCURVE",
"772 705 OFFCURVE",
"772 602 CURVE SMOOTH",
"772 535 OFFCURVE",
"761 471 OFFCURVE",
"740 409 CURVE SMOOTH",
"696 285 OFFCURVE",
"616 205 OFFCURVE",
"528 205 CURVE SMOOTH"
);
}
);
width = 1182;
}
);
note = eth;
unicode = 00F0;
},
{
glyphname = divide;
lastChange = "2017-02-21 05:28:43 +0000";
layers = (
{
layerId = "334C7BAA-C7B0-45C9-BED5-5E40ABBE215F";
paths = (
{
closed = 1;
nodes = (
"1061 831 LINE",
"109 831 LINE",
"109 612 LINE",
"1061 612 LINE"
);
},
{
closed = 1;
nodes = (
"444 274 OFFCURVE",
"497 221 OFFCURVE",
"584 221 CURVE SMOOTH",
"671 221 OFFCURVE",
"723 280 OFFCURVE",
"723 373 CURVE SMOOTH",
"723 470 OFFCURVE",
"672 524 OFFCURVE",
"584 524 CURVE SMOOTH",
"496 524 OFFCURVE",
"444 474 OFFCURVE",
"444 373 CURVE SMOOTH"
);
},
{
closed = 1;
nodes = (
"444 974 OFFCURVE",
"497 920 OFFCURVE",
"584 920 CURVE SMOOTH",
"671 920 OFFCURVE",
"723 978 OFFCURVE",
"723 1071 CURVE SMOOTH",
"723 1166 OFFCURVE",
"673 1223 OFFCURVE",
"584 1223 CURVE SMOOTH",
"496 1223 OFFCURVE",
"444 1171 OFFCURVE",
"444 1071 CURVE SMOOTH"
);
}
);
width = 1128;
}
);
note = divide;
unicode = 00F7;
},
{
glyphname = oslash;
lastChange = "2017-06-04 18:15:06 +0000";
layers = (
{
anchors = (
{
name = top;
position = "{718, 1118}";
}
);
layerId = "334C7BAA-C7B0-45C9-BED5-5E40ABBE215F";
paths = (
{
closed = 1;
nodes = (
"1108 798 OFFCURVE",
"1086 885 OFFCURVE",
"1042 956 CURVE",
"1126 1061 LINE",
"981 1171 LINE",
"911 1083 LINE",
"847 1120 OFFCURVE",
"771 1139 OFFCURVE",
"684 1139 CURVE SMOOTH",
"563 1139 OFFCURVE",
"458 1109 OFFCURVE",
"368 1048 CURVE SMOOTH",
"188 926 OFFCURVE",
"90 694 OFFCURVE",
"90 410 CURVE SMOOTH",
"90 311 OFFCURVE",
"114 225 OFFCURVE",
"162 154 CURVE",
"43 6 LINE",
"184 -102 LINE",
"293 33 LINE",
"361 -2 OFFCURVE",
"436 -20 OFFCURVE",
"518 -20 CURVE SMOOTH",
"640 -20 OFFCURVE",
"745 10 OFFCURVE",
"834 70 CURVE SMOOTH",
"1011 189 OFFCURVE",
"1108 415 OFFCURVE",
"1108 696 CURVE SMOOTH"
);
},
{
closed = 1;
nodes = (
"697 903 OFFCURVE",
"727 895 OFFCURVE",
"750 879 CURVE",
"385 426 LINE",
"385 438 LINE SMOOTH",
"385 522 OFFCURVE",
"397 600 OFFCURVE",
"420 671 CURVE SMOOTH",
"466 814 OFFCURVE",
"554 903 OFFCURVE",
"662 903 CURVE SMOOTH"
);
},
{
closed = 1;
nodes = (
"508 215 OFFCURVE",
"472 227 OFFCURVE",
"457 238 CURVE",
"815 682 LINE",
"815 666 LINE SMOOTH",
"815 419 OFFCURVE",
"695 215 OFFCURVE",
"543 215 CURVE SMOOTH"
);
}
);
width = 1198;
}
);
note = oslash;
unicode = 00F8;
},
{
glyphname = thorn;
lastChange = "2017-06-04 18:15:06 +0000";
layers = (
{
anchors = (
{
name = bottom;
position = "{491, 0}";
},
{
name = top;
position = "{729, 1118}";
}
);
layerId = "334C7BAA-C7B0-45C9-BED5-5E40ABBE215F";
paths = (
{
closed = 1;
nodes = (
"712 1139 OFFCURVE",
"617 1082 OFFCURVE",
"530 969 CURVE",
"522 969 LINE",
"556 1068 OFFCURVE",
"583 1162 OFFCURVE",
"602 1249 CURVE SMOOTH",
"668 1556 LINE",
"367 1556 LINE",
"-68 -492 LINE",
"233 -492 LINE",
"305 -152 LINE SMOOTH",
"326 -61 OFFCURVE",
"340 37 OFFCURVE",
"348 143 CURVE",
"356 143 LINE",
"418 34 OFFCURVE",
"508 -20 OFFCURVE",
"627 -20 CURVE SMOOTH",
"718 -20 OFFCURVE",
"802 11 OFFCURVE",
"877 74 CURVE SMOOTH",
"1028 199 OFFCURVE",
"1128 466 OFFCURVE",
"1128 731 CURVE SMOOTH",
"1128 991 OFFCURVE",
"1013 1139 OFFCURVE",
"813 1139 CURVE SMOOTH"
);
},
{
closed = 1;
nodes = (
"770 895 OFFCURVE",
"823 836 OFFCURVE",
"823 719 CURVE SMOOTH",
"823 633 OFFCURVE",
"811 551 OFFCURVE",
"786 472 CURVE SMOOTH",
"736 314 OFFCURVE",
"651 223 OFFCURVE",
"559 223 CURVE SMOOTH",
"463 223 OFFCURVE",
"420 292 OFFCURVE",
"420 399 CURVE SMOOTH",
"420 484 OFFCURVE",
"432 566 OFFCURVE",
"457 646 CURVE SMOOTH",
"505 805 OFFCURVE",
"587 895 OFFCURVE",
"682 895 CURVE SMOOTH"
);
}
);
width = 1219;
}
);
note = thorn;
unicode = 00FE;
},
{
glyphname = dcroat;
lastChange = "2017-02-21 05:28:43 +0000";
layers = (
{
layerId = "334C7BAA-C7B0-45C9-BED5-5E40ABBE215F";
paths = (
{
closed = 1;
nodes = (
"503 1077 OFFCURVE",
"418 1048 OFFCURVE",
"343 990 CURVE SMOOTH",
"192 873 OFFCURVE",
"90 628 OFFCURVE",
"90 387 CURVE SMOOTH",
"90 127 OFFCURVE",
"213 -20 OFFCURVE",
"416 -20 CURVE SMOOTH",
"529 -20 OFFCURVE",
"622 25 OFFCURVE",
"725 145 CURVE",
"729 145 LINE",
"715 0 LINE",
"944 0 LINE",
"1196 1196 LINE",
"1352 1196 LINE",
"1393 1395 LINE",
"1239 1395 LINE",
"1274 1556 LINE",
"973 1556 LINE",
"938 1395 LINE",
"643 1395 LINE",
"602 1196 LINE",
"897 1196 LINE",
"881 1107 OFFCURVE",
"871 1045 OFFCURVE",
"868 1009 CURVE SMOOTH",
"864 973 OFFCURVE",
"862 946 OFFCURVE",
"862 928 CURVE",
"854 928 LINE",
"794 1035 OFFCURVE",
"713 1077 OFFCURVE",
"596 1077 CURVE SMOOTH"
);
},
{
closed = 1;
nodes = (
"449 223 OFFCURVE",
"395 282 OFFCURVE",
"395 399 CURVE SMOOTH",
"395 473 OFFCURVE",
"407 544 OFFCURVE",
"431 611 CURVE SMOOTH",
"478 746 OFFCURVE",
"564 834 OFFCURVE",
"659 834 CURVE SMOOTH",
"756 834 OFFCURVE",
"797 770 OFFCURVE",
"797 674 CURVE SMOOTH",
"797 602 OFFCURVE",
"784 529 OFFCURVE",
"759 454 CURVE SMOOTH",
"708 305 OFFCURVE",
"628 223 OFFCURVE",
"537 223 CURVE SMOOTH"
);
}
);
width = 1217;
}
);
note = dcroat;
unicode = 0111;
},
{
glyphname = Gcommaaccent;
lastChange = "2017-04-24 06:00:28 +0000";
layers = (
{
components = (
{
name = G;
}
);
layerId = "334C7BAA-C7B0-45C9-BED5-5E40ABBE215F";
paths = (
{
closed = 1;
nodes = (
"584 -453 LINE",
"676 -350 OFFCURVE",
"767 -228 OFFCURVE",
"811 -145 CURVE",
"811 -125 LINE",
"529 -125 LINE",
"504 -201 OFFCURVE",
"437 -358 OFFCURVE",
"404 -426 CURVE",
"404 -453 LINE"
);
}
);
width = 1413;
}
);
note = Gcommaaccent;
unicode = 0122;
},
{
glyphname = Hbar;
lastChange = "2017-02-21 05:28:43 +0000";
layers = (
{
layerId = "334C7BAA-C7B0-45C9-BED5-5E40ABBE215F";
paths = (
{
closed = 1;
nodes = (
"1139 1462 LINE",
"1098 1268 LINE",
"627 1268 LINE",
"668 1462 LINE",
"362 1462 LINE",
"322 1268 LINE",
"143 1268 LINE",
"102 1069 LINE",
"279 1069 LINE",
"53 0 LINE",
"358 0 LINE",
"492 631 LINE",
"963 631 LINE",
"829 0 LINE",
"1135 0 LINE",
"1360 1069 LINE",
"1540 1069 LINE",
"1581 1268 LINE",
"1403 1268 LINE",
"1444 1462 LINE"
);
},
{
closed = 1;
nodes = (
"584 1069 LINE",
"1055 1069 LINE",
"1018 889 LINE",
"547 889 LINE"
);
}
);
width = 1434;
}
);
note = Hbar;
unicode = 0126;
},
{
glyphname = hbar;
lastChange = "2017-02-21 05:28:43 +0000";
layers = (
{
layerId = "334C7BAA-C7B0-45C9-BED5-5E40ABBE215F";
paths = (
{
closed = 1;
nodes = (
"1113 643 OFFCURVE",
"1120 703 OFFCURVE",
"1120 756 CURVE SMOOTH",
"1120 960 OFFCURVE",
"1018 1077 OFFCURVE",
"831 1077 CURVE SMOOTH",
"698 1077 OFFCURVE",
"603 1011 OFFCURVE",
"520 907 CURVE",
"512 907 LINE",
"540 990 OFFCURVE",
"567 1087 OFFCURVE",
"592 1196 CURVE",
"891 1196 LINE",
"934 1395 LINE",
"635 1395 LINE",
"668 1556 LINE",
"367 1556 LINE",
"332 1395 LINE",
"172 1395 LINE",
"129 1196 LINE",
"291 1196 LINE",
"37 0 LINE",
"338 0 LINE",
"424 401 LINE SMOOTH",
"481 670 OFFCURVE",
"587 834 OFFCURVE",
"711 834 CURVE SMOOTH",
"782 834 OFFCURVE",
"817 793 OFFCURVE",
"817 711 CURVE SMOOTH",
"817 677 OFFCURVE",
"812 637 OFFCURVE",
"801 592 CURVE SMOOTH",
"676 0 LINE",
"977 0 LINE",
"1098 575 LINE SMOOTH"
);
}
);
width = 1237;
}
);
note = hbar;
unicode = 0127;
},
{
glyphname = dotlessi;
lastChange = "2017-06-04 18:15:06 +0000";
layers = (
{
anchors = (
{
name = bottom;
position = "{185, 0}";
},
{
name = ogonek;
position = "{428, 10}";
},
{
name = top;
position = "{423, 1118}";
}
);
layerId = "334C7BAA-C7B0-45C9-BED5-5E40ABBE215F";
paths = (
{
closed = 1;
nodes = (
"274 1118 LINE",
"37 0 LINE",
"338 0 LINE",
"575 1118 LINE"
);
}
);
width = 608;
}
);
note = dotlessi;
unicode = 0131;
},
{
glyphname = Kcommaaccent;
lastChange = "2017-04-24 06:00:28 +0000";
layers = (
{
components = (
{
name = K;
}
);
layerId = "334C7BAA-C7B0-45C9-BED5-5E40ABBE215F";
paths = (
{
closed = 1;
nodes = (
"483 -453 LINE",
"575 -350 OFFCURVE",
"666 -228 OFFCURVE",
"710 -145 CURVE",
"710 -125 LINE",
"428 -125 LINE",
"403 -201 OFFCURVE",
"336 -358 OFFCURVE",
"303 -426 CURVE",
"303 -453 LINE"
);
}
);
width = 1255;
}
);
note = Kcommaaccent;
unicode = 0136;
},
{
glyphname = kcommaaccent;
lastChange = "2017-04-24 06:00:28 +0000";
layers = (
{
components = (
{
name = k;
}
);
layerId = "334C7BAA-C7B0-45C9-BED5-5E40ABBE215F";
paths = (
{
closed = 1;
nodes = (
"426 -453 LINE",
"518 -350 OFFCURVE",
"609 -228 OFFCURVE",
"653 -145 CURVE",
"653 -125 LINE",
"371 -125 LINE",
"346 -201 OFFCURVE",
"279 -358 OFFCURVE",
"246 -426 CURVE",
"246 -453 LINE"
);
}
);
width = 1163;
}
);
note = kcommaaccent;
unicode = 0137;
},
{
glyphname = kgreenlandic;
lastChange = "2017-06-04 18:15:06 +0000";
layers = (
{
anchors = (
{
name = bottom;
position = "{463, 0}";
},
{
name = top;
position = "{701, 1118}";
}
);
layerId = "334C7BAA-C7B0-45C9-BED5-5E40ABBE215F";
paths = (
{
closed = 1;
nodes = (
"459 637 LINE",
"468 665 OFFCURVE",
"477 699 OFFCURVE",
"488 739 CURVE SMOOTH",
"499 779 OFFCURVE",
"528 905 OFFCURVE",
"575 1118 CURVE",
"274 1118 LINE",
"37 0 LINE",
"338 0 LINE",
"412 348 LINE",
"532 420 LINE",
"715 0 LINE",
"1051 0 LINE",
"766 614 LINE",
"1264 1118 LINE",
"920 1118 LINE",
"463 637 LINE"
);
}
);
width = 1163;
}
);
note = kgreenlandic;
unicode = 0138;
},
{
glyphname = Lcommaaccent;
lastChange = "2017-04-24 06:00:28 +0000";
layers = (
{
components = (
{
name = L;
}
);
layerId = "334C7BAA-C7B0-45C9-BED5-5E40ABBE215F";
paths = (
{
closed = 1;
nodes = (
"369 -453 LINE",
"461 -350 OFFCURVE",
"552 -228 OFFCURVE",
"596 -145 CURVE",
"596 -125 LINE",
"314 -125 LINE",
"289 -201 OFFCURVE",
"222 -358 OFFCURVE",
"189 -426 CURVE",
"189 -453 LINE"
);
}
);
width = 1061;
}
);
note = Lcommaaccent;
unicode = 013B;
},
{
glyphname = lcommaaccent;
lastChange = "2017-04-24 06:00:28 +0000";
layers = (
{
components = (
{
name = l;
}
);
layerId = "334C7BAA-C7B0-45C9-BED5-5E40ABBE215F";
paths = (
{
closed = 1;
nodes = (
"81 -453 LINE",
"173 -350 OFFCURVE",
"264 -228 OFFCURVE",
"308 -145 CURVE",
"308 -125 LINE",
"26 -125 LINE",
"1 -201 OFFCURVE",
"-66 -358 OFFCURVE",
"-99 -426 CURVE",
"-99 -453 LINE"
);
}
);
width = 608;
}
);
note = lcommaaccent;
unicode = 013C;
},
{
glyphname = Lslash;
lastChange = "2017-02-21 05:28:43 +0000";
layers = (
{
layerId = "334C7BAA-C7B0-45C9-BED5-5E40ABBE215F";
paths = (
{
closed = 1;
nodes = (
"926 256 LINE",
"414 256 LINE",
"500 664 LINE",
"811 831 LINE",
"705 1034 LINE",
"563 956 LINE",
"670 1462 LINE",
"367 1462 LINE",
"221 772 LINE",
"0 653 LINE",
"102 451 LINE",
"160 481 LINE",
"57 0 LINE",
"872 0 LINE"
);
}
);
width = 1063;
}
);
note = Lslash;
unicode = 0141;
},
{
glyphname = lslash;
lastChange = "2017-02-21 05:28:43 +0000";
layers = (
{
layerId = "334C7BAA-C7B0-45C9-BED5-5E40ABBE215F";
paths = (
{
closed = 1;
nodes = (
"393 1556 LINE",
"223 758 LINE",
"0 637 LINE",
"102 434 LINE",
"162 467 LINE",
"63 0 LINE",
"360 0 LINE",
"498 645 LINE",
"729 770 LINE",
"623 973 LINE",
"559 936 LINE",
"690 1556 LINE"
);
}
);
width = 670;
}
);
note = lslash;
unicode = 0142;
},
{
glyphname = Ncommaaccent;
lastChange = "2017-04-24 06:00:28 +0000";
layers = (
{
components = (
{
name = N;
}
);
layerId = "334C7BAA-C7B0-45C9-BED5-5E40ABBE215F";
paths = (
{
closed = 1;
nodes = (
"561 -453 LINE",
"653 -350 OFFCURVE",
"744 -228 OFFCURVE",
"788 -145 CURVE",
"788 -125 LINE",
"506 -125 LINE",
"481 -201 OFFCURVE",
"414 -358 OFFCURVE",
"381 -426 CURVE",
"381 -453 LINE"
);
}
);
width = 1546;
}
);
note = Ncommaaccent;
unicode = 0145;
},
{
glyphname = ncommaaccent;
lastChange = "2017-04-24 06:00:28 +0000";
layers = (
{
components = (
{
name = n;
}
);
layerId = "334C7BAA-C7B0-45C9-BED5-5E40ABBE215F";
paths = (
{
closed = 1;
nodes = (
"418 -453 LINE",
"510 -350 OFFCURVE",
"601 -228 OFFCURVE",
"645 -145 CURVE",
"645 -125 LINE",
"363 -125 LINE",
"338 -201 OFFCURVE",
"271 -358 OFFCURVE",
"238 -426 CURVE",
"238 -453 LINE"
);
}
);
width = 1237;
}
);
note = ncommaaccent;
unicode = 0146;
},
{
glyphname = Eng;
lastChange = "2017-02-21 05:28:43 +0000";
layers = (
{
layerId = "334C7BAA-C7B0-45C9-BED5-5E40ABBE215F";
paths = (
{
closed = 1;
nodes = (
"1006 -430 OFFCURVE",
"1186 -287 OFFCURVE",
"1247 0 CURVE SMOOTH",
"1556 1462 LINE",
"1282 1462 LINE",
"1151 874 LINE SMOOTH",
"1130 783 OFFCURVE",
"1106 650 OFFCURVE",
"1079 477 CURVE",
"1073 477 LINE",
"692 1462 LINE",
"362 1462 LINE",
"53 0 LINE",
"328 0 LINE",
"473 688 LINE SMOOTH",
"496 801 OFFCURVE",
"518 930 OFFCURVE",
"539 1074 CURVE SMOOTH",
"543 1106 LINE",
"549 1106 LINE",
"967 0 LINE",
"931 -113 OFFCURVE",
"841 -170 OFFCURVE",
"698 -170 CURVE SMOOTH",
"647 -170 OFFCURVE",
"594 -162 OFFCURVE",
"537 -147 CURVE",
"537 -406 LINE",
"584 -422 OFFCURVE",
"647 -430 OFFCURVE",
"727 -430 CURVE SMOOTH"
);
}
);
width = 1546;
}
);
note = Eng;
unicode = 014A;
},
{
glyphname = eng;
lastChange = "2017-02-21 05:28:43 +0000";
layers = (
{
layerId = "334C7BAA-C7B0-45C9-BED5-5E40ABBE215F";
paths = (
{
closed = 1;
nodes = (
"764 -492 OFFCURVE",
"897 -373 OFFCURVE",
"952 -117 CURVE SMOOTH",
"1110 637 LINE SMOOTH",
"1125 708 OFFCURVE",
"1133 768 OFFCURVE",
"1133 817 CURVE SMOOTH",
"1133 1024 OFFCURVE",
"1028 1139 OFFCURVE",
"844 1139 CURVE SMOOTH",
"705 1139 OFFCURVE",
"586 1063 OFFCURVE",
"489 911 CURVE",
"483 911 LINE",
"504 1118 LINE",
"274 1118 LINE",
"37 0 LINE",
"338 0 LINE",
"436 463 LINE SMOOTH",
"493 735 OFFCURVE",
"598 895 OFFCURVE",
"721 895 CURVE SMOOTH",
"793 895 OFFCURVE",
"829 854 OFFCURVE",
"829 772 CURVE SMOOTH",
"829 738 OFFCURVE",
"824 698 OFFCURVE",
"813 653 CURVE SMOOTH",
"659 -76 LINE SMOOTH",
"635 -195 OFFCURVE",
"568 -246 OFFCURVE",
"487 -246 CURVE SMOOTH",
"452 -246 OFFCURVE",
"414 -239 OFFCURVE",
"373 -225 CURVE",
"373 -467 LINE",
"420 -484 OFFCURVE",
"478 -492 OFFCURVE",
"547 -492 CURVE SMOOTH"
);
}
);
width = 1237;
}
);
note = eng;
unicode = 014B;
},
{
glyphname = OE;
lastChange = "2017-06-04 18:15:06 +0000";
layers = (
{
anchors = (
{
name = bottom;
position = "{804, 0}";
},
{
name = top;
position = "{1115, 1462}";
}
);
layerId = "334C7BAA-C7B0-45C9-BED5-5E40ABBE215F";
paths = (
{
closed = 1;
nodes = (
"1147 256 LINE",
"1227 633 LINE",
"1704 633 LINE",
"1759 887 LINE",
"1282 887 LINE",
"1350 1208 LINE",
"1862 1208 LINE",
"1915 1462 LINE",
"1106 1462 LINE",
"1060 1477 OFFCURVE",
"990 1485 OFFCURVE",
"897 1485 CURVE SMOOTH",
"745 1485 OFFCURVE",
"611 1445 OFFCURVE",
"495 1366 CURVE SMOOTH",
"263 1207 OFFCURVE",
"123 890 OFFCURVE",
"123 537 CURVE SMOOTH",
"123 188 OFFCURVE",
"325 -20 OFFCURVE",
"666 -20 CURVE SMOOTH",
"724 -20 OFFCURVE",
"784 -13 OFFCURVE",
"846 0 CURVE",
"1606 0 LINE",
"1659 256 LINE"
);
},
{
closed = 1;
nodes = (
"527 240 OFFCURVE",
"434 341 OFFCURVE",
"434 537 CURVE SMOOTH",
"434 662 OFFCURVE",
"453 777 OFFCURVE",
"492 884 CURVE SMOOTH",
"568 1097 OFFCURVE",
"711 1227 OFFCURVE",
"872 1227 CURVE SMOOTH",
"943 1227 OFFCURVE",
"999 1214 OFFCURVE",
"1040 1188 CURVE",
"846 272 LINE",
"799 251 OFFCURVE",
"747 240 OFFCURVE",
"688 240 CURVE SMOOTH"
);
}
);
width = 1845;
}
);
note = OE;
unicode = 0152;
},
{
glyphname = oe;
lastChange = "2017-06-04 18:15:06 +0000";
layers = (
{
anchors = (
{
name = bottom;
position = "{784, 0}";
},
{
name = top;
position = "{1022, 1118}";
}
);
layerId = "334C7BAA-C7B0-45C9-BED5-5E40ABBE215F";
paths = (
{
closed = 1;
nodes = (
"1346 -20 OFFCURVE",
"1463 5 OFFCURVE",
"1587 66 CURVE",
"1587 293 LINE",
"1452 229 OFFCURVE",
"1373 207 OFFCURVE",
"1257 207 CURVE SMOOTH",
"1129 207 OFFCURVE",
"1059 282 OFFCURVE",
"1059 403 CURVE SMOOTH",
"1059 423 LINE",
"1061 444 LINE",
"1112 444 LINE SMOOTH",
"1524 444 OFFCURVE",
"1755 585 OFFCURVE",
"1755 834 CURVE SMOOTH",
"1755 1023 OFFCURVE",
"1616 1139 OFFCURVE",
"1380 1139 CURVE SMOOTH",
"1217 1139 OFFCURVE",
"1084 1086 OFFCURVE",
"981 979 CURVE",
"912 1086 OFFCURVE",
"807 1139 OFFCURVE",
"668 1139 CURVE SMOOTH",
"549 1139 OFFCURVE",
"446 1109 OFFCURVE",
"359 1049 CURVE SMOOTH",
"184 929 OFFCURVE",
"90 702 OFFCURVE",
"90 414 CURVE SMOOTH",
"90 147 OFFCURVE",
"249 -20 OFFCURVE",
"498 -20 CURVE SMOOTH",
"662 -20 OFFCURVE",
"768 34 OFFCURVE",
"852 125 CURVE",
"913 34 OFFCURVE",
"1043 -20 OFFCURVE",
"1198 -20 CURVE SMOOTH"
);
},
{
closed = 1;
nodes = (
"737 893 OFFCURVE",
"788 824 OFFCURVE",
"788 696 CURVE SMOOTH",
"788 427 OFFCURVE",
"684 225 OFFCURVE",
"539 225 CURVE SMOOTH",
"442 225 OFFCURVE",
"393 293 OFFCURVE",
"393 414 CURVE SMOOTH",
"393 498 OFFCURVE",
"405 579 OFFCURVE",
"428 656 CURVE SMOOTH",
"474 811 OFFCURVE",
"550 893 OFFCURVE",
"645 893 CURVE SMOOTH"
);
},
{
closed = 1;
nodes = (
"1431 922 OFFCURVE",
"1466 890 OFFCURVE",
"1466 827 CURVE SMOOTH",
"1466 716 OFFCURVE",
"1346 647 OFFCURVE",
"1139 647 CURVE SMOOTH",
"1094 647 LINE",
"1127 804 OFFCURVE",
"1245 922 OFFCURVE",
"1362 922 CURVE SMOOTH"
);
}
);
width = 1806;
}
);
note = oe;
unicode = 0153;
},
{
glyphname = Rcommaaccent;
lastChange = "2017-04-24 06:00:28 +0000";
layers = (
{
components = (
{
name = R;
}
);
layerId = "334C7BAA-C7B0-45C9-BED5-5E40ABBE215F";
paths = (
{
closed = 1;
nodes = (
"479 -453 LINE",
"571 -350 OFFCURVE",
"662 -228 OFFCURVE",
"706 -145 CURVE",
"706 -125 LINE",
"424 -125 LINE",
"399 -201 OFFCURVE",
"332 -358 OFFCURVE",
"299 -426 CURVE",
"299 -453 LINE"
);
}
);
width = 1247;
}
);
note = Rcommaaccent;
unicode = 0156;
},
{
glyphname = rcommaaccent;
lastChange = "2017-04-24 06:00:28 +0000";
layers = (
{
components = (
{
name = r;
}
);
layerId = "334C7BAA-C7B0-45C9-BED5-5E40ABBE215F";
paths = (
{
closed = 1;
nodes = (
"85 -453 LINE",
"177 -350 OFFCURVE",
"268 -228 OFFCURVE",
"312 -145 CURVE",
"312 -125 LINE",
"30 -125 LINE",
"5 -201 OFFCURVE",
"-62 -358 OFFCURVE",
"-95 -426 CURVE",
"-95 -453 LINE"
);
}
);
width = 862;
}
);
note = rcommaaccent;
unicode = 0157;
},
{
glyphname = Tcommaaccent;
lastChange = "2017-04-24 06:00:28 +0000";
layers = (
{
components = (
{
name = T;
}
);
layerId = "334C7BAA-C7B0-45C9-BED5-5E40ABBE215F";
paths = (
{
closed = 1;
nodes = (
"307 -453 LINE",
"399 -350 OFFCURVE",
"490 -228 OFFCURVE",
"534 -145 CURVE",
"534 -125 LINE",
"252 -125 LINE",
"227 -201 OFFCURVE",
"160 -358 OFFCURVE",
"127 -426 CURVE",
"127 -453 LINE"
);
}
);
width = 1087;
}
);
note = Tcommaaccent;
unicode = 021A;
},
{
glyphname = tcommaaccent;
lastChange = "2017-04-24 06:00:28 +0000";
layers = (
{
components = (
{
name = t;
}
);
layerId = "334C7BAA-C7B0-45C9-BED5-5E40ABBE215F";
paths = (
{
closed = 1;
nodes = (
"236 -453 LINE",
"328 -350 OFFCURVE",
"419 -228 OFFCURVE",
"463 -145 CURVE",
"463 -125 LINE",
"181 -125 LINE",
"156 -201 OFFCURVE",
"89 -358 OFFCURVE",
"56 -426 CURVE",
"56 -453 LINE"
);
}
);
width = 840;
}
);
note = tcommaaccent;
unicode = 021B;
},
{
glyphname = Tbar;
lastChange = "2017-02-21 05:28:43 +0000";
layers = (
{
layerId = "334C7BAA-C7B0-45C9-BED5-5E40ABBE215F";
paths = (
{
closed = 1;
nodes = (
"1178 1204 LINE",
"1233 1462 LINE",
"223 1462 LINE",
"168 1204 LINE",
"520 1204 LINE",
"444 850 LINE",
"221 850 LINE",
"166 596 LINE",
"391 596 LINE",
"266 0 LINE",
"571 0 LINE",
"696 596 LINE",
"930 596 LINE",
"985 850 LINE",
"750 850 LINE",
"825 1204 LINE"
);
}
);
width = 1087;
}
);
note = Tbar;
unicode = 0166;
},
{
glyphname = tbar;
lastChange = "2017-02-21 05:28:43 +0000";
layers = (
{
layerId = "334C7BAA-C7B0-45C9-BED5-5E40ABBE215F";
paths = (
{
closed = 1;
nodes = (
"455 223 OFFCURVE",
"426 248 OFFCURVE",
"426 297 CURVE SMOOTH",
"426 312 OFFCURVE",
"428 330 OFFCURVE",
"432 350 CURVE SMOOTH",
"463 498 LINE",
"698 498 LINE",
"739 696 LINE",
"506 696 LINE",
"547 889 LINE",
"829 889 LINE",
"879 1118 LINE",
"596 1118 LINE",
"645 1356 LINE",
"451 1356 LINE",
"319 1120 LINE",
"123 1036 LINE",
"94 889 LINE",
"246 889 LINE",
"205 696 LINE",
"72 696 LINE",
"31 498 LINE",
"164 498 LINE",
"131 350 LINE SMOOTH",
"123 309 OFFCURVE",
"119 271 OFFCURVE",
"119 238 CURVE SMOOTH",
"119 62 OFFCURVE",
"210 -20 OFFCURVE",
"410 -20 CURVE SMOOTH",
"513 -20 OFFCURVE",
"602 -2 OFFCURVE",
"676 33 CURVE",
"676 258 LINE",
"611 235 OFFCURVE",
"557 223 OFFCURVE",
"514 223 CURVE SMOOTH"
);
}
);
width = 840;
}
);
note = tbar;
unicode = 0167;
},
{
glyphname = longs;
lastChange = "2017-06-04 18:15:06 +0000";
layers = (
{
anchors = (
{
name = bottom;
position = "{248, 0}";
},
{
name = top;
position = "{486, 1118}";
}
);
layerId = "334C7BAA-C7B0-45C9-BED5-5E40ABBE215F";
paths = (
{
closed = 1;
nodes = (
"146 -492 OFFCURVE",
"281 -368 OFFCURVE",
"332 -121 CURVE SMOOTH",
"608 1180 LINE SMOOTH",
"627 1267 OFFCURVE",
"672 1325 OFFCURVE",
"748 1325 CURVE SMOOTH",
"791 1325 OFFCURVE",
"835 1315 OFFCURVE",
"881 1294 CURVE",
"961 1518 LINE",
"890 1551 OFFCURVE",
"811 1567 OFFCURVE",
"725 1567 CURVE SMOOTH",
"492 1567 OFFCURVE",
"369 1458 OFFCURVE",
"313 1202 CURVE SMOOTH",
"41 -76 LINE SMOOTH",
"17 -189 OFFCURVE",
"-40 -246 OFFCURVE",
"-131 -246 CURVE SMOOTH",
"-167 -246 OFFCURVE",
"-205 -239 OFFCURVE",
"-246 -225 CURVE",
"-246 -467 LINE",
"-199 -484 OFFCURVE",
"-141 -492 OFFCURVE",
"-72 -492 CURVE SMOOTH"
);
}
);
width = 733;
}
);
note = longs;
unicode = 017F;
},
{
glyphname = florin;
lastChange = "2017-02-21 05:28:43 +0000";
layers = (
{
layerId = "334C7BAA-C7B0-45C9-BED5-5E40ABBE215F";
paths = (
{
closed = 1;
nodes = (
"361 -492 OFFCURVE",
"496 -368 OFFCURVE",
"547 -121 CURVE SMOOTH",
"743 805 LINE",
"963 805 LINE",
"1012 1034 LINE",
"793 1034 LINE",
"805 1096 LINE SMOOTH",
"821 1183 OFFCURVE",
"868 1241 OFFCURVE",
"944 1241 CURVE SMOOTH",
"987 1241 OFFCURVE",
"1031 1231 OFFCURVE",
"1077 1210 CURVE",
"1157 1434 LINE",
"1088 1467 OFFCURVE",
"1009 1483 OFFCURVE",
"922 1483 CURVE SMOOTH",
"687 1483 OFFCURVE",
"565 1371 OFFCURVE",
"510 1118 CURVE SMOOTH",
"492 1034 LINE",
"303 954 LINE",
"274 805 LINE",
"442 805 LINE",
"256 -76 LINE SMOOTH",
"232 -189 OFFCURVE",
"175 -246 OFFCURVE",
"84 -246 CURVE SMOOTH",
"48 -246 OFFCURVE",
"10 -239 OFFCURVE",
"-31 -225 CURVE",
"-31 -467 LINE",
"16 -484 OFFCURVE",
"74 -492 OFFCURVE",
"143 -492 CURVE SMOOTH"
);
}
);
width = 1128;
}
);
note = florin;
unicode = 0192;
},
{
glyphname = Aringacute;
lastChange = "2017-02-21 05:28:43 +0000";
layers = (
{
layerId = "334C7BAA-C7B0-45C9-BED5-5E40ABBE215F";
paths = (
{
closed = 1;
nodes = (
"1085 1603 OFFCURVE",
"978 1698 OFFCURVE",
"831 1698 CURVE SMOOTH",
"683 1698 OFFCURVE",
"584 1607 OFFCURVE",
"584 1460 CURVE SMOOTH",
"584 1416 OFFCURVE",
"592 1378 OFFCURVE",
"608 1346 CURVE",
"-123 0 LINE",
"197 0 LINE",
"367 330 LINE",
"836 330 LINE",
"866 0 LINE",
"1163 0 LINE",
"1008 1282 LINE",
"1059 1327 OFFCURVE",
"1085 1387 OFFCURVE",
"1085 1462 CURVE SMOOTH"
);
},
{
closed = 1;
nodes = (
"983 1753 LINE",
"1095 1804 OFFCURVE",
"1244 1887 OFFCURVE",
"1321 1952 CURVE",
"1321 1962 LINE",
"979 1962 LINE",
"923 1899 OFFCURVE",
"816 1803 OFFCURVE",
"768 1767 CURVE",
"768 1753 LINE"
);
},
{
closed = 1;
nodes = (
"928 1400 OFFCURVE",
"887 1364 OFFCURVE",
"831 1364 CURVE SMOOTH",
"767 1364 OFFCURVE",
"735 1400 OFFCURVE",
"735 1460 CURVE SMOOTH",
"735 1520 OFFCURVE",
"775 1556 OFFCURVE",
"831 1556 CURVE SMOOTH",
"887 1556 OFFCURVE",
"928 1520 OFFCURVE",
"928 1460 CURVE SMOOTH"
);
},
{
closed = 1;
nodes = (
"783 1039 OFFCURVE",
"788 956 OFFCURVE",
"795 899 CURVE",
"821 590 LINE",
"498 590 LINE",
"672 932 LINE SMOOTH",
"707 1003 OFFCURVE",
"739 1075 OFFCURVE",
"768 1149 CURVE",
"780 1149 LINE"
);
}
);
width = 1286;
}
);
note = Aringacute;
unicode = 01FA;
},
{
glyphname = aringacute;
lastChange = "2017-02-21 05:28:43 +0000";
layers = (
{
layerId = "334C7BAA-C7B0-45C9-BED5-5E40ABBE215F";
paths = (
{
closed = 1;
nodes = (
"895 1753 LINE",
"1007 1804 OFFCURVE",
"1156 1887 OFFCURVE",
"1233 1952 CURVE",
"1233 1962 LINE",
"891 1962 LINE",
"840 1906 OFFCURVE",
"732 1808 OFFCURVE",
"680 1767 CURVE",
"680 1753 LINE"
);
},
{
closed = 1;
nodes = (
"995 1578 OFFCURVE",
"888 1673 OFFCURVE",
"741 1673 CURVE SMOOTH",
"592 1673 OFFCURVE",
"494 1580 OFFCURVE",
"494 1436 CURVE SMOOTH",
"494 1291 OFFCURVE",
"592 1198 OFFCURVE",
"741 1198 CURVE SMOOTH",
"893 1198 OFFCURVE",
"995 1295 OFFCURVE",
"995 1438 CURVE SMOOTH"
);
},
{
closed = 1;
nodes = (
"838 1376 OFFCURVE",
"797 1339 OFFCURVE",
"741 1339 CURVE SMOOTH",
"677 1339 OFFCURVE",
"645 1376 OFFCURVE",
"645 1436 CURVE SMOOTH",
"645 1496 OFFCURVE",
"685 1532 OFFCURVE",
"741 1532 CURVE SMOOTH",
"797 1532 OFFCURVE",
"838 1496 OFFCURVE",
"838 1436 CURVE SMOOTH"
);
},
{
closed = 1;
nodes = (
"529 -20 OFFCURVE",
"636 35 OFFCURVE",
"725 145 CURVE",
"729 145 LINE",
"715 0 LINE",
"944 0 LINE",
"1182 1118 LINE",
"950 1118 LINE",
"893 975 LINE",
"885 975 LINE",
"833 1082 OFFCURVE",
"737 1139 OFFCURVE",
"608 1139 CURVE SMOOTH",
"515 1139 OFFCURVE",
"429 1106 OFFCURVE",
"351 1041 CURVE SMOOTH",
"195 909 OFFCURVE",
"90 649 OFFCURVE",
"90 385 CURVE SMOOTH",
"90 129 OFFCURVE",
"210 -20 OFFCURVE",
"406 -20 CURVE SMOOTH"
);
},
{
closed = 1;
nodes = (
"441 223 OFFCURVE",
"395 282 OFFCURVE",
"395 399 CURVE SMOOTH",
"395 476 OFFCURVE",
"407 554 OFFCURVE",
"432 633 CURVE SMOOTH",
"480 790 OFFCURVE",
"568 895 OFFCURVE",
"659 895 CURVE SMOOTH",
"743 895 OFFCURVE",
"799 826 OFFCURVE",
"799 731 CURVE SMOOTH",
"799 634 OFFCURVE",
"786 548 OFFCURVE",
"760 472 CURVE SMOOTH",
"708 319 OFFCURVE",
"616 223 OFFCURVE",
"524 223 CURVE SMOOTH"
);
}
);
width = 1206;
}
);
note = aringacute;
unicode = 01FB;
},
{
glyphname = Scommaaccent;
lastChange = "2017-04-24 06:00:28 +0000";
layers = (
{
components = (
{
name = S;
}
);
layerId = "334C7BAA-C7B0-45C9-BED5-5E40ABBE215F";
paths = (
{
closed = 1;
nodes = (
"330 -453 LINE",
"422 -350 OFFCURVE",
"513 -228 OFFCURVE",
"557 -145 CURVE",
"557 -125 LINE",
"275 -125 LINE",
"250 -201 OFFCURVE",
"183 -358 OFFCURVE",
"150 -426 CURVE",
"150 -453 LINE"
);
}
);
width = 1085;
}
);
note = Scommaaccent;
unicode = 0218;
},
{
glyphname = scommaaccent;
lastChange = "2017-04-24 06:00:28 +0000";
layers = (
{
components = (
{
name = s;
}
);
layerId = "334C7BAA-C7B0-45C9-BED5-5E40ABBE215F";
paths = (
{
closed = 1;
nodes = (
"288 -453 LINE",
"380 -350 OFFCURVE",
"471 -228 OFFCURVE",
"515 -145 CURVE",
"515 -125 LINE",
"233 -125 LINE",
"208 -201 OFFCURVE",
"141 -358 OFFCURVE",
"108 -426 CURVE",
"108 -453 LINE"
);
}
);
width = 969;
}
);
note = scommaaccent;
unicode = 0219;
},
{
glyphname = circumflex;
lastChange = "2017-02-21 05:28:43 +0000";
layers = (
{
layerId = "334C7BAA-C7B0-45C9-BED5-5E40ABBE215F";
paths = (
{
closed = 1;
nodes = (
"1053 1362 OFFCURVE",
"973 1497 OFFCURVE",
"944 1569 CURVE",
"606 1569 LINE",
"537 1481 OFFCURVE",
"395 1342 OFFCURVE",
"311 1266 CURVE",
"311 1241 LINE",
"528 1241 LINE",
"613 1294 OFFCURVE",
"690 1350 OFFCURVE",
"760 1409 CURVE",
"826 1332 OFFCURVE",
"880 1276 OFFCURVE",
"922 1241 CURVE",
"1120 1241 LINE",
"1120 1266 LINE"
);
}
);
width = 1135;
}
);
note = circumflex;
unicode = 02C6;
},
{
glyphname = caron;
lastChange = "2017-02-21 05:28:43 +0000";
layers = (
{
layerId = "334C7BAA-C7B0-45C9-BED5-5E40ABBE215F";
paths = (
{
closed = 1;
nodes = (
"444 1448 OFFCURVE",
"524 1313 OFFCURVE",
"553 1241 CURVE",
"891 1241 LINE",
"946 1311 OFFCURVE",
"1045 1412 OFFCURVE",
"1186 1544 CURVE",
"1186 1569 LINE",
"969 1569 LINE",
"891 1520 OFFCURVE",
"814 1464 OFFCURVE",
"737 1401 CURVE",
"671 1478 OFFCURVE",
"617 1534 OFFCURVE",
"575 1569 CURVE",
"377 1569 LINE",
"377 1544 LINE"
);
}
);
width = 1135;
}
);
note = caron;
unicode = 02C7;
},
{
glyphname = macron;
lastChange = "2017-02-21 05:28:43 +0000";
layers = (
{
layerId = "334C7BAA-C7B0-45C9-BED5-5E40ABBE215F";
paths = (
{
closed = 1;
nodes = (
"1004 1241 LINE",
"1049 1452 LINE",
"430 1452 LINE",
"385 1241 LINE"
);
}
);
width = 1096;
}
);
note = macron;
unicode = 02C9;
},
{
glyphname = breve;
lastChange = "2017-02-21 05:28:43 +0000";
layers = (
{
layerId = "334C7BAA-C7B0-45C9-BED5-5E40ABBE215F";
paths = (
{
closed = 1;
nodes = (
"935 1484 OFFCURVE",
"868 1454 OFFCURVE",
"764 1454 CURVE SMOOTH",
"656 1454 OFFCURVE",
"610 1492 OFFCURVE",
"610 1579 CURVE",
"436 1579 LINE",
"432 1560 OFFCURVE",
"430 1538 OFFCURVE",
"430 1513 CURVE SMOOTH",
"430 1345 OFFCURVE",
"550 1241 OFFCURVE",
"754 1241 CURVE SMOOTH",
"979 1241 OFFCURVE",
"1110 1354 OFFCURVE",
"1147 1579 CURVE",
"958 1579 LINE"
);
}
);
width = 1135;
}
);
note = breve;
unicode = 02D8;
},
{
glyphname = dotaccent;
lastChange = "2017-02-21 05:28:43 +0000";
layers = (
{
layerId = "334C7BAA-C7B0-45C9-BED5-5E40ABBE215F";
paths = (
{
closed = 1;
nodes = (
"322 1298 OFFCURVE",
"372 1257 OFFCURVE",
"473 1257 CURVE SMOOTH",
"596 1257 OFFCURVE",
"653 1329 OFFCURVE",
"653 1436 CURVE SMOOTH",
"653 1513 OFFCURVE",
"601 1556 OFFCURVE",
"504 1556 CURVE SMOOTH",
"388 1556 OFFCURVE",
"322 1496 OFFCURVE",
"322 1380 CURVE SMOOTH"
);
}
);
width = 608;
}
);
note = dotaccent;
unicode = 02D9;
},
{
glyphname = ring;
lastChange = "2017-02-21 05:28:43 +0000";
layers = (
{
layerId = "334C7BAA-C7B0-45C9-BED5-5E40ABBE215F";
paths = (
{
closed = 1;
nodes = (
"1034 1619 OFFCURVE",
"927 1714 OFFCURVE",
"780 1714 CURVE SMOOTH",
"632 1714 OFFCURVE",
"532 1622 OFFCURVE",
"532 1477 CURVE SMOOTH",
"532 1329 OFFCURVE",
"633 1239 OFFCURVE",
"780 1239 CURVE SMOOTH",
"932 1239 OFFCURVE",
"1034 1336 OFFCURVE",
"1034 1479 CURVE SMOOTH"
);
},
{
closed = 1;
nodes = (
"877 1417 OFFCURVE",
"836 1380 OFFCURVE",
"780 1380 CURVE SMOOTH",
"716 1380 OFFCURVE",
"684 1417 OFFCURVE",
"684 1477 CURVE SMOOTH",
"684 1537 OFFCURVE",
"724 1573 OFFCURVE",
"780 1573 CURVE SMOOTH",
"836 1573 OFFCURVE",
"877 1537 OFFCURVE",
"877 1477 CURVE SMOOTH"
);
}
);
width = 1182;
}
);
note = ring;
unicode = 02DA;
},
{
glyphname = ogonek;
lastChange = "2017-02-21 05:28:43 +0000";
layers = (
{
layerId = "334C7BAA-C7B0-45C9-BED5-5E40ABBE215F";
paths = (
{
closed = 1;
nodes = (
"-117 -103 OFFCURVE",
"-172 -188 OFFCURVE",
"-172 -297 CURVE SMOOTH",
"-172 -414 OFFCURVE",
"-87 -492 OFFCURVE",
"49 -492 CURVE SMOOTH",
"102 -492 OFFCURVE",
"157 -484 OFFCURVE",
"213 -467 CURVE",
"213 -291 LINE",
"174 -303 OFFCURVE",
"140 -309 OFFCURVE",
"111 -309 CURVE SMOOTH",
"74 -309 OFFCURVE",
"51 -287 OFFCURVE",
"51 -250 CURVE SMOOTH",
"51 -217 OFFCURVE",
"63 -183 OFFCURVE",
"87 -148 CURVE SMOOTH",
"111 -113 OFFCURVE",
"163 -64 OFFCURVE",
"242 0 CURVE",
"43 0 LINE"
);
}
);
width = 422;
}
);
note = ogonek;
unicode = 02DB;
},
{
glyphname = tilde;
lastChange = "2017-02-21 05:28:43 +0000";
layers = (
{
layerId = "334C7BAA-C7B0-45C9-BED5-5E40ABBE215F";
paths = (
{
closed = 1;
nodes = (
"1013 1241 OFFCURVE",
"1109 1344 OFFCURVE",
"1153 1550 CURVE",
"981 1550 LINE",
"952 1477 OFFCURVE",
"922 1444 OFFCURVE",
"877 1444 CURVE SMOOTH",
"836 1444 OFFCURVE",
"799 1470 OFFCURVE",
"755 1496 CURVE SMOOTH",
"711 1522 OFFCURVE",
"661 1548 OFFCURVE",
"596 1548 CURVE SMOOTH",
"448 1548 OFFCURVE",
"354 1445 OFFCURVE",
"315 1239 CURVE",
"492 1239 LINE",
"511 1307 OFFCURVE",
"545 1346 OFFCURVE",
"586 1346 CURVE SMOOTH",
"630 1346 OFFCURVE",
"667 1320 OFFCURVE",
"710 1294 CURVE SMOOTH",
"753 1268 OFFCURVE",
"801 1241 OFFCURVE",
"866 1241 CURVE SMOOTH"
);
}
);
width = 1135;
}
);
note = tilde;
unicode = 02DC;
},
{
glyphname = hungarumlaut;
lastChange = "2017-02-21 05:28:43 +0000";
layers = (
{
layerId = "334C7BAA-C7B0-45C9-BED5-5E40ABBE215F";
paths = (
{
closed = 1;
nodes = (
"457 1241 LINE",
"585 1333 OFFCURVE",
"758 1481 OFFCURVE",
"815 1552 CURVE",
"815 1569 LINE",
"510 1569 LINE",
"432 1452 OFFCURVE",
"355 1351 OFFCURVE",
"279 1266 CURVE",
"279 1241 LINE"
);
},
{
closed = 1;
nodes = (
"854 1241 LINE",
"982 1333 OFFCURVE",
"1155 1481 OFFCURVE",
"1212 1552 CURVE",
"1212 1569 LINE",
"907 1569 LINE",
"829 1452 OFFCURVE",
"752 1351 OFFCURVE",
"676 1266 CURVE",
"676 1241 LINE"
);
}
);
width = 1135;
}
);
note = hungarumlaut;
unicode = 02DD;
},
{
glyphname = tonos;
lastChange = "2017-06-04 18:15:06 +0000";
layers = (
{
anchors = (
{
name = _top;
position = "{715, 1118}";
}
);
layerId = "334C7BAA-C7B0-45C9-BED5-5E40ABBE215F";
paths = (
{
closed = 1;
nodes = (
"745 1241 LINE",
"834 1352 OFFCURVE",
"919 1474 OFFCURVE",
"999 1606 CURVE",
"999 1630 LINE",
"715 1630 LINE",
"666 1493 OFFCURVE",
"616 1373 OFFCURVE",
"565 1272 CURVE",
"565 1241 LINE"
);
}
);
width = 1135;
}
);
note = tonos;
unicode = 0384;
},
{
glyphname = dieresistonos;
lastChange = "2017-06-04 18:15:06 +0000";
layers = (
{
anchors = (
{
name = _top;
position = "{671, 1118}";
}
);
layerId = "334C7BAA-C7B0-45C9-BED5-5E40ABBE215F";
paths = (
{
closed = 1;
nodes = (
"786 1389 LINE",
"885 1498 OFFCURVE",
"964 1601 OFFCURVE",
"1024 1696 CURVE",
"1024 1716 LINE",
"764 1716 LINE",
"731 1616 OFFCURVE",
"673 1471 OFFCURVE",
"645 1415 CURVE",
"645 1389 LINE"
);
},
{
closed = 1;
nodes = (
"342 1309 OFFCURVE",
"382 1272 OFFCURVE",
"463 1272 CURVE SMOOTH",
"562 1272 OFFCURVE",
"608 1335 OFFCURVE",
"608 1432 CURVE SMOOTH",
"608 1500 OFFCURVE",
"567 1540 OFFCURVE",
"487 1540 CURVE SMOOTH",
"396 1540 OFFCURVE",
"342 1486 OFFCURVE",
"342 1382 CURVE SMOOTH"
);
},
{
closed = 1;
nodes = (
"893 1309 OFFCURVE",
"933 1272 OFFCURVE",
"1014 1272 CURVE SMOOTH",
"1113 1272 OFFCURVE",
"1159 1335 OFFCURVE",
"1159 1432 CURVE SMOOTH",
"1159 1500 OFFCURVE",
"1118 1540 OFFCURVE",
"1038 1540 CURVE SMOOTH",
"947 1540 OFFCURVE",
"893 1486 OFFCURVE",
"893 1382 CURVE SMOOTH"
);
}
);
width = 1135;
}
);
note = dieresistonos;
unicode = 0385;
},
{
glyphname = Gamma;
lastChange = "2017-02-21 05:28:43 +0000";
layers = (
{
layerId = "334C7BAA-C7B0-45C9-BED5-5E40ABBE215F";
paths = (
{
closed = 1;
nodes = (
"1122 1208 LINE",
"1176 1462 LINE",
"362 1462 LINE",
"53 0 LINE",
"354 0 LINE",
"610 1208 LINE"
);
}
);
width = 1030;
}
);
note = Gamma;
unicode = 0393;
},
{
glyphname = Theta;
lastChange = "2017-02-21 05:28:43 +0000";
layers = (
{
layerId = "334C7BAA-C7B0-45C9-BED5-5E40ABBE215F";
paths = (
{
closed = 1;
nodes = (
"543 616 LINE",
"987 616 LINE",
"1040 870 LINE",
"596 870 LINE"
);
},
{
closed = 1;
nodes = (
"1456 1270 OFFCURVE",
"1254 1485 OFFCURVE",
"903 1485 CURVE SMOOTH",
"751 1485 OFFCURVE",
"617 1448 OFFCURVE",
"500 1373 CURVE SMOOTH",
"266 1223 OFFCURVE",
"123 916 OFFCURVE",
"123 555 CURVE SMOOTH",
"123 198 OFFCURVE",
"335 -20 OFFCURVE",
"692 -20 CURVE SMOOTH",
"846 -20 OFFCURVE",
"981 18 OFFCURVE",
"1097 94 CURVE SMOOTH",
"1328 245 OFFCURVE",
"1456 543 OFFCURVE",
"1456 903 CURVE SMOOTH"
);
},
{
closed = 1;
nodes = (
"1046 1227 OFFCURVE",
"1145 1107 OFFCURVE",
"1145 918 CURVE SMOOTH",
"1145 787 OFFCURVE",
"1127 669 OFFCURVE",
"1092 565 CURVE SMOOTH",
"1021 357 OFFCURVE",
"886 240 OFFCURVE",
"705 240 CURVE SMOOTH",
"538 240 OFFCURVE",
"434 358 OFFCURVE",
"434 547 CURVE SMOOTH",
"434 676 OFFCURVE",
"453 793 OFFCURVE",
"492 900 CURVE SMOOTH",
"569 1112 OFFCURVE",
"709 1227 OFFCURVE",
"885 1227 CURVE SMOOTH"
);
}
);
width = 1520;
}
);
note = Theta;
unicode = 0398;
},
{
glyphname = Lambda;
lastChange = "2017-02-21 05:28:43 +0000";
layers = (
{
layerId = "334C7BAA-C7B0-45C9-BED5-5E40ABBE215F";
paths = (
{
closed = 1;
nodes = (
"625 881 LINE SMOOTH",
"653 939 OFFCURVE",
"683 1010 OFFCURVE",
"714 1095 CURVE SMOOTH",
"743 1174 LINE",
"743 1024 OFFCURVE",
"746 911 OFFCURVE",
"752 836 CURVE SMOOTH",
"811 0 LINE",
"1106 0 LINE",
"967 1468 LINE",
"625 1468 LINE",
"-123 0 LINE",
"197 0 LINE"
);
}
);
width = 1229;
}
);
note = Lambda;
unicode = 039B;
},
{
glyphname = Xi;
lastChange = "2017-02-21 05:28:43 +0000";
layers = (
{
layerId = "334C7BAA-C7B0-45C9-BED5-5E40ABBE215F";
paths = (
{
closed = 1;
nodes = (
"874 633 LINE",
"930 887 LINE",
"262 887 LINE",
"207 633 LINE"
);
},
{
closed = 1;
nodes = (
"1075 1208 LINE",
"1128 1462 LINE",
"305 1462 LINE",
"252 1208 LINE"
);
},
{
closed = 1;
nodes = (
"-43 0 LINE",
"858 0 LINE",
"911 256 LINE",
"8 256 LINE"
);
}
);
width = 1067;
}
);
note = Xi;
unicode = 039E;
},
{
glyphname = Pi;
lastChange = "2017-02-21 05:28:43 +0000";
layers = (
{
layerId = "334C7BAA-C7B0-45C9-BED5-5E40ABBE215F";
paths = (
{
closed = 1;
nodes = (
"362 1462 LINE",
"53 0 LINE",
"358 0 LINE",
"614 1204 LINE",
"1075 1204 LINE",
"819 0 LINE",
"1124 0 LINE",
"1434 1462 LINE"
);
}
);
width = 1423;
}
);
note = Pi;
unicode = 03A0;
},
{
glyphname = Sigma;
lastChange = "2017-02-21 05:28:43 +0000";
layers = (
{
layerId = "334C7BAA-C7B0-45C9-BED5-5E40ABBE215F";
paths = (
{
closed = 1;
nodes = (
"983 256 LINE",
"387 256 LINE",
"887 727 LINE",
"569 1208 LINE",
"1128 1208 LINE",
"1182 1462 LINE",
"276 1462 LINE",
"227 1229 LINE",
"549 748 LINE",
"6 242 LINE",
"-43 0 LINE",
"930 0 LINE"
);
}
);
width = 1112;
}
);
note = Sigma;
unicode = 03A3;
},
{
glyphname = Phi;
lastChange = "2017-02-21 05:28:43 +0000";
layers = (
{
layerId = "334C7BAA-C7B0-45C9-BED5-5E40ABBE215F";
paths = (
{
closed = 1;
nodes = (
"891 205 LINE",
"1342 210 OFFCURVE",
"1608 438 OFFCURVE",
"1608 821 CURVE SMOOTH",
"1608 1102 OFFCURVE",
"1433 1276 OFFCURVE",
"1124 1303 CURVE",
"1161 1483 LINE",
"877 1483 LINE",
"840 1303 LINE",
"380 1286 OFFCURVE",
"123 1065 OFFCURVE",
"123 690 CURVE SMOOTH",
"123 593 OFFCURVE",
"143 509 OFFCURVE",
"183 438 CURVE SMOOTH",
"262 294 OFFCURVE",
"410 218 OFFCURVE",
"606 203 CURVE",
"557 -20 LINE",
"842 -20 LINE"
);
},
{
closed = 1;
nodes = (
"1222 1056 OFFCURVE",
"1303 966 OFFCURVE",
"1303 821 CURVE SMOOTH",
"1303 600 OFFCURVE",
"1177 460 OFFCURVE",
"942 444 CURVE",
"1073 1061 LINE"
);
},
{
closed = 1;
nodes = (
"509 449 OFFCURVE",
"428 539 OFFCURVE",
"428 688 CURVE SMOOTH",
"428 913 OFFCURVE",
"564 1048 OFFCURVE",
"788 1061 CURVE",
"657 444 LINE"
);
}
);
width = 1671;
}
);
note = Phi;
unicode = 03A6;
},
{
glyphname = Psi;
lastChange = "2017-02-21 05:28:43 +0000";
layers = (
{
layerId = "334C7BAA-C7B0-45C9-BED5-5E40ABBE215F";
paths = (
{
closed = 1;
nodes = (
"1340 434 OFFCURVE",
"1563 604 OFFCURVE",
"1636 944 CURVE SMOOTH",
"1747 1462 LINE",
"1450 1462 LINE",
"1348 979 LINE SMOOTH",
"1303 772 OFFCURVE",
"1212 686 OFFCURVE",
"1016 686 CURVE SMOOTH",
"999 686 LINE",
"1163 1462 LINE",
"879 1462 LINE",
"715 686 LINE",
"698 686 LINE SMOOTH",
"549 686 OFFCURVE",
"475 735 OFFCURVE",
"475 866 CURVE SMOOTH",
"475 899 OFFCURVE",
"480 938 OFFCURVE",
"489 983 CURVE SMOOTH",
"590 1462 LINE",
"295 1462 LINE",
"201 1022 LINE SMOOTH",
"186 950 OFFCURVE",
"178 884 OFFCURVE",
"178 825 CURVE SMOOTH",
"178 580 OFFCURVE",
"353 434 OFFCURVE",
"649 434 CURVE SMOOTH",
"664 434 LINE",
"569 0 LINE",
"854 0 LINE",
"946 434 LINE",
"967 434 LINE SMOOTH"
);
}
);
width = 1671;
}
);
note = Psi;
unicode = 03A8;
},
{
glyphname = uni03A9;
lastChange = "2017-06-04 18:15:06 +0000";
layers = (
{
anchors = (
{
name = bottom;
position = "{623, 0}";
},
{
name = topleft;
position = "{212, 1462}";
}
);
layerId = "334C7BAA-C7B0-45C9-BED5-5E40ABBE215F";
paths = (
{
closed = 1;
nodes = (
"1017 1227 OFFCURVE",
"1110 1121 OFFCURVE",
"1110 928 CURVE SMOOTH",
"1110 645 OFFCURVE",
"981 427 OFFCURVE",
"723 276 CURVE",
"664 0 LINE",
"1313 0 LINE",
"1368 260 LINE",
"1004 260 LINE",
"1272 391 OFFCURVE",
"1421 637 OFFCURVE",
"1421 965 CURVE SMOOTH",
"1421 1290 OFFCURVE",
"1215 1485 OFFCURVE",
"874 1485 CURVE SMOOTH",
"731 1485 OFFCURVE",
"604 1454 OFFCURVE",
"495 1392 CURVE SMOOTH",
"276 1268 OFFCURVE",
"145 1016 OFFCURVE",
"145 719 CURVE SMOOTH",
"145 518 OFFCURVE",
"230 344 OFFCURVE",
"365 260 CURVE",
"-8 260 LINE",
"-61 0 LINE",
"549 0 LINE",
"608 276 LINE",
"503 376 OFFCURVE",
"453 507 OFFCURVE",
"453 711 CURVE SMOOTH",
"453 805 OFFCURVE",
"472 894 OFFCURVE",
"509 977 CURVE SMOOTH",
"583 1143 OFFCURVE",
"704 1227 OFFCURVE",
"852 1227 CURVE SMOOTH"
);
}
);
width = 1483;
}
);
note = uni03A9;
unicode = 03A9;
},
{
glyphname = alpha;
lastChange = "2017-06-04 18:15:06 +0000";
layers = (
{
anchors = (
{
name = top;
position = "{740, 1118}";
}
);
layerId = "334C7BAA-C7B0-45C9-BED5-5E40ABBE215F";
paths = (
{
closed = 1;
nodes = (
"813 1092 OFFCURVE",
"735 1139 OFFCURVE",
"616 1139 CURVE SMOOTH",
"516 1139 OFFCURVE",
"426 1107 OFFCURVE",
"345 1042 CURVE SMOOTH",
"184 912 OFFCURVE",
"90 668 OFFCURVE",
"90 385 CURVE SMOOTH",
"90 129 OFFCURVE",
"202 -20 OFFCURVE",
"395 -20 CURVE SMOOTH",
"518 -20 OFFCURVE",
"605 18 OFFCURVE",
"713 145 CURVE",
"719 145 LINE",
"749 35 OFFCURVE",
"831 -20 OFFCURVE",
"965 -20 CURVE SMOOTH",
"1033 -20 OFFCURVE",
"1088 -10 OFFCURVE",
"1130 10 CURVE",
"1130 248 LINE",
"1111 240 OFFCURVE",
"1089 236 OFFCURVE",
"1065 236 CURVE SMOOTH",
"1024 236 OFFCURVE",
"1004 258 OFFCURVE",
"1004 301 CURVE SMOOTH",
"1004 316 OFFCURVE",
"1006 334 OFFCURVE",
"1010 354 CURVE SMOOTH",
"1077 674 LINE SMOOTH",
"1112 834 OFFCURVE",
"1181 1007 OFFCURVE",
"1241 1118 CURVE",
"987 1118 LINE",
"958 1087 OFFCURVE",
"912 1022 OFFCURVE",
"887 967 CURVE",
"881 967 LINE"
);
},
{
closed = 1;
nodes = (
"437 223 OFFCURVE",
"395 282 OFFCURVE",
"395 414 CURVE SMOOTH",
"395 494 OFFCURVE",
"407 572 OFFCURVE",
"431 647 CURVE SMOOTH",
"479 797 OFFCURVE",
"564 895 OFFCURVE",
"659 895 CURVE SMOOTH",
"746 895 OFFCURVE",
"788 826 OFFCURVE",
"788 719 CURVE SMOOTH",
"788 662 OFFCURVE",
"777 588 OFFCURVE",
"755 499 CURVE SMOOTH",
"710 319 OFFCURVE",
"631 223 OFFCURVE",
"528 223 CURVE SMOOTH"
);
}
);
width = 1241;
}
);
note = alpha;
unicode = 03B1;
},
{
glyphname = beta;
lastChange = "2017-02-21 05:28:43 +0000";
layers = (
{
layerId = "334C7BAA-C7B0-45C9-BED5-5E40ABBE215F";
paths = (
{
closed = 1;
nodes = (
"503 1567 OFFCURVE",
"340 1435 OFFCURVE",
"279 1143 CURVE SMOOTH",
"-66 -492 LINE",
"238 -492 LINE",
"352 55 LINE",
"453 -1 OFFCURVE",
"538 -20 OFFCURVE",
"643 -20 CURVE SMOOTH",
"744 -20 OFFCURVE",
"831 0 OFFCURVE",
"906 40 CURVE SMOOTH",
"1055 119 OFFCURVE",
"1147 288 OFFCURVE",
"1147 487 CURVE SMOOTH",
"1147 664 OFFCURVE",
"1046 784 OFFCURVE",
"879 815 CURVE",
"1102 852 OFFCURVE",
"1231 982 OFFCURVE",
"1231 1217 CURVE SMOOTH",
"1231 1436 OFFCURVE",
"1075 1567 OFFCURVE",
"803 1567 CURVE SMOOTH"
);
},
{
closed = 1;
nodes = (
"869 1329 OFFCURVE",
"922 1277 OFFCURVE",
"922 1186 CURVE SMOOTH",
"922 1021 OFFCURVE",
"835 926 OFFCURVE",
"688 926 CURVE SMOOTH",
"629 926 LINE",
"578 684 LINE",
"625 684 LINE SMOOTH",
"757 684 OFFCURVE",
"829 623 OFFCURVE",
"829 500 CURVE SMOOTH",
"829 332 OFFCURVE",
"737 223 OFFCURVE",
"586 223 CURVE SMOOTH",
"514 223 OFFCURVE",
"437 249 OFFCURVE",
"401 285 CURVE",
"575 1085 LINE SMOOTH",
"610 1250 OFFCURVE",
"675 1329 OFFCURVE",
"786 1329 CURVE SMOOTH"
);
}
);
width = 1270;
}
);
note = beta;
unicode = 03B2;
},
{
glyphname = gamma;
lastChange = "2017-02-21 05:28:43 +0000";
layers = (
{
layerId = "334C7BAA-C7B0-45C9-BED5-5E40ABBE215F";
paths = (
{
closed = 1;
nodes = (
"422 -301 OFFCURVE",
"485 -135 OFFCURVE",
"616 106 CURVE SMOOTH",
"1167 1118 LINE",
"844 1118 LINE",
"652 735 OFFCURVE",
"549 528 OFFCURVE",
"534 497 CURVE SMOOTH",
"504 433 OFFCURVE",
"471 358 OFFCURVE",
"451 303 CURVE",
"446 303 LINE",
"449 523 OFFCURVE",
"430 699 OFFCURVE",
"397 1118 CURVE",
"102 1118 LINE",
"242 14 LINE",
"154 -152 OFFCURVE",
"93 -321 OFFCURVE",
"59 -492 CURVE",
"381 -492 LINE"
);
}
);
width = 1049;
}
);
note = gamma;
unicode = 03B3;
},
{
glyphname = delta;
lastChange = "2017-02-21 05:28:43 +0000";
layers = (
{
layerId = "334C7BAA-C7B0-45C9-BED5-5E40ABBE215F";
paths = (
{
closed = 1;
nodes = (
"227 849 OFFCURVE",
"55 645 OFFCURVE",
"55 373 CURVE SMOOTH",
"55 130 OFFCURVE",
"225 -20 OFFCURVE",
"494 -20 CURVE SMOOTH",
"861 -20 OFFCURVE",
"1081 210 OFFCURVE",
"1081 571 CURVE SMOOTH",
"1081 738 OFFCURVE",
"1003 883 OFFCURVE",
"848 1008 CURVE SMOOTH",
"779 1065 OFFCURVE",
"736 1101 OFFCURVE",
"721 1118 CURVE SMOOTH",
"690 1151 OFFCURVE",
"678 1181 OFFCURVE",
"678 1221 CURVE SMOOTH",
"678 1296 OFFCURVE",
"736 1341 OFFCURVE",
"825 1341 CURVE SMOOTH",
"912 1341 OFFCURVE",
"1007 1307 OFFCURVE",
"1112 1239 CURVE",
"1231 1454 LINE",
"1099 1534 OFFCURVE",
"972 1567 OFFCURVE",
"823 1567 CURVE SMOOTH",
"551 1567 OFFCURVE",
"379 1431 OFFCURVE",
"379 1210 CURVE SMOOTH",
"379 1105 OFFCURVE",
"429 1010 OFFCURVE",
"530 926 CURVE"
);
},
{
closed = 1;
nodes = (
"424 225 OFFCURVE",
"373 290 OFFCURVE",
"373 403 CURVE SMOOTH",
"373 578 OFFCURVE",
"494 734 OFFCURVE",
"662 791 CURVE",
"730 737 OFFCURVE",
"764 661 OFFCURVE",
"764 563 CURVE SMOOTH",
"764 366 OFFCURVE",
"663 225 OFFCURVE",
"528 225 CURVE SMOOTH"
);
}
);
width = 1204;
}
);
note = delta;
unicode = 03B4;
},
{
glyphname = epsilon;
lastChange = "2017-06-04 18:15:06 +0000";
layers = (
{
anchors = (
{
name = top;
position = "{645, 1118}";
}
);
layerId = "334C7BAA-C7B0-45C9-BED5-5E40ABBE215F";
paths = (
{
closed = 1;
nodes = (
"672 688 LINE SMOOTH",
"539 688 OFFCURVE",
"475 719 OFFCURVE",
"475 788 CURVE SMOOTH",
"475 869 OFFCURVE",
"547 913 OFFCURVE",
"676 913 CURVE SMOOTH",
"772 913 OFFCURVE",
"856 892 OFFCURVE",
"979 831 CURVE",
"1071 1053 LINE",
"966 1110 OFFCURVE",
"831 1139 OFFCURVE",
"668 1139 CURVE SMOOTH",
"373 1139 OFFCURVE",
"201 1018 OFFCURVE",
"201 807 CURVE SMOOTH",
"201 712 OFFCURVE",
"260 633 OFFCURVE",
"367 592 CURVE",
"367 586 LINE",
"148 551 OFFCURVE",
"39 447 OFFCURVE",
"39 274 CURVE SMOOTH",
"39 89 OFFCURVE",
"208 -20 OFFCURVE",
"483 -20 CURVE SMOOTH",
"644 -20 OFFCURVE",
"778 6 OFFCURVE",
"885 59 CURVE",
"885 305 LINE",
"760 240 OFFCURVE",
"655 215 OFFCURVE",
"532 215 CURVE SMOOTH",
"417 215 OFFCURVE",
"356 257 OFFCURVE",
"356 332 CURVE SMOOTH",
"356 423 OFFCURVE",
"454 477 OFFCURVE",
"614 477 CURVE SMOOTH",
"762 477 LINE",
"807 688 LINE"
);
}
);
width = 1051;
}
);
note = epsilon;
unicode = 03B5;
},
{
glyphname = zeta;
lastChange = "2017-02-21 05:28:43 +0000";
layers = (
{
layerId = "334C7BAA-C7B0-45C9-BED5-5E40ABBE215F";
paths = (
{
closed = 1;
nodes = (
"90 246 OFFCURVE",
"176 118 OFFCURVE",
"383 25 CURVE SMOOTH",
"437 0 OFFCURVE",
"473 -21 OFFCURVE",
"492 -38 CURVE SMOOTH",
"511 -55 OFFCURVE",
"520 -75 OFFCURVE",
"520 -98 CURVE SMOOTH",
"520 -128 OFFCURVE",
"507 -162 OFFCURVE",
"482 -201 CURVE SMOOTH",
"456 -240 OFFCURVE",
"403 -300 OFFCURVE",
"324 -379 CURVE",
"639 -379 LINE",
"771 -256 OFFCURVE",
"825 -158 OFFCURVE",
"825 -37 CURVE SMOOTH",
"825 7 OFFCURVE",
"817 45 OFFCURVE",
"801 78 CURVE SMOOTH",
"768 143 OFFCURVE",
"714 189 OFFCURVE",
"573 256 CURVE SMOOTH",
"450 312 OFFCURVE",
"395 380 OFFCURVE",
"395 481 CURVE SMOOTH",
"395 564 OFFCURVE",
"418 646 OFFCURVE",
"463 728 CURVE SMOOTH",
"554 892 OFFCURVE",
"735 1073 OFFCURVE",
"1110 1374 CURVE",
"1149 1556 LINE",
"369 1556 LINE",
"319 1333 LINE",
"557 1333 LINE SMOOTH",
"625 1333 OFFCURVE",
"685 1337 OFFCURVE",
"737 1346 CURVE",
"553 1206 OFFCURVE",
"420 1091 OFFCURVE",
"338 1002 CURVE SMOOTH",
"174 823 OFFCURVE",
"90 646 OFFCURVE",
"90 438 CURVE SMOOTH"
);
}
);
width = 948;
}
);
note = zeta;
unicode = 03B6;
},
{
glyphname = eta;
lastChange = "2017-06-04 18:15:06 +0000";
layers = (
{
anchors = (
{
name = top;
position = "{738, 1118}";
}
);
layerId = "334C7BAA-C7B0-45C9-BED5-5E40ABBE215F";
paths = (
{
closed = 1;
nodes = (
"1125 708 OFFCURVE",
"1133 768 OFFCURVE",
"1133 817 CURVE SMOOTH",
"1133 1024 OFFCURVE",
"1028 1139 OFFCURVE",
"844 1139 CURVE SMOOTH",
"705 1139 OFFCURVE",
"586 1063 OFFCURVE",
"489 911 CURVE",
"483 911 LINE",
"504 1118 LINE",
"274 1118 LINE",
"37 0 LINE",
"338 0 LINE",
"436 463 LINE SMOOTH",
"493 735 OFFCURVE",
"598 895 OFFCURVE",
"721 895 CURVE SMOOTH",
"793 895 OFFCURVE",
"829 854 OFFCURVE",
"829 772 CURVE SMOOTH",
"829 738 OFFCURVE",
"824 698 OFFCURVE",
"813 653 CURVE SMOOTH",
"571 -492 LINE",
"872 -492 LINE",
"1110 637 LINE SMOOTH"
);
}
);
width = 1237;
}
);
note = eta;
unicode = 03B7;
},
{
glyphname = theta;
lastChange = "2017-02-21 05:28:43 +0000";
layers = (
{
layerId = "334C7BAA-C7B0-45C9-BED5-5E40ABBE215F";
paths = (
{
closed = 1;
nodes = (
"632 -20 OFFCURVE",
"751 26 OFFCURVE",
"848 117 CURVE SMOOTH",
"1042 300 OFFCURVE",
"1163 769 OFFCURVE",
"1163 1122 CURVE SMOOTH",
"1163 1417 OFFCURVE",
"1033 1579 OFFCURVE",
"780 1579 CURVE SMOOTH",
"687 1579 OFFCURVE",
"607 1561 OFFCURVE",
"538 1525 CURVE SMOOTH",
"400 1453 OFFCURVE",
"300 1323 OFFCURVE",
"220 1092 CURVE SMOOTH",
"140 860 OFFCURVE",
"100 617 OFFCURVE",
"100 432 CURVE SMOOTH",
"100 139 OFFCURVE",
"236 -20 OFFCURVE",
"492 -20 CURVE SMOOTH"
);
},
{
closed = 1;
nodes = (
"436 201 OFFCURVE",
"397 263 OFFCURVE",
"397 387 CURVE SMOOTH",
"397 466 OFFCURVE",
"407 561 OFFCURVE",
"428 672 CURVE",
"791 672 LINE",
"754 512 OFFCURVE",
"713 394 OFFCURVE",
"670 317 CURVE SMOOTH",
"627 240 OFFCURVE",
"575 201 OFFCURVE",
"514 201 CURVE SMOOTH"
);
},
{
closed = 1;
nodes = (
"832 1358 OFFCURVE",
"866 1289 OFFCURVE",
"866 1182 CURVE SMOOTH",
"866 1099 OFFCURVE",
"857 1004 OFFCURVE",
"838 899 CURVE",
"477 899 LINE",
"549 1205 OFFCURVE",
"642 1358 OFFCURVE",
"756 1358 CURVE SMOOTH"
);
}
);
width = 1198;
}
);
note = theta;
unicode = 03B8;
},
{
glyphname = iota;
lastChange = "2017-06-04 18:15:06 +0000";
layers = (
{
anchors = (
{
name = top;
position = "{495, 1118}";
}
);
layerId = "334C7BAA-C7B0-45C9-BED5-5E40ABBE215F";
paths = (
{
closed = 1;
nodes = (
"435 223 OFFCURVE",
"406 247 OFFCURVE",
"406 295 CURVE SMOOTH",
"406 310 OFFCURVE",
"410 338 OFFCURVE",
"418 377 CURVE SMOOTH",
"573 1118 LINE",
"272 1118 LINE",
"119 395 LINE SMOOTH",
"104 325 OFFCURVE",
"96 273 OFFCURVE",
"96 238 CURVE SMOOTH",
"96 61 OFFCURVE",
"190 -20 OFFCURVE",
"387 -20 CURVE SMOOTH",
"490 -20 OFFCURVE",
"579 -2 OFFCURVE",
"653 33 CURVE",
"653 258 LINE",
"590 235 OFFCURVE",
"536 223 OFFCURVE",
"492 223 CURVE SMOOTH"
);
}
);
width = 752;
}
);
note = iota;
unicode = 03B9;
},
{
glyphname = lambda;
lastChange = "2017-02-21 05:28:43 +0000";
layers = (
{
layerId = "334C7BAA-C7B0-45C9-BED5-5E40ABBE215F";
paths = (
{
closed = 1;
nodes = (
"236 0 LINE",
"481 459 LINE SMOOTH",
"502 499 OFFCURVE",
"521 540 OFFCURVE",
"538 582 CURVE SMOOTH",
"555 623 OFFCURVE",
"571 660 OFFCURVE",
"586 692 CURVE",
"591 581 OFFCURVE",
"597 502 OFFCURVE",
"604 453 CURVE SMOOTH",
"633 252 LINE SMOOTH",
"660 65 OFFCURVE",
"736 -20 OFFCURVE",
"889 -20 CURVE SMOOTH",
"967 -20 OFFCURVE",
"1030 -9 OFFCURVE",
"1079 12 CURVE",
"1079 246 LINE",
"1056 239 OFFCURVE",
"1033 236 OFFCURVE",
"1012 236 CURVE SMOOTH",
"979 236 OFFCURVE",
"955 251 OFFCURVE",
"938 280 CURVE SMOOTH",
"921 309 OFFCURVE",
"907 361 OFFCURVE",
"897 438 CURVE SMOOTH",
"795 1204 LINE SMOOTH",
"760 1457 OFFCURVE",
"648 1569 OFFCURVE",
"432 1569 CURVE SMOOTH",
"362 1569 OFFCURVE",
"298 1561 OFFCURVE",
"240 1546 CURVE",
"276 1300 LINE",
"314 1309 OFFCURVE",
"348 1313 OFFCURVE",
"377 1313 CURVE SMOOTH",
"461 1313 OFFCURVE",
"498 1270 OFFCURVE",
"510 1153 CURVE SMOOTH",
"520 1061 LINE",
"-92 0 LINE"
);
}
);
width = 1171;
}
);
note = lambda;
unicode = 03BB;
},
{
glyphname = nu;
lastChange = "2017-02-21 05:28:43 +0000";
layers = (
{
layerId = "334C7BAA-C7B0-45C9-BED5-5E40ABBE215F";
paths = (
{
closed = 1;
nodes = (
"539 0 LINE",
"871 301 OFFCURVE",
"1058 642 OFFCURVE",
"1145 1118 CURVE",
"838 1118 LINE",
"754 729 OFFCURVE",
"646 481 OFFCURVE",
"469 272 CURVE",
"469 361 OFFCURVE",
"466 437 OFFCURVE",
"459 502 CURVE SMOOTH",
"397 1118 LINE",
"102 1118 LINE",
"242 0 LINE"
);
}
);
width = 1126;
}
);
note = nu;
unicode = 03BD;
},
{
glyphname = xi;
lastChange = "2017-02-21 05:28:43 +0000";
layers = (
{
layerId = "334C7BAA-C7B0-45C9-BED5-5E40ABBE215F";
paths = (
{
closed = 1;
nodes = (
"791 915 LINE SMOOTH",
"638 915 OFFCURVE",
"559 972 OFFCURVE",
"559 1079 CURVE SMOOTH",
"559 1134 OFFCURVE",
"577 1182 OFFCURVE",
"612 1222 CURVE SMOOTH",
"683 1302 OFFCURVE",
"833 1346 OFFCURVE",
"1012 1346 CURVE SMOOTH",
"1036 1346 LINE",
"1081 1556 LINE",
"328 1556 LINE",
"279 1333 LINE",
"332 1333 LINE SMOOTH",
"371 1333 OFFCURVE",
"452 1337 OFFCURVE",
"575 1346 CURVE",
"351 1290 OFFCURVE",
"252 1193 OFFCURVE",
"252 1044 CURVE SMOOTH",
"252 937 OFFCURVE",
"327 858 OFFCURVE",
"455 827 CURVE",
"455 821 LINE",
"213 758 OFFCURVE",
"92 621 OFFCURVE",
"92 410 CURVE SMOOTH",
"92 238 OFFCURVE",
"180 118 OFFCURVE",
"383 25 CURVE SMOOTH",
"482 -20 OFFCURVE",
"516 -47 OFFCURVE",
"516 -98 CURVE SMOOTH",
"516 -129 OFFCURVE",
"503 -164 OFFCURVE",
"477 -205 CURVE SMOOTH",
"450 -246 OFFCURVE",
"399 -304 OFFCURVE",
"324 -379 CURVE",
"639 -379 LINE",
"771 -256 OFFCURVE",
"825 -158 OFFCURVE",
"825 -37 CURVE SMOOTH",
"825 46 OFFCURVE",
"795 107 OFFCURVE",
"737 158 CURVE SMOOTH",
"708 183 OFFCURVE",
"653 216 OFFCURVE",
"573 256 CURVE SMOOTH",
"429 325 OFFCURVE",
"395 370 OFFCURVE",
"395 461 CURVE SMOOTH",
"395 614 OFFCURVE",
"539 705 OFFCURVE",
"778 705 CURVE SMOOTH",
"848 705 LINE",
"893 915 LINE"
);
}
);
width = 948;
}
);
note = xi;
unicode = 03BE;
},
{
glyphname = pi;
lastChange = "2017-02-21 05:28:43 +0000";
layers = (
{
layerId = "334C7BAA-C7B0-45C9-BED5-5E40ABBE215F";
paths = (
{
closed = 1;
nodes = (
"1123 219 OFFCURVE",
"1098 243 OFFCURVE",
"1098 291 CURVE SMOOTH",
"1098 302 OFFCURVE",
"1101 321 OFFCURVE",
"1106 348 CURVE SMOOTH",
"1214 889 LINE",
"1454 889 LINE",
"1501 1118 LINE",
"319 1118 LINE",
"123 1036 LINE",
"94 889 LINE",
"334 889 LINE",
"143 0 LINE",
"449 0 LINE",
"637 889 LINE",
"911 889 LINE",
"835 514 OFFCURVE",
"795 314 OFFCURVE",
"792 291 CURVE",
"788 268 OFFCURVE",
"786 247 OFFCURVE",
"786 229 CURVE SMOOTH",
"786 68 OFFCURVE",
"882 -20 OFFCURVE",
"1057 -20 CURVE SMOOTH",
"1156 -20 OFFCURVE",
"1238 -2 OFFCURVE",
"1305 35 CURVE",
"1305 252 LINE",
"1261 230 OFFCURVE",
"1217 219 OFFCURVE",
"1174 219 CURVE SMOOTH"
);
}
);
width = 1464;
}
);
note = pi;
unicode = 03C0;
},
{
glyphname = rho;
lastChange = "2017-02-21 05:28:43 +0000";
layers = (
{
layerId = "334C7BAA-C7B0-45C9-BED5-5E40ABBE215F";
paths = (
{
closed = 1;
nodes = (
"1128 977 OFFCURVE",
"973 1139 OFFCURVE",
"713 1139 CURVE SMOOTH",
"608 1139 OFFCURVE",
"520 1121 OFFCURVE",
"449 1084 CURVE SMOOTH",
"306 1010 OFFCURVE",
"223 878 OFFCURVE",
"162 590 CURVE SMOOTH",
"-66 -492 LINE",
"233 -492 LINE",
"281 -267 OFFCURVE",
"310 -125 OFFCURVE",
"321 -66 CURVE SMOOTH",
"332 -7 OFFCURVE",
"340 49 OFFCURVE",
"346 104 CURVE",
"409 21 OFFCURVE",
"495 -20 OFFCURVE",
"604 -20 CURVE SMOOTH",
"707 -20 OFFCURVE",
"798 11 OFFCURVE",
"878 72 CURVE SMOOTH",
"1038 194 OFFCURVE",
"1128 425 OFFCURVE",
"1128 705 CURVE SMOOTH"
);
},
{
closed = 1;
nodes = (
"778 895 OFFCURVE",
"823 826 OFFCURVE",
"823 709 CURVE SMOOTH",
"823 636 OFFCURVE",
"810 559 OFFCURVE",
"785 476 CURVE SMOOTH",
"734 311 OFFCURVE",
"653 223 OFFCURVE",
"561 223 CURVE SMOOTH",
"494 223 OFFCURVE",
"445 252 OFFCURVE",
"412 311 CURVE",
"467 575 LINE SMOOTH",
"512 792 OFFCURVE",
"578 895 OFFCURVE",
"694 895 CURVE SMOOTH"
);
}
);
width = 1219;
}
);
note = rho;
unicode = 03C1;
},
{
glyphname = sigma1;
lastChange = "2017-02-21 05:28:43 +0000";
layers = (
{
layerId = "334C7BAA-C7B0-45C9-BED5-5E40ABBE215F";
paths = (
{
closed = 1;
nodes = (
"395 556 OFFCURVE",
"408 623 OFFCURVE",
"435 687 CURVE SMOOTH",
"487 815 OFFCURVE",
"582 895 OFFCURVE",
"694 895 CURVE SMOOTH",
"759 895 OFFCURVE",
"834 876 OFFCURVE",
"918 838 CURVE",
"1010 1067 LINE",
"909 1115 OFFCURVE",
"803 1139 OFFCURVE",
"690 1139 CURVE SMOOTH",
"577 1139 OFFCURVE",
"476 1110 OFFCURVE",
"387 1053 CURVE SMOOTH",
"208 938 OFFCURVE",
"90 699 OFFCURVE",
"90 446 CURVE SMOOTH",
"90 249 OFFCURVE",
"174 124 OFFCURVE",
"383 29 CURVE SMOOTH",
"478 -14 OFFCURVE",
"516 -45 OFFCURVE",
"516 -98 CURVE SMOOTH",
"516 -129 OFFCURVE",
"503 -164 OFFCURVE",
"477 -205 CURVE SMOOTH",
"450 -246 OFFCURVE",
"399 -304 OFFCURVE",
"324 -379 CURVE",
"639 -379 LINE",
"771 -256 OFFCURVE",
"825 -158 OFFCURVE",
"825 -37 CURVE SMOOTH",
"825 7 OFFCURVE",
"817 45 OFFCURVE",
"801 78 CURVE SMOOTH",
"768 143 OFFCURVE",
"714 189 OFFCURVE",
"573 256 CURVE SMOOTH",
"440 316 OFFCURVE",
"395 380 OFFCURVE",
"395 487 CURVE SMOOTH"
);
}
);
width = 948;
}
);
note = sigma1;
unicode = 03C2;
},
{
glyphname = sigma;
lastChange = "2017-02-21 05:28:43 +0000";
layers = (
{
layerId = "334C7BAA-C7B0-45C9-BED5-5E40ABBE215F";
paths = (
{
closed = 1;
nodes = (
"1098 727 OFFCURVE",
"1057 835 OFFCURVE",
"1008 895 CURVE",
"1292 895 LINE",
"1339 1118 LINE",
"762 1118 LINE SMOOTH",
"624 1118 OFFCURVE",
"504 1090 OFFCURVE",
"403 1034 CURVE SMOOTH",
"199 922 OFFCURVE",
"90 705 OFFCURVE",
"90 424 CURVE SMOOTH",
"90 147 OFFCURVE",
"256 -20 OFFCURVE",
"524 -20 CURVE SMOOTH",
"699 -20 OFFCURVE",
"837 43 OFFCURVE",
"937 155 CURVE SMOOTH",
"1036 267 OFFCURVE",
"1098 445 OFFCURVE",
"1098 590 CURVE SMOOTH"
);
},
{
closed = 1;
nodes = (
"791 827 OFFCURVE",
"805 756 OFFCURVE",
"805 682 CURVE SMOOTH",
"805 422 OFFCURVE",
"698 225 OFFCURVE",
"543 225 CURVE SMOOTH",
"443 225 OFFCURVE",
"393 293 OFFCURVE",
"393 430 CURVE SMOOTH",
"393 518 OFFCURVE",
"407 598 OFFCURVE",
"434 669 CURVE SMOOTH",
"489 811 OFFCURVE",
"595 895 OFFCURVE",
"735 895 CURVE SMOOTH",
"764 895 LINE"
);
}
);
width = 1266;
}
);
note = sigma;
unicode = 03C3;
},
{
glyphname = tau;
lastChange = "2017-02-21 05:28:43 +0000";
layers = (
{
layerId = "334C7BAA-C7B0-45C9-BED5-5E40ABBE215F";
paths = (
{
closed = 1;
nodes = (
"586 223 OFFCURVE",
"557 248 OFFCURVE",
"557 297 CURVE SMOOTH",
"557 312 OFFCURVE",
"559 330 OFFCURVE",
"563 350 CURVE SMOOTH",
"678 889 LINE",
"1012 889 LINE",
"1061 1118 LINE",
"313 1118 LINE",
"123 1036 LINE",
"94 889 LINE",
"377 889 LINE",
"262 350 LINE SMOOTH",
"254 309 OFFCURVE",
"250 271 OFFCURVE",
"250 238 CURVE SMOOTH",
"250 61 OFFCURVE",
"344 -20 OFFCURVE",
"541 -20 CURVE SMOOTH",
"644 -20 OFFCURVE",
"733 -2 OFFCURVE",
"807 33 CURVE",
"807 258 LINE",
"742 235 OFFCURVE",
"688 223 OFFCURVE",
"645 223 CURVE SMOOTH"
);
}
);
width = 1022;
}
);
note = tau;
unicode = 03C4;
},
{
glyphname = upsilon;
lastChange = "2017-06-04 18:15:06 +0000";
layers = (
{
anchors = (
{
name = top;
position = "{750, 1118}";
}
);
layerId = "334C7BAA-C7B0-45C9-BED5-5E40ABBE215F";
paths = (
{
closed = 1;
nodes = (
"749 -20 OFFCURVE",
"910 72 OFFCURVE",
"1014 244 CURVE SMOOTH",
"1117 415 OFFCURVE",
"1171 677 OFFCURVE",
"1171 1118 CURVE",
"870 1118 LINE",
"870 523 OFFCURVE",
"767 225 OFFCURVE",
"561 225 CURVE SMOOTH",
"467 225 OFFCURVE",
"420 277 OFFCURVE",
"420 381 CURVE SMOOTH",
"420 421 OFFCURVE",
"425 461 OFFCURVE",
"434 502 CURVE SMOOTH",
"563 1118 LINE",
"264 1118 LINE",
"135 510 LINE SMOOTH",
"124 457 OFFCURVE",
"119 407 OFFCURVE",
"119 360 CURVE SMOOTH",
"119 117 OFFCURVE",
"264 -20 OFFCURVE",
"532 -20 CURVE SMOOTH"
);
}
);
width = 1262;
}
);
note = upsilon;
unicode = 03C5;
},
{
glyphname = phi;
lastChange = "2017-02-21 05:28:43 +0000";
layers = (
{
layerId = "334C7BAA-C7B0-45C9-BED5-5E40ABBE215F";
paths = (
{
closed = 1;
nodes = (
"973 854 OFFCURVE",
"1016 913 OFFCURVE",
"1075 913 CURVE SMOOTH",
"1138 913 OFFCURVE",
"1169 854 OFFCURVE",
"1169 735 CURVE SMOOTH",
"1169 648 OFFCURVE",
"1156 567 OFFCURVE",
"1129 494 CURVE SMOOTH",
"1075 346 OFFCURVE",
"972 248 OFFCURVE",
"836 227 CURVE",
"946 737 LINE SMOOTH"
);
},
{
closed = 1;
nodes = (
"784 -18 LINE",
"922 -12 OFFCURVE",
"1044 22 OFFCURVE",
"1149 84 CURVE SMOOTH",
"1359 207 OFFCURVE",
"1475 430 OFFCURVE",
"1475 709 CURVE SMOOTH",
"1475 976 OFFCURVE",
"1330 1139 OFFCURVE",
"1085 1139 CURVE SMOOTH",
"852 1139 OFFCURVE",
"722 1021 OFFCURVE",
"659 741 CURVE SMOOTH",
"549 225 LINE",
"458 248 OFFCURVE",
"397 326 OFFCURVE",
"397 471 CURVE SMOOTH",
"397 643 OFFCURVE",
"470 803 OFFCURVE",
"647 983 CURVE",
"455 1159 LINE",
"198 946 OFFCURVE",
"90 732 OFFCURVE",
"90 461 CURVE SMOOTH",
"90 197 OFFCURVE",
"250 23 OFFCURVE",
"502 -10 CURVE",
"397 -492 LINE",
"688 -492 LINE"
);
}
);
width = 1565;
}
);
note = phi;
unicode = 03C6;
},
{
glyphname = chi;
lastChange = "2017-02-21 05:28:43 +0000";
layers = (
{
layerId = "334C7BAA-C7B0-45C9-BED5-5E40ABBE215F";
paths = (
{
closed = 1;
nodes = (
"239 1139 OFFCURVE",
"171 1126 OFFCURVE",
"104 1100 CURVE",
"156 862 LINE",
"182 872 OFFCURVE",
"206 877 OFFCURVE",
"229 877 CURVE SMOOTH",
"285 877 OFFCURVE",
"309 838 OFFCURVE",
"326 735 CURVE SMOOTH",
"379 401 LINE",
"-260 -492 LINE",
"68 -492 LINE",
"453 88 LINE",
"494 -193 LINE SMOOTH",
"525 -406 OFFCURVE",
"606 -492 OFFCURVE",
"774 -492 CURVE SMOOTH",
"839 -492 OFFCURVE",
"904 -481 OFFCURVE",
"969 -459 CURVE",
"969 -221 LINE",
"930 -231 OFFCURVE",
"896 -236 OFFCURVE",
"866 -236 CURVE SMOOTH",
"801 -236 OFFCURVE",
"772 -196 OFFCURVE",
"760 -119 CURVE SMOOTH",
"686 344 LINE",
"1260 1118 LINE",
"928 1118 LINE",
"608 653 LINE",
"582 836 LINE SMOOTH",
"550 1053 OFFCURVE",
"472 1139 OFFCURVE",
"307 1139 CURVE SMOOTH"
);
}
);
width = 1130;
}
);
note = chi;
unicode = 03C7;
},
{
glyphname = psi;
lastChange = "2017-02-21 05:28:43 +0000";
layers = (
{
layerId = "334C7BAA-C7B0-45C9-BED5-5E40ABBE215F";
paths = (
{
closed = 1;
nodes = (
"598 211 LINE",
"482 218 OFFCURVE",
"420 278 OFFCURVE",
"420 381 CURVE SMOOTH",
"420 421 OFFCURVE",
"425 461 OFFCURVE",
"434 502 CURVE SMOOTH",
"563 1118 LINE",
"264 1118 LINE",
"135 510 LINE SMOOTH",
"124 457 OFFCURVE",
"119 407 OFFCURVE",
"119 360 CURVE SMOOTH",
"119 133 OFFCURVE",
"268 -1 OFFCURVE",
"547 -29 CURVE",
"449 -492 LINE",
"737 -492 LINE",
"836 -29 LINE",
"1003 -14 OFFCURVE",
"1141 33 OFFCURVE",
"1248 114 CURVE SMOOTH",
"1463 275 OFFCURVE",
"1565 563 OFFCURVE",
"1565 1118 CURVE",
"1264 1118 LINE",
"1264 826 OFFCURVE",
"1234 608 OFFCURVE",
"1174 464 CURVE SMOOTH",
"1113 319 OFFCURVE",
"1018 236 OFFCURVE",
"887 215 CURVE",
"1171 1554 LINE",
"883 1554 LINE"
);
}
);
width = 1655;
}
);
note = psi;
unicode = 03C8;
},
{
glyphname = omega;
lastChange = "2017-06-04 18:15:06 +0000";
layers = (
{
anchors = (
{
name = bottom;
position = "{721, 0}";
},
{
name = top;
position = "{959, 1118}";
}
);
layerId = "334C7BAA-C7B0-45C9-BED5-5E40ABBE215F";
paths = (
{
closed = 1;
nodes = (
"579 -20 OFFCURVE",
"684 37 OFFCURVE",
"772 182 CURVE",
"810 47 OFFCURVE",
"902 -20 OFFCURVE",
"1047 -20 CURVE SMOOTH",
"1390 -20 OFFCURVE",
"1589 314 OFFCURVE",
"1589 854 CURVE SMOOTH",
"1589 947 OFFCURVE",
"1579 1035 OFFCURVE",
"1559 1118 CURVE",
"1274 1118 LINE",
"1295 1027 OFFCURVE",
"1305 932 OFFCURVE",
"1305 831 CURVE SMOOTH",
"1305 723 OFFCURVE",
"1293 620 OFFCURVE",
"1269 522 CURVE SMOOTH",
"1220 325 OFFCURVE",
"1136 217 OFFCURVE",
"1040 217 CURVE SMOOTH",
"973 217 OFFCURVE",
"940 255 OFFCURVE",
"940 332 CURVE SMOOTH",
"940 363 OFFCURVE",
"947 411 OFFCURVE",
"961 476 CURVE SMOOTH",
"974 541 OFFCURVE",
"995 636 OFFCURVE",
"1022 762 CURVE",
"737 762 LINE",
"674 467 LINE SMOOTH",
"637 291 OFFCURVE",
"585 217 OFFCURVE",
"492 217 CURVE SMOOTH",
"417 217 OFFCURVE",
"379 274 OFFCURVE",
"379 389 CURVE SMOOTH",
"379 610 OFFCURVE",
"479 883 OFFCURVE",
"639 1118 CURVE",
"336 1118 LINE",
"172 857 OFFCURVE",
"90 612 OFFCURVE",
"90 381 CURVE SMOOTH",
"90 128 OFFCURVE",
"217 -20 OFFCURVE",
"438 -20 CURVE SMOOTH"
);
}
);
width = 1679;
}
);
note = omega;
unicode = 03C9;
},
{
glyphname = afii10051;
lastChange = "2017-02-21 05:28:43 +0000";
layers = (
{
layerId = "334C7BAA-C7B0-45C9-BED5-5E40ABBE215F";
paths = (
{
closed = 1;
nodes = (
"1116 -17 OFFCURVE",
"1214 31 OFFCURVE",
"1279 138 CURVE SMOOTH",
"1344 245 OFFCURVE",
"1379 486 OFFCURVE",
"1383 530 CURVE SMOOTH",
"1385 552 OFFCURVE",
"1386 576 OFFCURVE",
"1386 602 CURVE SMOOTH",
"1386 810 OFFCURVE",
"1247 932 OFFCURVE",
"1010 932 CURVE SMOOTH",
"768 932 LINE",
"825 1204 LINE",
"1167 1204 LINE",
"1223 1462 LINE",
"223 1462 LINE",
"168 1204 LINE",
"520 1204 LINE",
"264 0 LINE",
"569 0 LINE",
"713 674 LINE",
"946 674 LINE SMOOTH",
"1039 674 OFFCURVE",
"1079 640 OFFCURVE",
"1079 559 CURVE",
"1080 552 OFFCURVE",
"1079 536 OFFCURVE",
"1076 513 CURVE SMOOTH",
"1073 490 OFFCURVE",
"1065 450 OFFCURVE",
"1053 394 CURVE SMOOTH",
"1028 281 OFFCURVE",
"982 233 OFFCURVE",
"885 233 CURVE SMOOTH",
"840 233 OFFCURVE",
"790 246 OFFCURVE",
"737 272 CURVE",
"737 18 LINE",
"789 -7 OFFCURVE",
"854 -20 OFFCURVE",
"932 -20 CURVE SMOOTH"
);
}
);
width = 1520;
}
);
note = afii10051;
unicode = 0402;
},
{
glyphname = afii10053;
lastChange = "2017-02-21 05:28:43 +0000";
layers = (
{
layerId = "334C7BAA-C7B0-45C9-BED5-5E40ABBE215F";
paths = (
{
closed = 1;
nodes = (
"1021 1227 OFFCURVE",
"1121 1185 OFFCURVE",
"1217 1130 CURVE",
"1335 1380 LINE",
"1196 1455 OFFCURVE",
"1068 1485 OFFCURVE",
"905 1485 CURVE SMOOTH",
"754 1485 OFFCURVE",
"621 1447 OFFCURVE",
"505 1371 CURVE SMOOTH",
"273 1218 OFFCURVE",
"123 902 OFFCURVE",
"123 553 CURVE SMOOTH",
"123 188 OFFCURVE",
"320 -20 OFFCURVE",
"659 -20 CURVE SMOOTH",
"801 -20 OFFCURVE",
"934 6 OFFCURVE",
"1059 57 CURVE",
"1059 317 LINE",
"931 266 OFFCURVE",
"818 240 OFFCURVE",
"721 240 CURVE SMOOTH",
"530 240 OFFCURVE",
"434 343 OFFCURVE",
"434 549 CURVE SMOOTH",
"434 580 LINE",
"436 610 LINE",
"963 610 LINE",
"1016 864 LINE",
"483 864 LINE",
"559 1093 OFFCURVE",
"710 1227 OFFCURVE",
"905 1227 CURVE SMOOTH"
);
}
);
width = 1253;
}
);
note = afii10053;
unicode = 0404;
},
{
glyphname = afii10058;
lastChange = "2017-02-21 05:28:43 +0000";
layers = (
{
layerId = "334C7BAA-C7B0-45C9-BED5-5E40ABBE215F";
paths = (
{
closed = 1;
nodes = (
"573 1462 LINE",
"526 1277 OFFCURVE",
"481 1109 OFFCURVE",
"438 960 CURVE SMOOTH",
"352 661 OFFCURVE",
"281 464 OFFCURVE",
"228 371 CURVE SMOOTH",
"175 278 OFFCURVE",
"126 238 OFFCURVE",
"39 238 CURVE SMOOTH",
"8 238 OFFCURVE",
"-26 245 OFFCURVE",
"-61 258 CURVE",
"-61 4 LINE",
"-19 -12 OFFCURVE",
"29 -20 OFFCURVE",
"82 -20 CURVE SMOOTH",
"282 -20 OFFCURVE",
"389 52 OFFCURVE",
"487 234 CURVE SMOOTH",
"585 416 OFFCURVE",
"698 777 OFFCURVE",
"803 1204 CURVE",
"1057 1204 LINE",
"803 0 LINE",
"1241 0 LINE SMOOTH",
"1638 0 OFFCURVE",
"1855 178 OFFCURVE",
"1855 502 CURVE SMOOTH",
"1855 759 OFFCURVE",
"1682 901 OFFCURVE",
"1366 901 CURVE SMOOTH",
"1298 901 LINE",
"1417 1462 LINE"
);
},
{
closed = 1;
nodes = (
"1354 647 LINE SMOOTH",
"1483 647 OFFCURVE",
"1546 591 OFFCURVE",
"1546 492 CURVE SMOOTH",
"1546 336 OFFCURVE",
"1452 254 OFFCURVE",
"1280 254 CURVE SMOOTH",
"1161 254 LINE",
"1245 647 LINE"
);
}
);
width = 1962;
}
);
note = afii10058;
unicode = 0409;
},
{
glyphname = afii10059;
lastChange = "2017-02-21 05:28:43 +0000";
layers = (
{
layerId = "334C7BAA-C7B0-45C9-BED5-5E40ABBE215F";
paths = (
{
closed = 1;
nodes = (
"1815 761 OFFCURVE",
"1650 901 OFFCURVE",
"1343 901 CURVE SMOOTH",
"1257 901 LINE",
"1376 1462 LINE",
"1071 1462 LINE",
"950 901 LINE",
"549 901 LINE",
"668 1462 LINE",
"362 1462 LINE",
"53 0 LINE",
"358 0 LINE",
"496 647 LINE",
"899 647 LINE",
"762 0 LINE",
"1210 0 LINE SMOOTH",
"1599 0 OFFCURVE",
"1815 181 OFFCURVE",
"1815 506 CURVE SMOOTH"
);
},
{
closed = 1;
nodes = (
"1313 647 LINE SMOOTH",
"1441 647 OFFCURVE",
"1505 593 OFFCURVE",
"1505 485 CURVE SMOOTH",
"1505 338 OFFCURVE",
"1414 254 OFFCURVE",
"1247 254 CURVE SMOOTH",
"1120 254 LINE",
"1204 647 LINE"
);
}
);
width = 1921;
}
);
note = afii10059;
unicode = 040A;
},
{
glyphname = afii10060;
lastChange = "2017-02-21 05:28:43 +0000";
layers = (
{
layerId = "334C7BAA-C7B0-45C9-BED5-5E40ABBE215F";
paths = (
{
closed = 1;
nodes = (
"1079 531 OFFCURVE",
"1076 504 OFFCURVE",
"1069 471 CURVE SMOOTH",
"969 0 LINE",
"1278 0 LINE",
"1362 418 LINE SMOOTH",
"1377 493 OFFCURVE",
"1384 551 OFFCURVE",
"1384 592 CURVE SMOOTH",
"1384 805 OFFCURVE",
"1253 932 OFFCURVE",
"993 932 CURVE SMOOTH",
"768 932 LINE",
"825 1204 LINE",
"1167 1204 LINE",
"1223 1462 LINE",
"223 1462 LINE",
"168 1204 LINE",
"520 1204 LINE",
"264 0 LINE",
"569 0 LINE",
"713 674 LINE",
"930 674 LINE SMOOTH",
"1030 674 OFFCURVE",
"1079 642 OFFCURVE",
"1079 551 CURVE SMOOTH"
);
}
);
width = 1520;
}
);
note = afii10060;
unicode = 040B;
},
{
glyphname = afii10145;
lastChange = "2017-02-21 05:28:43 +0000";
layers = (
{
layerId = "334C7BAA-C7B0-45C9-BED5-5E40ABBE215F";
paths = (
{
closed = 1;
nodes = (
"438 0 LINE",
"346 -426 LINE",
"649 -426 LINE",
"741 0 LINE",
"1124 0 LINE",
"1434 1462 LINE",
"1130 1462 LINE",
"874 258 LINE",
"414 258 LINE",
"670 1462 LINE",
"362 1462 LINE",
"53 0 LINE"
);
}
);
width = 1423;
}
);
note = afii10145;
unicode = 040F;
},
{
glyphname = afii10018;
lastChange = "2017-02-21 05:28:43 +0000";
layers = (
{
layerId = "334C7BAA-C7B0-45C9-BED5-5E40ABBE215F";
paths = (
{
closed = 1;
nodes = (
"610 1208 LINE",
"1130 1208 LINE",
"1184 1462 LINE",
"362 1462 LINE",
"53 0 LINE",
"487 0 LINE SMOOTH",
"886 0 OFFCURVE",
"1102 176 OFFCURVE",
"1102 492 CURVE SMOOTH",
"1102 759 OFFCURVE",
"929 901 OFFCURVE",
"612 901 CURVE SMOOTH",
"545 901 LINE"
);
},
{
closed = 1;
nodes = (
"492 647 LINE",
"600 647 LINE SMOOTH",
"729 647 OFFCURVE",
"793 590 OFFCURVE",
"793 477 CURVE SMOOTH",
"793 336 OFFCURVE",
"693 254 OFFCURVE",
"508 254 CURVE SMOOTH",
"408 254 LINE"
);
}
);
width = 1212;
}
);
note = afii10018;
unicode = 0411;
},
{
glyphname = afii10021;
lastChange = "2017-02-21 05:28:43 +0000";
layers = (
{
layerId = "334C7BAA-C7B0-45C9-BED5-5E40ABBE215F";
paths = (
{
closed = 1;
nodes = (
"104 -426 LINE",
"197 0 LINE",
"981 0 LINE",
"889 -426 LINE",
"1192 -426 LINE",
"1337 258 LINE",
"1151 258 LINE",
"1407 1462 LINE",
"641 1462 LINE",
"480 973 OFFCURVE",
"304 587 OFFCURVE",
"76 258 CURVE",
"-53 258 LINE",
"-197 -426 LINE"
);
},
{
closed = 1;
nodes = (
"838 258 LINE",
"414 258 LINE",
"555 478 OFFCURVE",
"697 793 OFFCURVE",
"840 1204 CURVE",
"1040 1204 LINE"
);
}
);
width = 1475;
}
);
note = afii10021;
unicode = 0414;
},
{
glyphname = afii10024;
lastChange = "2017-06-04 18:15:06 +0000";
layers = (
{
anchors = (
{
name = bottomright;
position = "{1637, 0}";
},
{
name = top;
position = "{1080, 1462}";
}
);
layerId = "334C7BAA-C7B0-45C9-BED5-5E40ABBE215F";
paths = (
{
closed = 1;
nodes = (
"217 0 LINE",
"772 717 LINE",
"621 0 LINE",
"913 0 LINE",
"1065 719 LINE",
"1339 0 LINE",
"1655 0 LINE",
"1360 739 LINE",
"1942 1462 LINE",
"1614 1462 LINE",
"1077 778 LINE",
"1223 1462 LINE",
"930 1462 LINE",
"784 778 LINE",
"518 1462 LINE",
"215 1462 LINE",
"494 780 LINE",
"-125 0 LINE"
);
}
);
width = 1776;
}
);
note = afii10024;
unicode = 0416;
},
{
glyphname = afii10025;
lastChange = "2017-06-04 18:15:06 +0000";
layers = (
{
anchors = (
{
name = bottom;
position = "{492, 0}";
},
{
name = top;
position = "{803, 1462}";
}
);
layerId = "334C7BAA-C7B0-45C9-BED5-5E40ABBE215F";
paths = (
{
closed = 1;
nodes = (
"1200 1207 OFFCURVE",
"1182 1265 OFFCURVE",
"1146 1317 CURVE SMOOTH",
"1073 1421 OFFCURVE",
"934 1483 OFFCURVE",
"770 1483 CURVE SMOOTH",
"569 1483 OFFCURVE",
"416 1442 OFFCURVE",
"225 1321 CURVE",
"334 1112 LINE",
"461 1194 OFFCURVE",
"581 1235 OFFCURVE",
"694 1235 CURVE SMOOTH",
"819 1235 OFFCURVE",
"883 1177 OFFCURVE",
"883 1081 CURVE SMOOTH",
"883 948 OFFCURVE",
"755 881 OFFCURVE",
"500 881 CURVE SMOOTH",
"373 881 LINE",
"322 639 LINE",
"463 639 LINE SMOOTH",
"683 639 OFFCURVE",
"782 583 OFFCURVE",
"782 459 CURVE SMOOTH",
"782 306 OFFCURVE",
"667 223 OFFCURVE",
"440 223 CURVE SMOOTH",
"295 223 OFFCURVE",
"162 256 OFFCURVE",
"41 322 CURVE",
"41 59 LINE",
"145 2 OFFCURVE",
"280 -20 OFFCURVE",
"465 -20 CURVE SMOOTH",
"874 -20 OFFCURVE",
"1094 147 OFFCURVE",
"1094 446 CURVE SMOOTH",
"1094 621 OFFCURVE",
"975 739 OFFCURVE",
"784 762 CURVE",
"784 766 LINE",
"1047 783 OFFCURVE",
"1200 918 OFFCURVE",
"1200 1143 CURVE SMOOTH"
);
}
);
width = 1221;
}
);
note = afii10025;
unicode = 0417;
},
{
glyphname = afii10026;
lastChange = "2017-06-04 18:15:06 +0000";
layers = (
{
anchors = (
{
name = bottomright;
position = "{1407, 0}";
},
{
name = top;
position = "{965, 1462}";
}
);
layerId = "334C7BAA-C7B0-45C9-BED5-5E40ABBE215F";
paths = (
{
closed = 1;
nodes = (
"425 465 OFFCURVE",
"453 582 OFFCURVE",
"496 770 CURVE SMOOTH",
"643 1462 LINE",
"362 1462 LINE",
"53 0 LINE",
"428 0 LINE",
"1192 1063 LINE",
"1200 1061 LINE",
"1177 966 OFFCURVE",
"1148 839 OFFCURVE",
"1115 682 CURVE SMOOTH",
"1082 525 OFFCURVE",
"1034 297 OFFCURVE",
"971 0 CURVE",
"1247 0 LINE",
"1556 1462 LINE",
"1186 1462 LINE",
"422 418 LINE",
"412 418 LINE"
);
}
);
width = 1546;
}
);
note = afii10026;
unicode = 0418;
},
{
glyphname = afii10028;
lastChange = "2017-06-04 18:15:06 +0000";
layers = (
{
anchors = (
{
name = bottomright;
position = "{1080, 0}";
},
{
name = top;
position = "{802, 1462}";
}
);
layerId = "334C7BAA-C7B0-45C9-BED5-5E40ABBE215F";
paths = (
{
closed = 1;
nodes = (
"1407 1462 LINE",
"1063 1462 LINE",
"522 778 LINE",
"668 1462 LINE",
"362 1462 LINE",
"53 0 LINE",
"358 0 LINE",
"510 719 LINE",
"782 0 LINE",
"1120 0 LINE",
"825 739 LINE"
);
}
);
width = 1219;
}
);
note = afii10028;
unicode = 041A;
},
{
glyphname = afii10029;
lastChange = "2017-02-21 05:28:43 +0000";
layers = (
{
layerId = "334C7BAA-C7B0-45C9-BED5-5E40ABBE215F";
paths = (
{
closed = 1;
nodes = (
"819 0 LINE",
"1122 0 LINE",
"1434 1462 LINE",
"573 1462 LINE",
"526 1277 OFFCURVE",
"481 1109 OFFCURVE",
"438 960 CURVE SMOOTH",
"352 661 OFFCURVE",
"281 464 OFFCURVE",
"228 371 CURVE SMOOTH",
"175 278 OFFCURVE",
"126 238 OFFCURVE",
"39 238 CURVE SMOOTH",
"8 238 OFFCURVE",
"-26 245 OFFCURVE",
"-61 258 CURVE",
"-61 4 LINE",
"-19 -12 OFFCURVE",
"29 -20 OFFCURVE",
"82 -20 CURVE SMOOTH",
"282 -20 OFFCURVE",
"389 52 OFFCURVE",
"487 234 CURVE SMOOTH",
"585 416 OFFCURVE",
"698 777 OFFCURVE",
"803 1204 CURVE",
"1075 1204 LINE"
);
}
);
width = 1423;
}
);
note = afii10029;
unicode = 041B;
},
{
glyphname = afii10037;
lastChange = "2017-06-04 18:15:06 +0000";
layers = (
{
anchors = (
{
name = top;
position = "{805, 1462}";
}
);
layerId = "334C7BAA-C7B0-45C9-BED5-5E40ABBE215F";
paths = (
{
closed = 1;
nodes = (
"401 -20 OFFCURVE",
"509 27 OFFCURVE",
"606 130 CURVE SMOOTH",
"655 181 OFFCURVE",
"723 282 OFFCURVE",
"811 432 CURVE SMOOTH",
"1413 1462 LINE",
"1079 1462 LINE",
"735 829 LINE SMOOTH",
"721 803 OFFCURVE",
"699 753 OFFCURVE",
"668 680 CURVE",
"664 719 OFFCURVE",
"654 769 OFFCURVE",
"639 831 CURVE SMOOTH",
"485 1462 LINE",
"178 1462 LINE",
"463 420 LINE",
"430 366 OFFCURVE",
"404 328 OFFCURVE",
"383 307 CURVE SMOOTH",
"341 263 OFFCURVE",
"293 240 OFFCURVE",
"229 240 CURVE SMOOTH",
"151 240 OFFCURVE",
"85 253 OFFCURVE",
"31 279 CURVE",
"31 12 LINE",
"89 -9 OFFCURVE",
"159 -20 OFFCURVE",
"242 -20 CURVE SMOOTH"
);
}
);
width = 1225;
}
);
note = afii10037;
unicode = 0423;
},
{
glyphname = afii10040;
lastChange = "2017-02-21 05:28:43 +0000";
layers = (
{
layerId = "334C7BAA-C7B0-45C9-BED5-5E40ABBE215F";
paths = (
{
closed = 1;
nodes = (
"1434 1462 LINE",
"1130 1462 LINE",
"874 258 LINE",
"414 258 LINE",
"670 1462 LINE",
"362 1462 LINE",
"53 0 LINE",
"1030 0 LINE",
"938 -426 LINE",
"1241 -426 LINE",
"1384 246 LINE",
"1176 246 LINE"
);
}
);
width = 1501;
}
);
note = afii10040;
unicode = 0426;
},
{
glyphname = afii10041;
lastChange = "2017-06-04 18:15:06 +0000";
layers = (
{
anchors = (
{
name = bottomright;
position = "{1239, 0}";
},
{
name = top;
position = "{881, 1462}";
}
);
layerId = "334C7BAA-C7B0-45C9-BED5-5E40ABBE215F";
paths = (
{
closed = 1;
nodes = (
"1389 1462 LINE",
"1083 1462 LINE",
"944 807 LINE",
"835 758 OFFCURVE",
"736 733 OFFCURVE",
"649 733 CURVE SMOOTH",
"547 733 OFFCURVE",
"496 777 OFFCURVE",
"496 864 CURVE SMOOTH",
"496 888 OFFCURVE",
"499 915 OFFCURVE",
"506 946 CURVE SMOOTH",
"614 1462 LINE",
"309 1462 LINE",
"197 913 LINE SMOOTH",
"188 874 OFFCURVE",
"184 835 OFFCURVE",
"184 797 CURVE SMOOTH",
"184 594 OFFCURVE",
"322 475 OFFCURVE",
"545 475 CURVE SMOOTH",
"652 475 OFFCURVE",
"768 504 OFFCURVE",
"893 561 CURVE",
"774 0 LINE",
"1079 0 LINE"
);
}
);
width = 1378;
}
);
note = afii10041;
unicode = 0427;
},
{
glyphname = afii10042;
lastChange = "2017-02-21 05:28:43 +0000";
layers = (
{
layerId = "334C7BAA-C7B0-45C9-BED5-5E40ABBE215F";
paths = (
{
closed = 1;
nodes = (
"2066 1462 LINE",
"1753 1462 LINE",
"1497 258 LINE",
"1116 258 LINE",
"1372 1462 LINE",
"1057 1462 LINE",
"801 258 LINE",
"420 258 LINE",
"676 1462 LINE",
"362 1462 LINE",
"53 0 LINE",
"1757 0 LINE"
);
}
);
width = 2056;
}
);
note = afii10042;
unicode = 0428;
},
{
glyphname = afii10043;
lastChange = "2017-02-21 05:28:43 +0000";
layers = (
{
layerId = "334C7BAA-C7B0-45C9-BED5-5E40ABBE215F";
paths = (
{
closed = 1;
nodes = (
"2066 1462 LINE",
"1753 1462 LINE",
"1497 258 LINE",
"1116 258 LINE",
"1372 1462 LINE",
"1057 1462 LINE",
"801 258 LINE",
"420 258 LINE",
"676 1462 LINE",
"362 1462 LINE",
"53 0 LINE",
"1663 0 LINE",
"1571 -426 LINE",
"1874 -426 LINE",
"2017 246 LINE",
"1808 246 LINE"
);
}
);
width = 2134;
}
);
note = afii10043;
unicode = 0429;
},
{
glyphname = afii10044;
lastChange = "2017-06-04 18:15:06 +0000";
layers = (
{
anchors = (
{
name = top;
position = "{905, 1462}";
}
);
layerId = "334C7BAA-C7B0-45C9-BED5-5E40ABBE215F";
paths = (
{
closed = 1;
nodes = (
"223 1462 LINE",
"168 1204 LINE",
"520 1204 LINE",
"266 0 LINE",
"705 0 LINE SMOOTH",
"1102 0 OFFCURVE",
"1319 176 OFFCURVE",
"1319 492 CURVE SMOOTH",
"1319 757 OFFCURVE",
"1149 901 OFFCURVE",
"829 901 CURVE SMOOTH",
"762 901 LINE",
"881 1462 LINE"
);
},
{
closed = 1;
nodes = (
"817 647 LINE SMOOTH",
"946 647 OFFCURVE",
"1010 590 OFFCURVE",
"1010 477 CURVE SMOOTH",
"1010 336 OFFCURVE",
"910 254 OFFCURVE",
"725 254 CURVE SMOOTH",
"625 254 LINE",
"709 647 LINE"
);
}
);
width = 1425;
}
);
note = afii10044;
unicode = 042A;
},
{
glyphname = afii10045;
lastChange = "2017-06-04 18:15:06 +0000";
layers = (
{
anchors = (
{
name = top;
position = "{1068, 1462}";
}
);
layerId = "334C7BAA-C7B0-45C9-BED5-5E40ABBE215F";
paths = (
{
closed = 1;
nodes = (
"1448 1462 LINE",
"1139 0 LINE",
"1452 0 LINE",
"1761 1462 LINE"
);
},
{
closed = 1;
nodes = (
"1075 757 OFFCURVE",
"906 901 OFFCURVE",
"586 901 CURVE SMOOTH",
"549 901 LINE",
"668 1462 LINE",
"362 1462 LINE",
"53 0 LINE",
"461 0 LINE SMOOTH",
"858 0 OFFCURVE",
"1075 176 OFFCURVE",
"1075 492 CURVE SMOOTH"
);
},
{
closed = 1;
nodes = (
"573 647 LINE SMOOTH",
"702 647 OFFCURVE",
"766 590 OFFCURVE",
"766 477 CURVE SMOOTH",
"766 336 OFFCURVE",
"666 254 OFFCURVE",
"481 254 CURVE SMOOTH",
"412 254 LINE",
"496 647 LINE"
);
}
);
width = 1751;
}
);
note = afii10045;
unicode = 042B;
},
{
glyphname = afii10046;
lastChange = "2017-02-21 05:28:43 +0000";
layers = (
{
layerId = "334C7BAA-C7B0-45C9-BED5-5E40ABBE215F";
paths = (
{
closed = 1;
nodes = (
"1106 757 OFFCURVE",
"936 901 OFFCURVE",
"616 901 CURVE SMOOTH",
"549 901 LINE",
"668 1462 LINE",
"362 1462 LINE",
"53 0 LINE",
"492 0 LINE SMOOTH",
"889 0 OFFCURVE",
"1106 176 OFFCURVE",
"1106 492 CURVE SMOOTH"
);
},
{
closed = 1;
nodes = (
"604 647 LINE SMOOTH",
"733 647 OFFCURVE",
"797 590 OFFCURVE",
"797 477 CURVE SMOOTH",
"797 336 OFFCURVE",
"697 254 OFFCURVE",
"512 254 CURVE SMOOTH",
"412 254 LINE",
"496 647 LINE"
);
}
);
width = 1212;
}
);
note = afii10046;
unicode = 042C;
},
{
glyphname = afii10047;
lastChange = "2017-06-04 18:15:06 +0000";
layers = (
{
anchors = (
{
name = top;
position = "{819, 1462}";
}
);
layerId = "334C7BAA-C7B0-45C9-BED5-5E40ABBE215F";
paths = (
{
closed = 1;
nodes = (
"263 238 OFFCURVE",
"142 270 OFFCURVE",
"27 334 CURVE",
"27 63 LINE",
"138 2 OFFCURVE",
"263 -20 OFFCURVE",
"424 -20 CURVE SMOOTH",
"575 -20 OFFCURVE",
"708 18 OFFCURVE",
"822 95 CURVE SMOOTH",
"1049 247 OFFCURVE",
"1190 563 OFFCURVE",
"1190 920 CURVE SMOOTH",
"1190 1283 OFFCURVE",
"1003 1485 OFFCURVE",
"659 1485 CURVE SMOOTH",
"504 1485 OFFCURVE",
"358 1455 OFFCURVE",
"219 1395 CURVE",
"299 1149 LINE",
"475 1217 OFFCURVE",
"534 1227 OFFCURVE",
"621 1227 CURVE SMOOTH",
"793 1227 OFFCURVE",
"879 1123 OFFCURVE",
"879 915 CURVE SMOOTH",
"879 889 LINE",
"877 864 LINE",
"350 864 LINE",
"297 610 LINE",
"836 610 LINE",
"756 358 OFFCURVE",
"614 238 OFFCURVE",
"389 238 CURVE SMOOTH"
);
}
);
width = 1253;
}
);
note = afii10047;
unicode = 042D;
},
{
glyphname = afii10048;
lastChange = "2017-06-04 18:15:06 +0000";
layers = (
{
anchors = (
{
name = top;
position = "{1222, 1462}";
}
);
layerId = "334C7BAA-C7B0-45C9-BED5-5E40ABBE215F";
paths = (
{
closed = 1;
nodes = (
"1997 1283 OFFCURVE",
"1812 1485 OFFCURVE",
"1491 1485 CURVE SMOOTH",
"1164 1485 OFFCURVE",
"916 1273 OFFCURVE",
"809 889 CURVE",
"547 889 LINE",
"668 1462 LINE",
"362 1462 LINE",
"53 0 LINE",
"358 0 LINE",
"492 631 LINE",
"768 631 LINE",
"765 602 OFFCURVE",
"764 570 OFFCURVE",
"764 537 CURVE SMOOTH",
"764 188 OFFCURVE",
"957 -20 OFFCURVE",
"1278 -20 CURVE SMOOTH",
"1425 -20 OFFCURVE",
"1552 19 OFFCURVE",
"1660 98 CURVE SMOOTH",
"1875 254 OFFCURVE",
"1997 566 OFFCURVE",
"1997 938 CURVE SMOOTH"
);
},
{
closed = 1;
nodes = (
"1608 1227 OFFCURVE",
"1686 1115 OFFCURVE",
"1686 930 CURVE SMOOTH",
"1686 796 OFFCURVE",
"1669 677 OFFCURVE",
"1636 572 CURVE SMOOTH",
"1568 362 OFFCURVE",
"1443 240 OFFCURVE",
"1300 240 CURVE SMOOTH",
"1159 240 OFFCURVE",
"1075 341 OFFCURVE",
"1075 537 CURVE SMOOTH",
"1075 662 OFFCURVE",
"1092 777 OFFCURVE",
"1126 884 CURVE SMOOTH",
"1194 1097 OFFCURVE",
"1321 1227 OFFCURVE",
"1464 1227 CURVE SMOOTH"
);
}
);
width = 2060;
}
);
note = afii10048;
unicode = 042E;
},
{
glyphname = afii10049;
lastChange = "2017-06-04 18:15:06 +0000";
layers = (
{
anchors = (
{
name = top;
position = "{820, 1462}";
}
);
layerId = "334C7BAA-C7B0-45C9-BED5-5E40ABBE215F";
paths = (
{
closed = 1;
nodes = (
"651 0 LINE",
"956 0 LINE",
"1266 1462 LINE",
"780 1462 LINE SMOOTH",
"407 1462 OFFCURVE",
"193 1286 OFFCURVE",
"193 989 CURVE SMOOTH",
"193 846 OFFCURVE",
"246 748 OFFCURVE",
"389 657 CURVE",
"-125 0 LINE",
"238 0 LINE",
"653 561 LINE",
"770 561 LINE"
);
},
{
closed = 1;
nodes = (
"715 813 LINE SMOOTH",
"590 813 OFFCURVE",
"512 878 OFFCURVE",
"512 983 CURVE SMOOTH",
"512 1131 OFFCURVE",
"603 1208 OFFCURVE",
"772 1208 CURVE SMOOTH",
"907 1208 LINE",
"823 813 LINE"
);
}
);
width = 1255;
}
);
note = afii10049;
unicode = 042F;
},
{
glyphname = afii10066;
lastChange = "2017-02-21 05:28:43 +0000";
layers = (
{
layerId = "334C7BAA-C7B0-45C9-BED5-5E40ABBE215F";
paths = (
{
closed = 1;
nodes = (
"109 148 OFFCURVE",
"254 -20 OFFCURVE",
"522 -20 CURVE SMOOTH",
"636 -20 OFFCURVE",
"737 9 OFFCURVE",
"826 66 CURVE SMOOTH",
"1002 181 OFFCURVE",
"1106 411 OFFCURVE",
"1106 674 CURVE SMOOTH",
"1106 913 OFFCURVE",
"998 1042 OFFCURVE",
"809 1042 CURVE SMOOTH",
"681 1042 OFFCURVE",
"565 984 OFFCURVE",
"477 872 CURVE",
"475 872 LINE",
"495 949 OFFCURVE",
"520 1012 OFFCURVE",
"550 1061 CURVE SMOOTH",
"610 1158 OFFCURVE",
"690 1213 OFFCURVE",
"846 1245 CURVE SMOOTH",
"923 1260 OFFCURVE",
"1064 1283 OFFCURVE",
"1268 1313 CURVE",
"1237 1571 LINE",
"1038 1544 OFFCURVE",
"893 1522 OFFCURVE",
"804 1503 CURVE SMOOTH",
"715 1484 OFFCURVE",
"646 1463 OFFCURVE",
"598 1442 CURVE SMOOTH",
"295 1305 OFFCURVE",
"109 902 OFFCURVE",
"109 461 CURVE SMOOTH"
);
},
{
closed = 1;
nodes = (
"460 227 OFFCURVE",
"414 302 OFFCURVE",
"414 451 CURVE SMOOTH",
"414 504 OFFCURVE",
"422 568 OFFCURVE",
"438 645 CURVE",
"518 754 OFFCURVE",
"613 817 OFFCURVE",
"688 817 CURVE SMOOTH",
"765 817 OFFCURVE",
"803 766 OFFCURVE",
"803 664 CURVE SMOOTH",
"803 593 OFFCURVE",
"791 522 OFFCURVE",
"768 453 CURVE SMOOTH",
"720 313 OFFCURVE",
"639 227 OFFCURVE",
"551 227 CURVE SMOOTH"
);
}
);
width = 1198;
}
);
note = afii10066;
unicode = 0431;
},
{
glyphname = afii10067;
lastChange = "2017-02-21 05:28:43 +0000";
layers = (
{
layerId = "334C7BAA-C7B0-45C9-BED5-5E40ABBE215F";
paths = (
{
closed = 1;
nodes = (
"588 1139 OFFCURVE",
"479 1109 OFFCURVE",
"385 1048 CURVE SMOOTH",
"196 927 OFFCURVE",
"90 701 OFFCURVE",
"90 432 CURVE SMOOTH",
"90 140 OFFCURVE",
"264 -20 OFFCURVE",
"567 -20 CURVE SMOOTH",
"666 -20 OFFCURVE",
"752 -5 OFFCURVE",
"825 25 CURVE SMOOTH",
"971 84 OFFCURVE",
"1051 197 OFFCURVE",
"1051 338 CURVE SMOOTH",
"1051 450 OFFCURVE",
"991 528 OFFCURVE",
"872 561 CURVE",
"872 565 LINE",
"1033 602 OFFCURVE",
"1114 689 OFFCURVE",
"1114 838 CURVE SMOOTH",
"1114 1022 OFFCURVE",
"960 1139 OFFCURVE",
"711 1139 CURVE SMOOTH"
);
},
{
closed = 1;
nodes = (
"688 475 OFFCURVE",
"748 432 OFFCURVE",
"748 344 CURVE SMOOTH",
"748 253 OFFCURVE",
"684 190 OFFCURVE",
"571 190 CURVE SMOOTH",
"452 190 OFFCURVE",
"391 272 OFFCURVE",
"391 412 CURVE SMOOTH",
"391 444 LINE",
"393 475 LINE",
"539 475 LINE SMOOTH"
);
},
{
closed = 1;
nodes = (
"769 922 OFFCURVE",
"817 885 OFFCURVE",
"817 821 CURVE SMOOTH",
"817 729 OFFCURVE",
"751 682 OFFCURVE",
"635 682 CURVE SMOOTH",
"434 682 LINE",
"486 829 OFFCURVE",
"585 922 OFFCURVE",
"698 922 CURVE SMOOTH"
);
}
);
width = 1174;
}
);
note = afii10067;
unicode = 0432;
},
{
glyphname = afii10068;
lastChange = "2017-06-04 18:15:06 +0000";
layers = (
{
anchors = (
{
name = bottomright;
position = "{842, 0}";
},
{
name = top;
position = "{610, 1118}";
}
);
layerId = "334C7BAA-C7B0-45C9-BED5-5E40ABBE215F";
paths = (
{
closed = 1;
nodes = (
"341 888 OFFCURVE",
"430 913 OFFCURVE",
"506 913 CURVE SMOOTH",
"587 913 OFFCURVE",
"627 884 OFFCURVE",
"627 827 CURVE SMOOTH",
"627 786 OFFCURVE",
"609 758 OFFCURVE",
"570 735 CURVE SMOOTH",
"551 724 OFFCURVE",
"497 703 OFFCURVE",
"410 674 CURVE SMOOTH",
"318 643 OFFCURVE",
"220 611 OFFCURVE",
"146 556 CURVE SMOOTH",
"72 500 OFFCURVE",
"20 421 OFFCURVE",
"20 297 CURVE SMOOTH",
"20 97 OFFCURVE",
"161 -20 OFFCURVE",
"406 -20 CURVE SMOOTH",
"558 -20 OFFCURVE",
"670 3 OFFCURVE",
"795 66 CURVE",
"795 293 LINE",
"668 233 OFFCURVE",
"559 203 OFFCURVE",
"469 203 CURVE SMOOTH",
"374 203 OFFCURVE",
"326 236 OFFCURVE",
"326 303 CURVE SMOOTH",
"326 343 OFFCURVE",
"346 369 OFFCURVE",
"390 393 CURVE SMOOTH",
"411 405 OFFCURVE",
"455 423 OFFCURVE",
"522 446 CURVE SMOOTH",
"631 485 OFFCURVE",
"733 520 OFFCURVE",
"808 576 CURVE SMOOTH",
"883 632 OFFCURVE",
"930 709 OFFCURVE",
"930 836 CURVE SMOOTH",
"930 1031 OFFCURVE",
"796 1139 OFFCURVE",
"557 1139 CURVE SMOOTH",
"418 1139 OFFCURVE",
"288 1110 OFFCURVE",
"166 1051 CURVE",
"240 838 LINE"
);
}
);
width = 981;
}
);
note = afii10068;
unicode = 0433;
},
{
glyphname = afii10069;
lastChange = "2017-02-21 05:28:43 +0000";
layers = (
{
layerId = "334C7BAA-C7B0-45C9-BED5-5E40ABBE215F";
paths = (
{
closed = 1;
nodes = (
"1165 1361 OFFCURVE",
"992 1577 OFFCURVE",
"645 1577 CURVE SMOOTH",
"521 1577 OFFCURVE",
"417 1561 OFFCURVE",
"332 1528 CURVE",
"395 1290 LINE",
"460 1317 OFFCURVE",
"527 1331 OFFCURVE",
"598 1331 CURVE SMOOTH",
"785 1331 OFFCURVE",
"862 1210 OFFCURVE",
"862 934 CURVE SMOOTH",
"862 904 LINE",
"860 868 LINE",
"854 868 LINE",
"790 990 OFFCURVE",
"696 1051 OFFCURVE",
"573 1051 CURVE SMOOTH",
"479 1051 OFFCURVE",
"395 1025 OFFCURVE",
"322 973 CURVE SMOOTH",
"174 868 OFFCURVE",
"90 670 OFFCURVE",
"90 422 CURVE SMOOTH",
"90 143 OFFCURVE",
"246 -20 OFFCURVE",
"522 -20 CURVE SMOOTH",
"653 -20 OFFCURVE",
"766 18 OFFCURVE",
"862 93 CURVE SMOOTH",
"1053 244 OFFCURVE",
"1165 549 OFFCURVE",
"1165 928 CURVE SMOOTH"
);
},
{
closed = 1;
nodes = (
"446 225 OFFCURVE",
"393 295 OFFCURVE",
"393 412 CURVE SMOOTH",
"393 660 OFFCURVE",
"492 819 OFFCURVE",
"645 819 CURVE SMOOTH",
"740 819 OFFCURVE",
"798 754 OFFCURVE",
"825 666 CURVE",
"781 377 OFFCURVE",
"680 225 OFFCURVE",
"539 225 CURVE SMOOTH"
);
}
);
width = 1231;
}
);
note = afii10069;
unicode = 0434;
},
